<?xml version="1.0" encoding="UTF-8"?>
<svg id="Calque_2" data-name="Calque 2" xmlns="http://www.w3.org/2000/svg" viewBox="0 0 37.08 29.66">
  <g id="pictogrammes">
    <g>
      <path d="M9.6,29.43c-2.13,0-2.45-1.36-2.45-2.17V5.36L1.88,7.83l-.2-.08c-.47-.18-.87-.46-1.18-.82-.33-.39-.5-.88-.5-1.46s.16-1.1.47-1.49c.3-.37.78-.69,1.47-.97L8.47.23h.86c.74,0,1.34.23,1.8.69.46.46.69,1.06.69,1.8v26.25l-.34.11c-.19.06-.44.13-.76.21-.34.09-.72.13-1.12.13ZM8.15,3.79v23.47c0,.61.17,1.17,1.45,1.17.32,0,.61-.03.88-.1.13-.03.24-.06.34-.09V2.72c0-.47-.13-.83-.4-1.1-.27-.27-.62-.4-1.09-.4h-.76L2.33,3.95c-.66.27-.95.51-1.08.67-.17.21-.25.5-.25.86,0,.33.09.6.27.81.16.19.35.34.58.46l6.3-2.95Z"/>
      <path d="M26.39,29.66c-3.2,0-5.81-.73-7.75-2.16-1.98-1.46-2.99-3.56-2.99-6.22,0-.99.16-1.91.46-2.71.31-.8.72-1.53,1.24-2.15.51-.62,1.12-1.16,1.79-1.6.33-.21.68-.41,1.03-.59-1.04-.53-1.89-1.22-2.54-2.05-.87-1.11-1.31-2.52-1.31-4.2,0-1.22.25-2.34.73-3.32.48-.98,1.19-1.84,2.09-2.53.89-.68,1.96-1.21,3.2-1.58,1.22-.36,2.58-.54,4.04-.54,3.06,0,5.51.71,7.3,2.12,1.82,1.44,2.75,3.44,2.75,5.94,0,1.72-.5,3.15-1.49,4.25-.7.79-1.56,1.43-2.56,1.91.38.18.75.39,1.1.61.7.45,1.33.98,1.85,1.59.53.61.96,1.34,1.27,2.17.31.82.46,1.74.46,2.73,0,1.31-.27,2.5-.8,3.53-.53,1.03-1.28,1.91-2.23,2.62-.93.7-2.07,1.24-3.37,1.62-1.29.37-2.73.56-4.28.56ZM26.39,1c-1.36,0-2.62.17-3.75.5-1.11.33-2.08.8-2.87,1.41-.78.6-1.39,1.33-1.8,2.18-.42.85-.63,1.82-.63,2.88,0,1.45.37,2.65,1.09,3.59.74.95,1.8,1.69,3.15,2.19l1.22.46-1.21.48c-.66.26-1.3.59-1.9.97-.59.38-1.11.85-1.56,1.39-.45.54-.81,1.17-1.07,1.88-.26.69-.4,1.49-.4,2.36,0,2.36.84,4.13,2.58,5.42,1.76,1.3,4.17,1.96,7.15,1.96,1.45,0,2.8-.18,4-.52,1.19-.34,2.22-.83,3.05-1.46.82-.61,1.48-1.38,1.94-2.27.46-.89.69-1.92.69-3.08,0-.87-.13-1.67-.4-2.38-.27-.71-.63-1.34-1.09-1.86-.46-.53-1.01-1.01-1.63-1.4-.63-.4-1.31-.74-2.03-.99l-1.34-.48,1.35-.46c1.33-.45,2.43-1.16,3.27-2.1.83-.92,1.23-2.1,1.23-3.58,0-2.21-.77-3.9-2.37-5.15-1.61-1.27-3.86-1.91-6.68-1.91ZM26.39,26.62c-2.18,0-3.92-.47-5.16-1.39-1.29-.96-1.95-2.3-1.95-4s.62-3.18,1.84-4.27c1.18-1.05,2.77-1.76,4.73-2.11h.07s.07,0,.07,0c2.26.28,4.07.96,5.39,2.01,1.37,1.09,2.07,2.55,2.07,4.33s-.67,3.17-2,4.1c-1.27.89-2.98,1.33-5.06,1.33ZM25.95,15.85c-1.73.32-3.13.94-4.16,1.86-1.01.9-1.51,2.06-1.51,3.52,0,1.38.5,2.43,1.54,3.2,1.07.79,2.61,1.19,4.57,1.19s3.39-.39,4.49-1.16c1.06-.74,1.57-1.81,1.57-3.28s-.55-2.64-1.69-3.55c-1.16-.92-2.78-1.52-4.81-1.79ZM26.97,13.55h-.09c-.93-.1-1.82-.27-2.62-.5-.83-.24-1.57-.57-2.2-.99-.65-.43-1.17-.99-1.54-1.64-.37-.66-.56-1.47-.56-2.4,0-1.52.61-2.75,1.8-3.66,1.15-.88,2.71-1.32,4.63-1.32s3.5.43,4.64,1.28c1.19.88,1.79,2.14,1.79,3.75,0,1.44-.51,2.62-1.5,3.5-.95.83-2.38,1.5-4.26,1.97l-.08.02ZM26.39,4.03c-1.69,0-3.04.38-4.02,1.12-.95.72-1.41,1.66-1.41,2.86,0,.76.15,1.4.43,1.9.29.52.7.96,1.22,1.3.54.36,1.19.65,1.92.86.72.21,1.52.36,2.36.45,1.68-.43,2.95-1.01,3.76-1.73.79-.69,1.17-1.59,1.17-2.75,0-1.29-.45-2.26-1.38-2.95-.96-.72-2.33-1.08-4.05-1.08Z"/>
    </g>
  </g>
</svg>