<?xml version="1.0" encoding="UTF-8"?>
<svg id="Calque_2" data-name="Calque 2" xmlns="http://www.w3.org/2000/svg" viewBox="0 0 32.23 42.16">
  <defs>
    <style>
      .cls-1 {
        fill: #542e08;
      }
    </style>
  </defs>
  <g id="pictogrammes">
    <g>
      <path class="cls-1" d="M19.69,42.16H3.94c-2.17,0-3.94-1.76-3.94-3.93V12.04h1.29v1h-.29v25.18c0,1.62,1.32,2.93,2.94,2.93h15.75c1.62,0,2.93-1.32,2.93-2.93V13.04h-.28v-1h1.28v26.18c0,2.17-1.76,3.93-3.93,3.93Z"/>
      <path class="cls-1" d="M23.49,13.04H.14l6.08-6.46h11.19l6.09,6.46ZM2.45,12.04h18.73l-4.2-4.46H6.65l-4.2,4.46Z"/>
      <path class="cls-1" d="M17.4,7.59H6.23V3.09c0-.61.5-1.11,1.11-1.11h8.95c.61,0,1.11.5,1.11,1.11v4.5ZM7.23,6.59h9.17v-3.5c0-.06-.05-.11-.11-.11H7.34c-.06,0-.11.05-.11.11v3.5Z"/>
      <circle class="cls-1" cx="22.53" cy="4.78" r="1.02"/>
      <circle class="cls-1" cx="31.21" cy="1.02" r="1.02"/>
      <circle class="cls-1" cx="31.21" cy="8.54" r="1.02"/>
      <circle class="cls-1" cx="31.21" cy="4.78" r="1.02"/>
      <circle class="cls-1" cx="26.66" cy="2.9" r="1.02"/>
      <circle class="cls-1" cx="26.66" cy="6.66" r="1.02"/>
    </g>
  </g>
</svg>