<?xml version="1.0" encoding="UTF-8"?>
<svg id="Calque_2" data-name="Calque 2" xmlns="http://www.w3.org/2000/svg" viewBox="0 0 36.64 29.18">
  <defs>
    <style>
      .cls-1 {
        fill: #fff;
      }
    </style>
  </defs>
  <g id="vectorisés">
    <g id="appareil_photos" data-name="appareil photos">
      <path class="cls-1" d="M18.32,26.23c4.76,0,8.64-3.87,8.64-8.64s-3.87-8.64-8.64-8.64-8.64,3.87-8.64,8.64,3.87,8.64,8.64,8.64ZM18.32,9.96c4.21,0,7.64,3.43,7.64,7.64s-3.43,7.64-7.64,7.64-7.64-3.43-7.64-7.64,3.43-7.64,7.64-7.64Z"/>
      <path class="cls-1" d="M16.18,22.56s.07.02.1.02c.1,0,.19-.06.23-.15.05-.13,0-.27-.13-.33-1.79-.78-2.95-2.55-2.95-4.5s1.18-3.76,3.01-4.51c.13-.05.19-.2.14-.33-.05-.13-.2-.19-.33-.14-2.02.84-3.32,2.79-3.32,4.98s1.28,4.1,3.26,4.96Z"/>
      <path class="cls-1" d="M20.27,22.09c-.13.06-.18.2-.13.33.04.09.13.15.23.15.03,0,.07,0,.1-.02,1.98-.86,3.25-2.8,3.25-4.95s-1.25-4.05-3.2-4.92c-.13-.06-.27,0-.33.13-.06.13,0,.27.13.33,1.76.78,2.9,2.53,2.9,4.46s-1.16,3.71-2.95,4.49Z"/>
      <path class="cls-1" d="M3.79,29.18h29.06c2.09,0,3.79-1.7,3.79-3.79V8.18c0-2.09-1.7-3.79-3.79-3.79h-7.34V1.66c0-.92-.74-1.66-1.66-1.66h-10.67c-.92,0-1.66.74-1.66,1.66v2.72h-3.05c0-.91-.75-1.64-1.66-1.64h-.97c-.91,0-1.65.74-1.66,1.64h-.38c-2.09,0-3.79,1.7-3.79,3.79v17.21c0,2.09,1.7,3.79,3.79,3.79ZM12.51,1.66c0-.36.3-.66.66-.66h10.67c.36,0,.66.3.66.66v2.72h-11.99V1.66ZM5.83,3.74h.97c.36,0,.65.29.66.64h-2.28c0-.36.3-.64.66-.64ZM1,8.18c0-1.54,1.25-2.79,2.79-2.79h29.06c1.54,0,2.79,1.25,2.79,2.79v17.21c0,1.54-1.25,2.79-2.79,2.79H3.79c-1.54,0-2.79-1.25-2.79-2.79V8.18Z"/>
      <path class="cls-1" d="M30.77,10.55c.61,0,1.11-.5,1.11-1.11s-.5-1.11-1.11-1.11-1.11.5-1.11,1.11.5,1.11,1.11,1.11ZM30.77,8.83c.34,0,.61.27.61.61s-.27.61-.61.61-.61-.27-.61-.61.27-.61.61-.61Z"/>
    </g>
  </g>
</svg>