<?xml version="1.0" encoding="UTF-8"?>
<svg id="Calque_2" data-name="Calque 2" xmlns="http://www.w3.org/2000/svg" viewBox="0 0 44.29 38.81">
  <g id="pictogrammes">
    <g>
      <path d="M38.47,38.81H5.64v-3.14c-.18-1.11,1.11-1.81,1.89-2.03l.14-.02h28.63c1.55.15,2.1,1.21,2.18,1.75v3.43ZM6.64,37.81h30.84v-2.36s-.17-.72-1.23-.83H7.74c-.33.11-1.18.49-1.11.97v2.22Z"/>
      <path d="M23.78,34.14h-3.43V1.5C20.55.24,21.61-.02,22.17,0c.52,0,.94.13,1.24.44.4.42.38.94.37,1v32.7ZM21.35,33.14h1.43V1.41s0-.18-.1-.28c-.12-.12-.33-.13-.52-.13-.13,0-.73,0-.82.58v31.57Z"/>
      <circle cx="22.07" cy="6.95" r="2.88"/>
      <path d="M36.22,9.66c-1.49,0-2.7-1.21-2.7-2.7s1.21-2.7,2.7-2.7,2.7,1.21,2.7,2.7-1.21,2.7-2.7,2.7ZM36.22,5.25c-.94,0-1.7.76-1.7,1.7s.76,1.7,1.7,1.7,1.7-.76,1.7-1.7-.76-1.7-1.7-1.7Z"/>
      <path d="M8.02,9.66c-1.49,0-2.7-1.21-2.7-2.7s1.21-2.7,2.7-2.7,2.7,1.21,2.7,2.7-1.21,2.7-2.7,2.7ZM8.02,5.25c-.94,0-1.7.76-1.7,1.7s.76,1.7,1.7,1.7,1.7-.76,1.7-1.7-.76-1.7-1.7-1.7Z"/>
      <rect x="24.94" y="6.45" width="8.62" height="1"/>
      <rect x="10.57" y="6.45" width="8.62" height="1"/>
      <path d="M36.12,30.58c-6.72,0-7.83-7.7-7.84-7.77l-.02-.17,7.97-13.45,8.07,13.32-.03.18c-1.15,8.01-8.01,7.91-8.06,7.9h-.09ZM36.22,29.58c.25,0,5.95.07,7.03-6.86l-7.02-11.59-6.94,11.71c.19,1.08,1.43,6.74,6.85,6.74h.08Z"/>
      <rect x=".99" y="21.18" width="14.05" height="1"/>
      <rect x="29.2" y="21.18" width="14.05" height="1"/>
      <path d="M7.87,30.58c-6.72,0-7.83-7.7-7.84-7.77l-.02-.17,7.97-13.45,8.07,13.32-.03.18c-1.15,8.01-8.01,7.91-8.06,7.9h-.09ZM7.97,29.58c.24,0,5.95.07,7.03-6.86l-7.02-11.59L1.04,22.84c.19,1.08,1.43,6.74,6.85,6.74h.08Z"/>
    </g>
  </g>
</svg>