<?xml version="1.0" encoding="UTF-8"?>
<svg id="Calque_2" data-name="Calque 2" xmlns="http://www.w3.org/2000/svg" viewBox="0 0 42.07 40.45">
  <defs>
    <style>
      .cls-1 {
        fill: #957755;
      }
    </style>
  </defs>
  <g id="pictogrammes">
    <g id="Calque_1-2" data-name="Calque 1-2">
      <path class="cls-1" d="M36.68,22.66c.56-.86.84-1.77.84-2.7,0-2.48-2-4.76-5.54-6.34.92-1.32,1.39-2.8,1.39-4.31,0-5.13-5.54-9.3-12.35-9.3-1.18,0-2.35.13-3.48.38-.41.08-.7.42-.74.83-.03.41.19.79.57.95,3.96,1.65,4.2,1.92,4.25,3.26,0,.11,0,1.05-1.34,1.96-.08.05-.59.32-3,.24-1.55-.05-3.34-.23-4.65-.36-.03,0-.05,0-.07,0-.43-.04-.81-.08-1.12-.11h-.02c-.49-.06-.99.03-1.5.27l-.09.05-.14.12c-.49.42-.84.8-1.01,1.86v.52c.03.26.06.5.11.74.21,1.03.63,2,1.26,2.91-3.53,1.58-5.53,3.86-5.53,6.34,0,.93.28,1.84.84,2.7-3.48,1.94-5.39,4.46-5.39,7.16,0,2.95,2.26,5.67,6.37,7.67,3.93,1.91,9.14,2.97,14.67,2.97s10.74-1.06,14.67-2.97c4.11-2,6.37-4.72,6.37-7.67,0-2.7-1.91-5.22-5.39-7.16ZM10.7,8.76c.21-.08.39-.11.57-.09h.04c.32.03.71.07,1.14.11.95.15,2.2.4,3.45.76,1.06.31,2.13.7,3,1.17.73.39,1.33.84,1.69,1.35.15.21.39.32.63.32.16,0,.31-.05.45-.15.35-.25.43-.73.18-1.07-.59-.82-1.55-1.49-2.66-2.03.93-.06,1.58-.22,1.99-.49,1.93-1.32,2.02-2.85,2.01-3.29-.08-1.99-.97-2.76-3.19-3.78.34-.02.69-.03,1.04-.03,5.96,0,10.81,3.48,10.81,7.76,0,1.44-.55,2.84-1.61,4.06-1.99,2.32-5.43,3.7-9.2,3.7s-7.2-1.38-9.2-3.7c-.78-.91-1.29-1.91-1.5-2.96-.05-.24-.08-.49-.1-.75.09-.55.18-.64.46-.89ZM11.04,14.88c2.32,2.4,6,3.83,9.99,3.83s7.68-1.42,10-3.83c3.11,1.31,4.94,3.19,4.94,5.07,0,.84-.35,1.66-1.04,2.46-2.29,2.64-7.87,4.42-13.91,4.42s-11.62-1.77-13.9-4.42c-.69-.79-1.04-1.62-1.04-2.46,0-1.88,1.84-3.76,4.95-5.07ZM35.02,36.09c-3.72,1.81-8.69,2.81-13.99,2.81s-10.27-1-13.99-2.81c-3.54-1.73-5.5-3.95-5.5-6.28,0-2.17,1.72-4.27,4.84-5.94.17.17.35.34.55.5.06.05.12.1.19.15.06.05.13.11.2.16.03.03.07.05.11.08.03.03.07.05.11.08,0,0,.01,0,.02.02.06.04.13.09.19.14.07.05.15.1.22.15.05.03.1.06.15.1.1.06.2.12.3.18.06.04.12.07.18.11.06.03.13.07.19.1.05.03.11.06.16.09.05.03.09.05.14.08l.16.09s.07.03.11.05c.07.03.13.07.2.1.14.06.27.13.41.19.07.03.14.06.21.09.09.04.19.08.28.12.12.05.25.1.37.15.21.08.42.16.64.24.34.12.69.24,1.05.35.12.03.25.07.37.11,0,0,.02,0,.03.01.16.04.31.08.47.13.16.05.33.08.5.13.15.04.3.07.45.11.02,0,.05,0,.07.02.16.03.32.07.48.1,0,0,.02,0,.03,0,.14.03.29.05.43.08.09.02.19.03.28.05.12.02.25.04.37.06.17.03.34.05.52.08.18.03.36.05.55.08.18.02.35.04.54.06h.02c.14.02.27.03.41.04.07,0,.14.01.2.02.11,0,.23.02.34.03h.05c.08,0,.16.01.23.02.01,0,.03,0,.04,0,.11,0,.22.01.33.02.07,0,.14,0,.22.01.13,0,.25.01.38.02.05,0,.11,0,.16,0,.16,0,.32,0,.48.01.19,0,.38,0,.58,0s.39,0,.58,0c.16,0,.32,0,.48-.01.05,0,.11,0,.16,0,.13,0,.25,0,.38-.02.08,0,.15,0,.22-.01.11,0,.22-.01.33-.02.01,0,.03,0,.04,0,.08,0,.16,0,.23-.02h.05c.11,0,.22-.02.34-.03.07,0,.14-.01.2-.02.13-.01.27-.03.4-.04h.02c.18-.02.36-.04.54-.06.19-.03.37-.05.55-.08.17-.02.34-.05.51-.08.13-.02.25-.04.37-.06.09-.02.19-.03.28-.05.14-.03.29-.05.44-.08,0,0,.02,0,.03,0,.16-.03.32-.06.47-.1.02,0,.05-.01.07-.02.15-.03.3-.07.45-.11.17-.04.33-.08.5-.13.16-.04.32-.08.48-.13,0,0,.02,0,.03-.01.12-.03.25-.07.37-.11.36-.11.71-.22,1.05-.35.22-.08.43-.16.64-.24.13-.05.25-.1.37-.15.1-.04.19-.08.28-.12.07-.03.14-.06.21-.09.14-.06.27-.13.41-.19.07-.03.14-.07.2-.1.03-.02.07-.03.11-.05.05-.03.11-.06.17-.09l.14-.08c.05-.03.11-.06.16-.09.06-.03.12-.07.19-.1.06-.04.12-.07.18-.11.1-.06.2-.12.3-.18.05-.03.1-.06.15-.1.08-.05.15-.1.22-.15.07-.05.13-.09.19-.14,0,0,.02-.01.02-.02.04-.03.07-.05.11-.08.03-.02.07-.05.11-.08.07-.05.14-.1.2-.16.06-.05.12-.1.18-.15.2-.16.38-.33.56-.5,3.12,1.68,4.84,3.77,4.84,5.94,0,2.32-1.96,4.55-5.5,6.28h0Z"/>
    </g>
  </g>
</svg>