<?xml version="1.0" encoding="UTF-8"?>
<svg id="Calque_2" data-name="Calque 2" xmlns="http://www.w3.org/2000/svg" viewBox="0 0 38.21 34.82">
  <defs>
    <style>
      .cls-1 {
        fill: #fff;
      }
    </style>
  </defs>
  <g id="vectorisés">
    <g id="calendrier">
      <path class="cls-1" d="M13.26,0c-1.32,0-2.24.52-2.24,1.27v7.35c0,.4.29.77.83,1.02.4.17.91.26,1.41.26,1.29,0,2.23-.54,2.23-1.27V1.27c0-.29-.14-.7-.79-1.01-.37-.17-.87-.27-1.44-.27ZM13.26,8.89c-.38,0-.75-.06-1.01-.17-.13-.06-.2-.12-.22-.12,0,0,0,0,0,.01V1.33c.05-.1.49-.33,1.24-.33.42,0,.78.06,1.01.17.13.06.19.11.22.14v7.25c-.05.1-.49.33-1.23.33Z"/>
      <path class="cls-1" d="M32.07,4.42h-3.89c-.22,0-.4.15-.47.35h0v.04s-.02.07-.02.11.01.08.02.11v3.75c0,1.35-1.01,2.15-2.71,2.15-.56,0-1.1-.11-1.55-.31-1.01-.45-1.17-1.35-1.17-1.85v-4.02h-.03c-.07-.2-.25-.35-.47-.35h-5.33c-.22,0-.4.14-.47.34h-.03v4.03c0,1.35-1.02,2.16-2.73,2.16-.56,0-1.11-.11-1.55-.31-1.03-.45-1.18-1.36-1.18-1.85v-3.71c.02-.05.03-.1.03-.16s-.01-.11-.03-.16h0s0,0,0,0c-.07-.19-.25-.34-.47-.34h-3.88C2.76,4.42,0,8.08,0,12.58v14.08c0,4.5,2.76,8.17,6.14,8.17h25.93c3.39,0,6.14-3.66,6.14-8.17v-14.08c0-4.5-2.76-8.15-6.14-8.15ZM37.21,26.66c0,3.95-2.31,7.17-5.14,7.17H6.14c-2.84,0-5.14-3.22-5.14-7.17v-14.08c0-3.94,2.31-7.15,5.14-7.15h3.35v3.37c0,.6.17,2.06,1.77,2.77.57.26,1.25.4,1.96.4,2.26,0,3.73-1.24,3.73-3.16v-3.37h4.33v3.37c0,.46.13,2.04,1.76,2.76.58.26,1.26.39,1.96.39,2.25,0,3.71-1.24,3.71-3.15v-3.37h3.37c2.84,0,5.14,3.21,5.14,7.15v14.08Z"/>
      <path class="cls-1" d="M22.72,1.27v7.34c0,.24.11.7.81,1.01.39.18.9.27,1.43.27,1.29,0,2.23-.54,2.23-1.28V1.27c0-.24-.1-.69-.8-1.01-1.2-.54-3.67-.24-3.67,1.01ZM24.96,8.9c-.38,0-.75-.07-1.02-.19-.12-.06-.19-.11-.21-.11,0,0,0,0,0,0V1.33c.05-.1.49-.33,1.24-.33.39,0,.76.07,1.02.18.15.07.22.13.22.1v7.29c-.05.1-.49.34-1.23.34Z"/>
      <path class="cls-1" d="M17.81,21.12c.7-.6,1.1-1.41,1.1-2.35,0-1.51-1.14-3.13-3.63-3.13-1.37,0-2.52.49-3.11.92-.24.17-.33.49-.23.76l.36,1.02c.08.2.24.35.42.41.2.07.42.03.58-.09.37-.25,1.02-.56,1.69-.56.77,0,1.16.31,1.16.89,0,.8-1.01,1.09-1.65,1.09h-.78c-.36,0-.66.31-.66.66v1.05c0,.37.31.66.66.66h.78c.46,0,1.99.11,2.02,1.42,0,.16-.03.57-.35.89-.29.29-.74.44-1.34.44-.78,0-1.59-.32-1.94-.54-.16-.11-.37-.13-.57-.07-.19.07-.35.21-.41.41l-.37,1.08c-.11.29,0,.61.25.78.57.37,1.71.81,3.05.81,3.05,0,4.45-1.97,4.45-3.77,0-1.16-.57-2.16-1.5-2.78ZM14.87,27c-1.16,0-2.18-.37-2.68-.7l.39-1.09c.4.25,1.31.65,2.28.65,1.81,0,2.36-1.14,2.35-2.01-.03-1.45-1.33-2.07-2.68-2.07h-.78v-1.05h.78c1.02,0,2.31-.52,2.31-1.75,0-.82-.53-1.55-1.82-1.55-.82,0-1.62.36-2.07.68l-.36-1.01c.54-.4,1.59-.8,2.71-.8,2.03,0,2.96,1.21,2.96,2.47,0,1.06-.64,1.97-1.91,2.43v.03c1.28.27,2.31,1.22,2.31,2.67,0,1.66-1.29,3.11-3.78,3.11Z"/>
      <path class="cls-1" d="M24.8,15.81h-1.2c-.11,0-.21.03-.32.08l-2.26,1.21c-.27.15-.4.45-.33.74l.28,1.08c.04.2.19.36.37.44.19.08.4.08.58-.03l.85-.45v7.94c0,.37.29.66.66.66h1.35c.37,0,.66-.29.66-.66v-10.35c0-.37-.29-.66-.66-.66ZM24.8,26.82h-1.35v-9.04h-.03l-1.81.97-.27-1.06,2.26-1.21h1.2v10.35Z"/>
    </g>
  </g>
</svg>