<svg version="1.1" xmlns="http://www.w3.org/2000/svg" xmlns:xlink="http://www.w3.org/1999/xlink" width="39.01px" height="30.07px" viewBox="0,0,256,197.32292"><g fill="#497c29" fill-rule="nonzero" stroke="none" stroke-width="1" stroke-linecap="butt" stroke-linejoin="miter" stroke-miterlimit="10" stroke-dasharray="" stroke-dashoffset="0" font-family="none" font-weight="none" font-size="none" text-anchor="none" style="mix-blend-mode: normal"><g transform="translate(-0.0326,-0.04554) scale(6.56242,6.56242)"><g id="vectorisés"><g id="carte"><path d="M4.54,14.03c-0.95,0 -1.72,0.77 -1.72,1.72c0,0.95 0.77,1.72 1.72,1.72c0.95,0 1.72,-0.77 1.72,-1.72c0,-0.95 -0.77,-1.72 -1.72,-1.72zM4.54,16.97c-0.67,0 -1.22,-0.55 -1.22,-1.22c0,-0.67 0.55,-1.22 1.22,-1.22c0.67,0 1.22,0.55 1.22,1.22c0,0.67 -0.55,1.22 -1.22,1.22z"></path><path d="M38.93,29.82c0.09,-0.14 0.1,-0.3 0.05,-0.44v-23.01c0,0 0,-0.03 0,-0.05c0,-0.03 0,-0.07 -0.02,-0.1c0,-0.03 -0.02,-0.06 -0.03,-0.09c-0.01,-0.03 -0.03,-0.05 -0.05,-0.08c-0.02,-0.03 -0.05,-0.05 -0.07,-0.07c-0.01,0 -0.02,-0.02 -0.03,-0.03l-8.08,-5.43c-1.03,-0.69 -2.36,-0.69 -3.38,0l-7.8,5.26l-7.81,-5.26c-1.03,-0.69 -2.36,-0.69 -3.38,0l-8.11,5.46c0,0 -0.02,0.02 -0.03,0.03c-0.03,0.02 -0.05,0.05 -0.07,0.07c-0.02,0.02 -0.04,0.05 -0.05,0.08c-0.02,0.03 -0.03,0.06 -0.04,0.09c-0.01,0.03 -0.02,0.06 -0.02,0.1c0,0.02 0,0.03 0,0.05v23.18c0,0.28 0.22,0.5 0.5,0.5c0,0 0.01,0 0.02,0c0,0 0.01,0 0.02,0c0.02,0 0.05,-0.02 0.07,-0.02c0.04,0 0.08,-0.02 0.11,-0.03c0.03,-0.01 0.07,0 0.1,-0.03l8.11,-5.46c0.69,-0.46 1.58,-0.46 2.27,0l8.08,5.45c0,0 0.02,0 0.03,0.01c0.03,0.02 0.06,0.03 0.09,0.04c0.04,0.01 0.09,0.02 0.13,0.03c0,0 0,0 0.01,0c0,0 0,0 0.01,0c0.11,0 0.22,-0.04 0.31,-0.11l8.05,-5.41c0.69,-0.46 1.58,-0.46 2.27,0l7.91,5.33c0.09,0.12 0.23,0.19 0.39,0.19c0.04,0 0.07,-0.01 0.1,-0.02c0.02,0 0.04,0 0.06,-0.01c0.02,0 0.04,-0.01 0.06,-0.02c0.09,-0.04 0.17,-0.09 0.23,-0.18zM29.5,23.22c0,0 0.01,-0.03 0.01,-0.05v-6.48c0,-0.28 -0.22,-0.5 -0.5,-0.5c-0.28,0 -0.5,0.22 -0.5,0.5v6.48c0,0 0.01,0.05 0.01,0.07c-0.41,0.07 -0.81,0.22 -1.17,0.47l-7.31,4.92v-12.87c0,-0.28 -0.22,-0.5 -0.5,-0.5c-0.28,0 -0.5,0.22 -0.5,0.5v12.86l-7.29,-4.91c-0.39,-0.26 -0.81,-0.42 -1.25,-0.49c0,-0.02 0.01,-0.03 0.01,-0.05v-5.83c0,-0.28 -0.22,-0.5 -0.5,-0.5c-0.28,0 -0.5,0.22 -0.5,0.5v5.83c0,0 0.01,0.05 0.01,0.07c-0.4,0.07 -0.8,0.22 -1.16,0.47l-7.36,4.96v-22.01l7.89,-5.31c0.69,-0.46 1.58,-0.46 2.27,0l8.08,5.45c0,0 0.02,0 0.03,0.01c0.02,0.01 0.05,0.02 0.07,0.03c0.05,0.02 0.09,0.03 0.14,0.03c0.01,0 0.02,0 0.04,0c0.01,0 0.02,0 0.03,0c0.09,0 0.17,-0.03 0.25,-0.08v0l8.07,-5.44c0.69,-0.46 1.58,-0.46 2.27,0l7.84,5.28v21.94l-7.24,-4.87c-0.38,-0.26 -0.8,-0.42 -1.24,-0.48z"></path><path d="M34.19,8.3l0.74,-0.74c0.05,-0.05 0.08,-0.13 0.08,-0.2c0,-0.07 -0.03,-0.15 -0.08,-0.2c-0.06,-0.06 -0.13,-0.08 -0.2,-0.08c-0.07,0 -0.14,0.03 -0.2,0.08l-0.74,0.74l-0.74,-0.74c-0.05,-0.05 -0.13,-0.08 -0.2,-0.08c-0.07,0 -0.14,0.03 -0.2,0.08c-0.11,0.11 -0.11,0.29 0,0.4l0.74,0.74l-0.74,0.74c-0.06,0.06 -0.08,0.13 -0.08,0.2c0,0.07 0.03,0.14 0.08,0.2c0.05,0.06 0.13,0.08 0.2,0.08c0.07,0 0.15,-0.03 0.2,-0.08l0.74,-0.74l0.74,0.74c0.06,0.06 0.13,0.08 0.2,0.08c0.07,0 0.14,-0.03 0.2,-0.08c0.11,-0.11 0.11,-0.29 0,-0.4z"></path><path d="M31.02,9.95l-4.3,2.81l-3.18,-3.97c-0.08,-0.1 -0.23,-0.12 -0.33,-0.05l-8.36,5.44l-2.19,-2.66c-0.08,-0.1 -0.21,-0.12 -0.32,-0.06l-4.79,2.84c-0.12,0.07 -0.16,0.22 -0.09,0.34c0.05,0.08 0.13,0.12 0.22,0.12c0.04,0 0.09,-0.01 0.13,-0.03l4.61,-2.73l2.2,2.67c0.08,0.1 0.22,0.12 0.33,0.05l8.36,-5.43l3.18,3.97c0.08,0.1 0.22,0.12 0.33,0.05l4.49,-2.93c0.12,-0.08 0.15,-0.23 0.07,-0.35c-0.08,-0.12 -0.23,-0.15 -0.35,-0.07z"></path></g></g></g></g></svg>