<?xml version="1.0" encoding="UTF-8"?>
<svg id="Calque_2" data-name="Calque 2" xmlns="http://www.w3.org/2000/svg" viewBox="0 0 37.36 34.92">
  <defs>
    <style>
      .cls-1 {
        fill: #e75113;
      }
    </style>
  </defs>
  <g id="pictogrammes">
    <path class="cls-1" d="M27.65,0H9.7C4.35,0,0,4.35,0,9.7v8.38s0,0,0,0c0,0,0,.02,0,.02H0s0,.02,0,.02c0,.53.04,1.04.09,1.54v.15s.02.06.03.09c.13,1.11.37,2.14.74,3.04,0,.02.02.04.03.06.79,1.86,1.98,2.93,3.27,2.93.59,0,1.17-.23,1.67-.65.57-.45,1.08-1.16,1.48-2.02.12.62.27,1.23.47,1.8,0,0,0,0,0,0,0,0,0,0,0,0,.8,2.25,2.12,3.54,3.63,3.54,1.43,0,2.69-1.17,3.5-3.2h.35c.73,2.56,2.17,4.14,3.82,4.14,1.48,0,3.12-1.28,3.84-3.98.29.68.62,1.27,1,1.72-2.57,1.51-3.88,3.5-3.36,5.19.48,1.57,2.41,2.44,4.92,2.44,1.2,0,2.53-.2,3.89-.62,1.82-.57,3.48-1.57,4.97-2.94,0,0,.02,0,.02,0,.19-.11.38-.3.57-.51.08-.09.16-.17.22-.22,1.52-1.33,2.27-3.31,2.18-5.72,0,0,0,0,0,0v-15.2c0-5.35-4.35-9.7-9.7-9.7ZM34.51,29.87s-.05.05-.07.07c-.03.02-.06.03-.09.06-1.56,1.63-3.29,2.73-5.27,3.35-3.57,1.09-7.03.56-7.56-1.16-.4-1.3,1.01-3.08,3.43-4.34.72-.37,1.44-.67,2.16-.88.51-.17,1.06-.3,1.65-.39.04,0,.08-.03.12-.04.12-.02.23-.07.32-.17.27-.33.71-1.02.87-1.57,0,0,0-.01.01-.02,0,0,0-.02,0-.02,0,0,0,0,0-.01,0,0,0,0,0,0,.29-.95.28-1.87.26-2.93,0-.27,0-.54,0-.83v-.18c0-2.03,0-3.64-.25-5.27-.04-.27-.3-.46-.57-.42-.27.04-.46.3-.42.57.24,1.55.24,3.12.24,5.11v.18c0,.29,0,.58,0,.85.02,1.03.03,1.85-.22,2.65,0,0,0,0,0,0,0,0,0,0,0,0-.09.32-.37.81-.61,1.13-.61.1-1.19.23-1.71.41-.65.19-1.31.47-1.98.79-.45-.48-.86-1.17-1.17-2.05-.13-.38-.28-.88-.39-1.34,0-.03,0-.07-.01-.1-.17-.79-.25-1.65-.25-2.56,0,0,0-.01,0-.02,0-1.2,0-2.95,0-4.27v-1.39c0-.28-.22-.5-.5-.5s-.5.22-.5.5v1.38c0,1.49-.01,3.53,0,4.71,0,.02,0,.03.01.05.02.8.11,1.55.25,2.19-.26,3.76-2.05,5.13-3.2,5.13-1.21,0-2.4-1.51-2.96-3.76-.24-.92-.37-1.99-.37-3.1,0-.22,0-.42-.01-.63,0-.1.01-.2.01-.3,0-.03-.01-.05-.02-.08-.01-.57-.03-1.12-.05-1.63-.06-1.43-.11-2.66.06-3.9.04-.27-.15-.53-.43-.56-.27-.04-.53.15-.56.43-.19,1.33-.13,2.6-.07,4.07.03.6.05,1.25.06,1.93,0,.28-.02.57-.04.85-.09,1.02-.29,2.01-.59,2.87,0,0,0,0,0,0-.64,1.8-1.65,2.87-2.69,2.87s-2.05-1.07-2.69-2.87c0,0,0,0,0,0-.42-1.18-.64-2.53-.65-3.86,0-.03,0-.06,0-.09.12-.69.12-1.22.1-1.77,0-.27-.01-.56,0-.89l.04-2.45c0-.28-.21-.5-.49-.51-.27,0-.5.22-.51.49l-.04,2.44c-.01.34,0,.64,0,.93.01.54.02,1-.09,1.62,0,.02,0,.06,0,.09-.34,1.7-1.04,3.11-1.88,3.77-1.13.95-2.53.15-3.4-1.91,0-.02-.02-.04-.03-.06-.35-.87-.58-1.88-.69-2.97l-.08-1.5v-8.38C1,4.9,4.9,1,9.7,1h17.95c4.8,0,8.7,3.9,8.7,8.7v15.2s0,0,0,0c0,0,0,0,0,.01.06,1.47-.21,3.52-1.85,4.95Z"/>
  </g>
</svg>