<?xml version="1.0" encoding="UTF-8"?>
<svg id="Calque_2" data-name="Calque 2" xmlns="http://www.w3.org/2000/svg" viewBox="0 0 44.56 27.49">
  <defs>
    <style>
      .cls-1 {
        fill: #e75113;
      }
    </style>
  </defs>
  <g id="pictogrammes">
    <g>
      <g>
        <path class="cls-1" d="M22.22,16.44c1.67,0,3.27-.71,4.39-1.95.98-1.08,1.51-2.48,1.51-3.94,0-3.25-2.65-5.9-5.9-5.9s-5.89,2.65-5.89,5.9c0,1.46.54,2.86,1.51,3.94,1.11,1.24,2.71,1.95,4.38,1.95ZM22.22,5.43c2.82,0,5.11,2.29,5.11,5.11,0,1.26-.47,2.48-1.31,3.41-.97,1.08-2.36,1.69-3.8,1.69s-2.83-.62-3.79-1.69c-.85-.94-1.31-2.15-1.31-3.41,0-2.82,2.29-5.11,5.1-5.11Z"/>
        <path class="cls-1" d="M32.84,21.8l-3.34-5.78c-.21-.36-.58-.62-.99-.7-.43-.09-.88,0-1.24.27-1.18.86-3.41,2.3-5.05,2.3s-3.87-1.44-5.05-2.3c-.35-.26-.8-.35-1.23-.27-.42.09-.78.34-1,.72l-3.33,5.77c-.82,1.41-.82,3.17,0,4.58.4.69,1.13,1.11,1.93,1.11h17.38c.79,0,1.53-.43,1.93-1.11h0c.81-1.41.81-3.16,0-4.58ZM32.16,25.98c-.25.44-.73.72-1.24.72H13.54c-.51,0-.99-.28-1.24-.72-.68-1.17-.68-2.62,0-3.79l3.33-5.77c.1-.17.27-.29.47-.33.05-.01.1-.02.16-.02.16,0,.32.05.45.15,1.26.92,3.65,2.45,5.51,2.45s4.25-1.54,5.51-2.46c.18-.13.4-.18.61-.13.2.04.37.16.48.34l3.33,5.77c.67,1.17.67,2.62,0,3.79Z"/>
      </g>
      <g>
        <path class="cls-1" d="M7.46,8.06c1.11,0,2.17-.47,2.92-1.3.65-.72,1.01-1.65,1.01-2.62C11.38,1.98,9.62.23,7.46.23s-3.92,1.76-3.92,3.92c0,.97.36,1.9,1,2.62.74.82,1.8,1.3,2.91,1.3ZM7.46.75c1.87,0,3.4,1.52,3.4,3.4,0,.84-.31,1.65-.87,2.27-.64.71-1.56,1.12-2.53,1.12s-1.88-.41-2.52-1.12c-.56-.62-.87-1.43-.87-2.27,0-1.87,1.52-3.4,3.39-3.4Z"/>
        <path class="cls-1" d="M14.52,11.63l-2.22-3.84c-.14-.24-.38-.41-.66-.47-.29-.06-.59,0-.82.18-.79.57-2.27,1.53-3.36,1.53s-2.57-.96-3.36-1.53c-.23-.17-.53-.23-.82-.18-.28.06-.52.23-.67.48L.41,11.63c-.54.94-.54,2.1,0,3.04.26.46.75.74,1.28.74h11.55c.53,0,1.02-.28,1.28-.74h0c.54-.94.54-2.1,0-3.04ZM14.06,14.4c-.17.29-.49.48-.83.48H1.69c-.34,0-.66-.18-.83-.48-.45-.78-.45-1.74,0-2.52l2.21-3.84c.07-.11.18-.19.31-.22.03,0,.07-.01.1-.01.11,0,.21.03.3.1.84.61,2.43,1.63,3.66,1.63s2.83-1.02,3.66-1.63c.12-.08.27-.12.41-.09.14.03.25.11.32.22l2.21,3.83c.44.78.44,1.74,0,2.52Z"/>
      </g>
      <g>
        <path class="cls-1" d="M37.1,7.84c1.11,0,2.17-.47,2.92-1.3.65-.72,1.01-1.65,1.01-2.62,0-2.16-1.76-3.92-3.92-3.92s-3.92,1.76-3.92,3.92c0,.97.36,1.9,1,2.62.74.82,1.8,1.3,2.91,1.3ZM37.1.52c1.87,0,3.4,1.52,3.4,3.4,0,.84-.31,1.65-.87,2.27-.64.71-1.56,1.12-2.53,1.12s-1.88-.41-2.52-1.12c-.56-.62-.87-1.43-.87-2.27,0-1.87,1.52-3.4,3.39-3.4Z"/>
        <path class="cls-1" d="M44.16,11.4l-2.22-3.84c-.14-.24-.38-.41-.66-.47-.29-.06-.59,0-.82.18-.79.57-2.27,1.53-3.36,1.53s-2.57-.96-3.36-1.53c-.23-.17-.53-.23-.82-.18-.28.06-.52.23-.67.48l-2.21,3.83c-.54.94-.54,2.1,0,3.04.26.46.75.74,1.28.74h11.55c.53,0,1.02-.28,1.28-.74h0c.54-.94.54-2.1,0-3.04ZM43.7,14.18c-.17.29-.49.48-.83.48h-11.55c-.34,0-.66-.18-.83-.48-.45-.78-.45-1.74,0-2.52l2.21-3.84c.07-.11.18-.19.31-.22.03,0,.07-.01.1-.01.11,0,.21.03.3.1.84.61,2.43,1.63,3.66,1.63s2.83-1.02,3.66-1.63c.12-.08.27-.12.41-.09.14.03.25.11.32.22l2.21,3.83c.44.78.44,1.74,0,2.52Z"/>
      </g>
    </g>
  </g>
</svg>