<?xml version="1.0" encoding="UTF-8"?>
<svg id="Calque_2" data-name="Calque 2" xmlns="http://www.w3.org/2000/svg" viewBox="0 0 40.48 40.32">
  <g id="pictogrammes">
    <g>
      <path d="M1.19,40.32c-.23,0-.55-.05-.81-.27-.2-.17-.42-.5-.37-1.11l1.68-8.7.11-.11L31.39.48c.34-.21.7-.35,1.08-.43,1.25-.23,2.26.4,2.64.68l4.86,4.82c.22.34.37.72.45,1.12.15.81-.03,1.49-.22,1.92l-.11.16-30.12,29.98-8.47,1.56s-.14.03-.31.03ZM2.62,30.73l-1.62,8.35c0,.13.03.2.04.21.03.03.17.04.27.02l8.18-1.51,29.83-29.69c.12-.3.22-.75.12-1.26-.05-.26-.14-.5-.28-.73l-4.7-4.65c-.22-.16-.94-.61-1.8-.45-.24.04-.47.13-.69.26L2.62,30.73Z"/>
      <rect x="30.02" y="4.33" width="1" height="10.99" transform="translate(1.96 24.39) rotate(-44.86)"/>
      <rect x="20.24" y="37.81" width="20.05" height="2.01" rx=".71" ry=".71"/>
    </g>
  </g>
</svg>