<svg version="1.1" xmlns="http://www.w3.org/2000/svg" xmlns:xlink="http://www.w3.org/1999/xlink" width="29.18px" height="29.18px" viewBox="0,0,256,256"><g fill="#497c29" fill-rule="nonzero" stroke="none" stroke-width="1" stroke-linecap="butt" stroke-linejoin="miter" stroke-miterlimit="10" stroke-dasharray="" stroke-dashoffset="0" font-family="none" font-weight="none" font-size="none" text-anchor="none" style="mix-blend-mode: normal"><g transform="translate(-0.01097,0.04387) scale(8.77313,8.77313)"><g id="vectorisés"><path d="M29.18,3.75c0,-0.99 -0.4,-1.95 -1.1,-2.65c-0.71,-0.71 -1.65,-1.1 -2.66,-1.1v0c-1,0 -1.95,0.39 -2.65,1.09l-8.17,8.17l-8.18,-8.17c-1.4,-1.4 -3.89,-1.42 -5.31,0c-1.47,1.47 -1.47,3.85 0,5.31l8.17,8.17l-8.18,8.18c-0.71,0.71 -1.1,1.66 -1.1,2.67c0,1.01 0.39,1.94 1.1,2.65c0.71,0.71 1.65,1.1 2.66,1.1v0c1.01,0 1.95,-0.39 2.66,-1.1l8.17,-8.17l8.17,8.17c0.71,0.71 1.66,1.1 2.67,1.1c1.01,0 1.94,-0.39 2.65,-1.1c1.47,-1.47 1.47,-3.85 0,-5.32l-8.17,-8.17l8.17,-8.17c0.7,-0.7 1.09,-1.65 1.09,-2.66zM18.5,14.59l8.87,8.87c1.08,1.08 1.08,2.83 0,3.91c-1.05,1.05 -2.87,1.03 -3.91,0l-8.87,-8.87l-8.87,8.87c-0.52,0.52 -1.21,0.8 -1.95,0.8v0c-0.74,0 -1.43,-0.29 -1.95,-0.8c-0.52,-0.51 -0.81,-1.21 -0.81,-1.95c0,-0.74 0.29,-1.44 0.81,-1.96l8.87,-8.87l-8.89,-8.88c-1.07,-1.07 -1.07,-2.82 0,-3.9c1.05,-1.05 2.88,-1.03 3.9,0l8.88,8.88l8.89,-8.89c0.52,-0.52 1.21,-0.8 1.94,-0.8v0c0.74,0 1.43,0.29 1.95,0.81c0.51,0.51 0.81,1.22 0.81,1.95c0,0.73 -0.28,1.44 -0.8,1.95l-8.88,8.88z" id="croix"></path></g></g></g></svg>