<svg version="1.1" xmlns="http://www.w3.org/2000/svg" xmlns:xlink="http://www.w3.org/1999/xlink" width="29.45px" height="36.75px" viewBox="0,0,205.14584,256"><g fill="#497c29" fill-rule="nonzero" stroke="none" stroke-width="1" stroke-linecap="butt" stroke-linejoin="miter" stroke-miterlimit="10" stroke-dasharray="" stroke-dashoffset="0" font-family="none" font-weight="none" font-size="none" text-anchor="none" style="mix-blend-mode: normal"><g transform="translate(-0.00123,0) scale(6.96599,6.96599)"><g id="vectorisés"><g id="déconnexion"><path d="M14.73,36.75c8.12,0 14.72,-6.61 14.72,-14.73c0,-3.99 -1.57,-7.72 -4.42,-10.51c-1.65,-1.62 -3.69,-2.84 -5.88,-3.53c-0.26,-0.08 -0.54,0.06 -0.63,0.33c-0.08,0.26 0.06,0.54 0.33,0.63c2.04,0.64 3.94,1.78 5.48,3.29c2.66,2.6 4.12,6.08 4.12,9.8c0,7.57 -6.16,13.73 -13.72,13.73c-7.56,0 -13.73,-6.17 -13.73,-13.74c0,-3.52 1.33,-6.86 3.75,-9.42c1.61,-1.7 3.64,-2.97 5.86,-3.67c0.26,-0.08 0.41,-0.36 0.33,-0.63c-0.08,-0.26 -0.36,-0.41 -0.63,-0.33c-2.39,0.75 -4.56,2.11 -6.29,3.94c-2.59,2.75 -4.02,6.34 -4.02,10.11c0,8.12 6.61,14.73 14.73,14.73z"></path><path d="M14.72,22.68c1.51,0 2.74,-1.08 2.74,-2.4v-17.86c0,-0.67 -0.3,-1.29 -0.84,-1.73c-0.5,-0.44 -1.18,-0.69 -1.9,-0.69c-1.5,0 -2.73,1.08 -2.73,2.42v17.87c0,0.66 0.3,1.28 0.83,1.73c0.5,0.43 1.18,0.66 1.89,0.66zM12.99,2.42c0,-0.78 0.77,-1.42 1.73,-1.42c0.47,0 0.92,0.16 1.25,0.45c0.31,0.26 0.49,0.6 0.49,0.97v17.87c0,0.77 -0.78,1.4 -1.74,1.4c-0.48,0 -0.92,-0.15 -1.25,-0.43c-0.31,-0.26 -0.48,-0.61 -0.48,-0.97z"></path></g></g></g></g></svg>