<?xml version="1.0" encoding="UTF-8"?>
<svg id="Calque_2" data-name="Calque 2" xmlns="http://www.w3.org/2000/svg" viewBox="0 0 42.74 26.78">
  <defs>
    <style>
      .cls-1 {
        fill: #542e08;
      }
    </style>
  </defs>
  <g id="vectorisés">
    <g id="dégradations">
      <path class="cls-1" d="M26.48,10.35l-4.93-4.34L26.29.84c.19-.2.17-.52-.03-.71-.1-.09-.22-.13-.34-.13h0s-22.13,0-22.13,0C1.7,0,0,1.7,0,3.79v19.1c0,2.09,1.7,3.79,3.79,3.79h8.69c.08,0,.17-.02.25-.07.24-.14.32-.44.18-.68l-1.57-2.71,7.17-3.08c.14-.06.25-.18.29-.33.04-.15,0-.31-.08-.43l-2.51-3.36,10.15-4.84c.15-.07.26-.22.28-.38.02-.17-.04-.33-.16-.44ZM15.24,15.38c-.14.06-.23.19-.27.33-.04.15,0,.3.08.42l2.49,3.34-7.11,3.05c-.13.06-.23.17-.28.3s-.03.28.04.41l1.42,2.45H3.79c-1.54,0-2.79-1.25-2.79-2.79V3.79c0-1.54,1.25-2.79,2.79-2.79h20.99l-4.31,4.71c-.09.1-.14.23-.13.36,0,.13.07.26.17.35l4.74,4.18-10.02,4.77Z"/>
      <path class="cls-1" d="M38.95.09h-6.93s0,0-.01,0c-.03,0-.07.01-.1.02-.03,0-.06,0-.09.02-.02,0-.04.03-.06.04-.03.02-.07.04-.1.07,0,0,0,0,0,0l-5.08,5.56c-.09.1-.14.23-.13.36,0,.13.07.26.17.35l4.74,4.17-10.02,4.77c-.14.06-.23.19-.27.33-.04.15,0,.3.08.42l2.49,3.35-7.11,3.05c-.13.06-.23.17-.28.3-.04.14-.03.28.04.41l1.86,3.2s.02.02.03.03c.03.05.08.09.13.12.02.01.03.03.05.04.07.03.14.06.22.06h20.36c2.09,0,3.79-1.7,3.79-3.79V3.89c0-2.1-1.7-3.8-3.79-3.8ZM41.74,22.99c0,1.54-1.25,2.79-2.79,2.79h-20.07l-1.43-2.46,7.17-3.08c.14-.06.25-.18.29-.33.04-.15,0-.31-.08-.43l-2.51-3.37,10.15-4.84c.15-.07.26-.22.28-.38s-.04-.33-.17-.44l-4.93-4.33,4.59-5.02h6.71c1.54,0,2.79,1.26,2.79,2.8v19.1Z"/>
    </g>
  </g>
</svg>