<?xml version="1.0" encoding="UTF-8"?>
<svg id="Calque_2" data-name="Calque 2" xmlns="http://www.w3.org/2000/svg" viewBox="0 0 32.16 30.42">
  <defs>
    <style>
      .cls-1 {
        fill: #00978f;
      }
    </style>
  </defs>
  <g id="pictogrammes">
    <path class="cls-1" d="M32.15,2.84c-.06-.62-.37-1.17-.87-1.56l-.98-.77c-1.01-.79-2.53-.66-3.39.28l-9.77,10.74h0S0,30.4,0,30.4l1.11.02c.07,0,.14,0,.21,0,4.42,0,10.23-2.15,15.59-5.77,1.69-1.14,3.31-2.41,4.79-3.78,1.34-1.24,2.5-2.51,3.44-3.79.02-.03.03-.07.05-.1,0-.02.03-.04.03-.07,0-.03,0-.07,0-.1,0-.03,0-.06,0-.09,0-.03-.02-.06-.03-.09-.01-.03-.02-.06-.03-.09-.02-.03-.04-.05-.06-.07-.02-.03-.04-.05-.06-.08l-2.48-1.93,9.03-9.96c.42-.47.63-1.06.57-1.67ZM21.01,20.14c-1.45,1.34-3.02,2.58-4.67,3.69-4.74,3.21-10,5.27-14.07,5.56l15.66-17.23,3.66,2.84,2.42,1.88c-.85,1.1-1.85,2.19-3.01,3.26ZM30.84,3.84l-9.08,10.02-3.14-2.43,4.88-5.37s0-.02.01-.02l4.14-4.55c.52-.56,1.43-.64,2.04-.17l.98.77c.29.22.46.52.49.85.03.33-.08.65-.32.9Z"/>
  </g>
</svg>