<?xml version="1.0" encoding="UTF-8"?>
<svg id="Calque_2" data-name="Calque 2" xmlns="http://www.w3.org/2000/svg" viewBox="0 0 36.64 21.18">
  <defs>
    <style>
      .cls-1 {
        fill: #fff;
      }
    </style>
  </defs>
  <g id="vectorisés">
    <path id="enveloppe" class="cls-1" d="M32.85,0H3.79C1.7,0,0,1.7,0,3.79v13.6c0,2.09,1.7,3.79,3.79,3.79h29.06c2.09,0,3.79-1.7,3.79-3.79V3.79c0-2.09-1.7-3.79-3.79-3.79ZM32.85,1c.42,0,.81.1,1.16.26l-14.05,10.27c-.98.71-2.3.71-3.27,0L2.55,1.3c.37-.19.79-.3,1.24-.3h29.06ZM35.64,17.39c0,1.54-1.25,2.79-2.79,2.79H3.79c-1.54,0-2.79-1.25-2.79-2.79V3.79c0-.72.28-1.36.72-1.86l14.37,10.41c.67.48,1.44.72,2.22.72s1.56-.24,2.23-.72L34.87,1.87c.48.5.77,1.17.77,1.92v13.6Z"/>
  </g>
</svg>