<svg version="1.1" xmlns="http://www.w3.org/2000/svg" xmlns:xlink="http://www.w3.org/1999/xlink" width="43.78px" height="43.69px" viewBox="0,0,256,255.46875"><g fill="#ffffff" fill-rule="nonzero" stroke="none" stroke-width="1" stroke-linecap="butt" stroke-linejoin="miter" stroke-miterlimit="10" stroke-dasharray="" stroke-dashoffset="0" font-family="none" font-weight="none" font-size="none" text-anchor="none" style="mix-blend-mode: normal"><g transform="translate(-0.11316,0.08522) scale(5.84742,5.84742)"><g id="pictogrammes"><path d="M21.95,43.69c-1.05,0 -1.87,-0.08 -2.39,-0.14c-0.5,-0.05 -2.01,-0.21 -3.61,-0.62c-3.45,-0.9 -5.94,-2.67 -6.76,-3.25c-1.86,-1.33 -3.55,-2.98 -4.88,-4.77c-0.45,-0.61 -0.89,-1.27 -1.27,-1.91c-0.81,-1.37 -1.5,-2.94 -2,-4.53c-0.28,-0.9 -0.51,-1.82 -0.68,-2.74c-0.2,-1.09 -0.31,-2.19 -0.35,-3.29v-1.45l0.05,-0.11c0.35,-0.7 0.83,-1.13 1.4,-1.28c0.26,-0.07 0.46,-0.06 0.54,-0.05c0.58,0.03 1.6,0.03 3.13,0h0.14l0.12,0.07c0.33,0.19 1.1,0.7 1.28,1.39c0.01,0.06 0.07,0.29 0.09,0.58c0.02,0.21 0,0.37 0,0.5c0,0.05 -0.01,0.36 0,0.89c0.01,0.34 0.05,0.57 0.12,1.03c0.04,0.24 0.09,0.62 0.2,1.1c0,0.03 0.18,0.8 0.47,1.63c0.62,1.79 1.55,3.25 1.56,3.26c0.38,0.6 1.47,2.15 3.31,3.63c1.5,1.2 2.87,1.87 3.55,2.16c0.74,0.31 2.29,0.87 4.29,1.08c0.87,0.09 1.75,0.11 2.6,0.05c1.18,-0.08 2.11,-0.28 2.56,-0.39c1.88,-0.47 3.18,-1.21 3.88,-1.61c1.31,-0.75 2.21,-1.5 2.54,-1.78c0.94,-0.82 1.78,-1.77 2.43,-2.75c0.47,-0.71 0.76,-1.28 0.99,-1.75c0.4,-0.8 0.95,-1.89 1.3,-3.37c0.29,-1.21 0.33,-2.17 0.36,-2.81c0.03,-0.66 0.07,-1.67 -0.13,-2.98c-0.21,-1.35 -0.59,-2.36 -0.79,-2.91c-0.25,-0.67 -0.49,-1.18 -0.6,-1.42c-0.51,-1.05 -1.15,-2.05 -1.9,-2.96c-1.36,-1.66 -2.77,-2.66 -3.49,-3.11c-0.35,-0.22 -1.31,-0.78 -2.64,-1.29c-0.97,-0.36 -1.97,-0.64 -2.99,-0.81c-0.96,-0.16 -1.94,-0.23 -2.86,-0.21c-1.46,0.03 -2.63,0.26 -3.36,0.45c-1,0.26 -1.75,0.58 -2.35,0.83c-0.34,0.14 -0.68,0.3 -1.01,0.46c0.03,0.01 0.06,0.02 0.1,0.03c0.69,0.24 1.12,0.39 1.69,0.56l0.42,0.12c0.65,0.18 1.22,0.34 1.77,0.69c0.18,0.11 0.44,0.3 0.64,0.63c0.25,0.41 0.27,0.8 0.28,0.95c0.01,0.2 0.04,0.63 -0.22,1.08c-0.2,0.35 -0.47,0.52 -0.63,0.63c-0.53,0.35 -1.09,0.42 -1.47,0.43l-11.97,1.95c-0.36,0.02 -0.95,0 -1.49,-0.42c-0.11,-0.09 -0.45,-0.34 -0.63,-0.83c-0.11,-0.27 -0.15,-0.58 -0.11,-0.87l-0.35,-11.91l0.05,-0.11c0.17,-0.36 0.41,-0.66 0.71,-0.89c0.13,-0.1 0.36,-0.28 0.73,-0.37c0.33,-0.08 0.59,-0.03 0.77,0c0.23,0.04 0.53,0.08 0.84,0.32c0.16,0.12 0.29,0.27 0.39,0.45l2.09,3.59c0.55,-0.41 1.11,-0.8 1.69,-1.15c3.38,-2.1 6.46,-2.84 7.63,-3.06c0.57,-0.11 2.1,-0.36 4.09,-0.36h0.05c2.68,0 4.79,0.46 5.8,0.73c3.59,0.96 6.22,2.66 7.8,3.93c1.07,0.86 3.15,2.75 4.95,5.7c2.01,3.3 2.65,6.25 2.95,7.67c0.25,1.17 0.4,2.27 0.43,3.19c0.06,1.82 -0.2,3.21 -0.48,4.68c-0.25,1.29 -0.46,2.4 -1.03,3.82c-0.42,1.04 -0.88,1.88 -1.28,2.63c-0.37,0.67 -0.74,1.35 -1.34,2.2c-0.27,0.38 -0.85,1.16 -1.67,2.05c-0.5,0.54 -1.04,1.07 -1.61,1.56c-0.33,0.29 -1.25,1.05 -2.52,1.88c-0.51,0.33 -1.46,0.94 -2.79,1.56c-1.08,0.5 -1.93,0.77 -2.68,1.02c-0.93,0.3 -1.81,0.59 -3.01,0.8c-0.37,0.07 -1.39,0.23 -2.7,0.27c-0.24,0 -0.47,0.01 -0.7,0.01zM1,21.23v1.19c0.03,1.03 0.15,2.09 0.33,3.12c0.16,0.88 0.38,1.76 0.65,2.62c0.48,1.52 1.14,3.02 1.91,4.33c0.36,0.61 0.78,1.24 1.21,1.82c1.27,1.71 2.88,3.28 4.66,4.55c0.86,0.61 3.16,2.25 6.43,3.1c1.53,0.4 2.98,0.55 3.46,0.6c0.65,0.07 1.63,0.17 2.96,0.12c1.25,-0.04 2.2,-0.19 2.56,-0.26c1.13,-0.2 1.94,-0.47 2.87,-0.77c0.76,-0.25 1.55,-0.5 2.57,-0.98c1.27,-0.59 2.18,-1.17 2.67,-1.49c1.22,-0.79 2.09,-1.52 2.41,-1.79c0.54,-0.47 1.06,-0.97 1.54,-1.49c0.78,-0.84 1.33,-1.58 1.59,-1.94c0.57,-0.8 0.92,-1.44 1.28,-2.11c0.41,-0.75 0.84,-1.53 1.23,-2.52c0.53,-1.33 0.73,-2.35 0.97,-3.64c0.28,-1.48 0.52,-2.75 0.46,-4.46c-0.03,-0.86 -0.17,-1.9 -0.41,-3.01c-0.29,-1.36 -0.9,-4.2 -2.83,-7.35c-1.72,-2.82 -3.69,-4.62 -4.72,-5.44c-1.5,-1.2 -4.01,-2.83 -7.43,-3.74c-0.97,-0.26 -2.98,-0.69 -5.55,-0.7h-0.05c-1.9,0 -3.36,0.24 -3.9,0.34c-1.11,0.21 -4.04,0.91 -7.29,2.93c-0.71,0.44 -1.4,0.92 -2.06,1.44l-0.45,0.35l-2.63,-4.57c-0.04,-0.07 -0.08,-0.12 -0.14,-0.16c-0.1,-0.08 -0.21,-0.1 -0.38,-0.12c-0.13,-0.02 -0.25,-0.04 -0.39,0c-0.14,0.03 -0.24,0.1 -0.35,0.19c-0.15,0.11 -0.27,0.26 -0.37,0.43l0.34,11.72c-0.01,0.16 -0.01,0.31 0.05,0.47c0.09,0.22 0.24,0.34 0.31,0.39c0.29,0.22 0.64,0.22 0.77,0.22l12,-1.95c0.32,0 0.68,-0.06 1.01,-0.27c0.14,-0.09 0.24,-0.16 0.31,-0.29c0.11,-0.19 0.09,-0.38 0.09,-0.52c0,-0.1 -0.02,-0.3 -0.13,-0.49c-0.09,-0.15 -0.22,-0.24 -0.33,-0.31c-0.43,-0.27 -0.91,-0.4 -1.51,-0.57l-0.43,-0.12c-0.59,-0.17 -1.03,-0.33 -1.74,-0.58c-0.5,-0.18 -0.91,-0.33 -1.18,-0.44l-1,-0.39l0.94,-0.52c0.68,-0.37 1.38,-0.72 2.1,-1.02c0.64,-0.27 1.42,-0.6 2.49,-0.88c0.78,-0.2 2.03,-0.45 3.59,-0.49c0.98,-0.02 2.03,0.06 3.04,0.23c1.08,0.18 2.15,0.47 3.18,0.86c1.42,0.53 2.44,1.14 2.82,1.37c0.77,0.48 2.28,1.55 3.74,3.32c0.8,0.98 1.48,2.04 2.03,3.16c0.13,0.26 0.38,0.8 0.64,1.51c0.21,0.58 0.61,1.65 0.84,3.1c0.22,1.41 0.17,2.51 0.14,3.17c-0.03,0.68 -0.08,1.7 -0.39,3c-0.38,1.59 -0.96,2.74 -1.38,3.58c-0.24,0.49 -0.55,1.1 -1.06,1.85c-0.7,1.05 -1.61,2.07 -2.61,2.95c-0.35,0.31 -1.31,1.11 -2.7,1.9c-0.69,0.39 -2.12,1.21 -4.13,1.71c-0.48,0.12 -1.48,0.33 -2.73,0.42c-0.91,0.06 -1.84,0.04 -2.77,-0.06c-2.13,-0.22 -3.78,-0.82 -4.58,-1.16c-0.73,-0.31 -2.2,-1.02 -3.79,-2.3c-1.89,-1.52 -3.02,-3.08 -3.53,-3.87c-0.04,-0.06 -1,-1.57 -1.66,-3.47c-0.31,-0.89 -0.49,-1.71 -0.5,-1.75c-0.11,-0.51 -0.17,-0.92 -0.21,-1.17c-0.08,-0.5 -0.11,-0.76 -0.13,-1.13c-0.03,-0.59 -0.01,-0.93 -0.01,-0.93c0,-0.15 0.01,-0.27 0,-0.43c-0.01,-0.21 -0.05,-0.37 -0.06,-0.41c-0.05,-0.21 -0.38,-0.5 -0.7,-0.7c-1.49,0.02 -2.46,0.02 -3.04,0c-0.05,0 -0.14,0 -0.25,0.02c-0.26,0.07 -0.5,0.29 -0.71,0.66z"></path></g></g></g></svg>