<?xml version="1.0" encoding="UTF-8"?>
<svg id="Calque_2" data-name="Calque 2" xmlns="http://www.w3.org/2000/svg" viewBox="0 0 43.78 43.69">
  <g id="pictogrammes">
    <path d="M21.95,43.69c-1.05,0-1.87-.08-2.39-.14-.5-.05-2.01-.21-3.61-.62-3.45-.9-5.94-2.67-6.76-3.25-1.86-1.33-3.55-2.98-4.88-4.77-.45-.61-.89-1.27-1.27-1.91-.81-1.37-1.5-2.94-2-4.53-.28-.9-.51-1.82-.68-2.74-.2-1.09-.31-2.19-.35-3.29v-1.45l.05-.11c.35-.7.83-1.13,1.4-1.28.26-.07.46-.06.54-.05.58.03,1.6.03,3.13,0h.14s.12.07.12.07c.33.19,1.1.7,1.28,1.39.01.06.07.29.09.58.02.21,0,.37,0,.5,0,.05-.01.36,0,.89.01.34.05.57.12,1.03.04.24.09.62.2,1.1,0,.03.18.8.47,1.63.62,1.79,1.55,3.25,1.56,3.26.38.6,1.47,2.15,3.31,3.63,1.5,1.2,2.87,1.87,3.55,2.16.74.31,2.29.87,4.29,1.08.87.09,1.75.11,2.6.05,1.18-.08,2.11-.28,2.56-.39,1.88-.47,3.18-1.21,3.88-1.61,1.31-.75,2.21-1.5,2.54-1.78.94-.82,1.78-1.77,2.43-2.75.47-.71.76-1.28.99-1.75.4-.8.95-1.89,1.3-3.37.29-1.21.33-2.17.36-2.81.03-.66.07-1.67-.13-2.98-.21-1.35-.59-2.36-.79-2.91-.25-.67-.49-1.18-.6-1.42-.51-1.05-1.15-2.05-1.9-2.96-1.36-1.66-2.77-2.66-3.49-3.11-.35-.22-1.31-.78-2.64-1.29-.97-.36-1.97-.64-2.99-.81-.96-.16-1.94-.23-2.86-.21-1.46.03-2.63.26-3.36.45-1,.26-1.75.58-2.35.83-.34.14-.68.3-1.01.46.03.01.06.02.1.03.69.24,1.12.39,1.69.56l.42.12c.65.18,1.22.34,1.77.69.18.11.44.3.64.63.25.41.27.8.28.95.01.2.04.63-.22,1.08-.2.35-.47.52-.63.63-.53.35-1.09.42-1.47.43l-11.97,1.95c-.36.02-.95,0-1.49-.42-.11-.09-.45-.34-.63-.83-.11-.27-.15-.58-.11-.87l-.35-11.91.05-.11c.17-.36.41-.66.71-.89.13-.1.36-.28.73-.37.33-.08.59-.03.77,0,.23.04.53.08.84.32.16.12.29.27.39.45l2.09,3.59c.55-.41,1.11-.8,1.69-1.15,3.38-2.1,6.46-2.84,7.63-3.06.57-.11,2.1-.36,4.09-.36h.05c2.68,0,4.79.46,5.8.73,3.59.96,6.22,2.66,7.8,3.93,1.07.86,3.15,2.75,4.95,5.7,2.01,3.3,2.65,6.25,2.95,7.67.25,1.17.4,2.27.43,3.19.06,1.82-.2,3.21-.48,4.68-.25,1.29-.46,2.4-1.03,3.82-.42,1.04-.88,1.88-1.28,2.63-.37.67-.74,1.35-1.34,2.2-.27.38-.85,1.16-1.67,2.05-.5.54-1.04,1.07-1.61,1.56-.33.29-1.25,1.05-2.52,1.88-.51.33-1.46.94-2.79,1.56-1.08.5-1.93.77-2.68,1.02-.93.3-1.81.59-3.01.8-.37.07-1.39.23-2.7.27-.24,0-.47.01-.7.01ZM1,21.23v1.19c.03,1.03.15,2.09.33,3.12.16.88.38,1.76.65,2.62.48,1.52,1.14,3.02,1.91,4.33.36.61.78,1.24,1.21,1.82,1.27,1.71,2.88,3.28,4.66,4.55.86.61,3.16,2.25,6.43,3.1,1.53.4,2.98.55,3.46.6.65.07,1.63.17,2.96.12,1.25-.04,2.2-.19,2.56-.26,1.13-.2,1.94-.47,2.87-.77.76-.25,1.55-.5,2.57-.98,1.27-.59,2.18-1.17,2.67-1.49,1.22-.79,2.09-1.52,2.41-1.79.54-.47,1.06-.97,1.54-1.49.78-.84,1.33-1.58,1.59-1.94.57-.8.92-1.44,1.28-2.11.41-.75.84-1.53,1.23-2.52.53-1.33.73-2.35.97-3.64.28-1.48.52-2.75.46-4.46-.03-.86-.17-1.9-.41-3.01-.29-1.36-.9-4.2-2.83-7.35-1.72-2.82-3.69-4.62-4.72-5.44-1.5-1.2-4.01-2.83-7.43-3.74-.97-.26-2.98-.69-5.55-.7h-.05c-1.9,0-3.36.24-3.9.34-1.11.21-4.04.91-7.29,2.93-.71.44-1.4.92-2.06,1.44l-.45.35L5.44,1.48c-.04-.07-.08-.12-.14-.16-.1-.08-.21-.1-.38-.12-.13-.02-.25-.04-.39,0-.14.03-.24.1-.35.19-.15.11-.27.26-.37.43l.34,11.72c-.01.16-.01.31.05.47.09.22.24.34.31.39.29.22.64.22.77.22l12-1.95c.32,0,.68-.06,1.01-.27.14-.09.24-.16.31-.29.11-.19.09-.38.09-.52,0-.1-.02-.3-.13-.49-.09-.15-.22-.24-.33-.31-.43-.27-.91-.4-1.51-.57l-.43-.12c-.59-.17-1.03-.33-1.74-.58-.5-.18-.91-.33-1.18-.44l-1-.39.94-.52c.68-.37,1.38-.72,2.1-1.02.64-.27,1.42-.6,2.49-.88.78-.2,2.03-.45,3.59-.49.98-.02,2.03.06,3.04.23,1.08.18,2.15.47,3.18.86,1.42.53,2.44,1.14,2.82,1.37.77.48,2.28,1.55,3.74,3.32.8.98,1.48,2.04,2.03,3.16.13.26.38.8.64,1.51.21.58.61,1.65.84,3.1.22,1.41.17,2.51.14,3.17-.03.68-.08,1.7-.39,3-.38,1.59-.96,2.74-1.38,3.58-.24.49-.55,1.1-1.06,1.85-.7,1.05-1.61,2.07-2.61,2.95-.35.31-1.31,1.11-2.7,1.9-.69.39-2.12,1.21-4.13,1.71-.48.12-1.48.33-2.73.42-.91.06-1.84.04-2.77-.06-2.13-.22-3.78-.82-4.58-1.16-.73-.31-2.2-1.02-3.79-2.3-1.89-1.52-3.02-3.08-3.53-3.87-.04-.06-1-1.57-1.66-3.47-.31-.89-.49-1.71-.5-1.75-.11-.51-.17-.92-.21-1.17-.08-.5-.11-.76-.13-1.13-.03-.59-.01-.93-.01-.93,0-.15.01-.27,0-.43-.01-.21-.05-.37-.06-.41-.05-.21-.38-.5-.7-.7-1.49.02-2.46.02-3.04,0-.05,0-.14,0-.25.02-.26.07-.5.29-.71.66Z"/>
  </g>
</svg>