<?xml version="1.0" encoding="UTF-8"?>
<svg id="Calque_2" data-name="Calque 2" xmlns="http://www.w3.org/2000/svg" viewBox="0 0 32.29 29.45">
  <defs>
    <style>
      .cls-1 {
        fill: #fff;
      }
    </style>
  </defs>
  <g id="vectorisés">
    <g id="historique">
      <path class="cls-1" d="M14.73,29.45c3.98,0,7.71-1.57,10.51-4.42,1.62-1.65,2.84-3.68,3.53-5.88.08-.26-.06-.54-.33-.63-.26-.08-.54.06-.63.33-.65,2.05-1.78,3.94-3.29,5.48-2.61,2.66-6.08,4.12-9.79,4.12-7.57,0-13.73-6.15-13.73-13.72S7.16,1,14.73,1c3.52,0,6.86,1.33,9.42,3.74,1.23,1.17,2.2,2.51,2.91,3.99l-1.81.3c-.74.12-1.33.65-1.54,1.37-.21.72.01,1.48.58,1.98l2.88,2.54h0c.36.31.81.48,1.27.48.11,0,.21,0,.32-.03.58-.1,1.07-.44,1.36-.95l1.9-3.34c.37-.65.34-1.44-.09-2.06-.43-.62-1.16-.93-1.9-.8l-1.96.33s0-.04-.02-.06c-.77-1.67-1.86-3.18-3.23-4.48C22.09,1.43,18.5,0,14.73,0,6.61,0,0,6.61,0,14.73s6.61,14.72,14.73,14.72ZM30.2,9.22c.37-.06.71.08.92.39.21.3.23.67.04.99l-1.9,3.34c-.14.24-.38.41-.66.46-.28.05-.56-.03-.77-.22l-2.88-2.54c-.28-.24-.38-.6-.28-.96.1-.35.38-.6.74-.66l4.78-.79Z"/>
      <path id="historique-2" data-name="historique" class="cls-1" d="M13.23,17.33c.01.06.05.11.07.16l.16.27.25.2c.15.08.31.13.47.13.08,0,.16,0,.24-.03l6.73-1.63c.25-.05.48-.21.62-.44.14-.23.18-.5.12-.75-.07-.26-.23-.48-.46-.61-.22-.13-.49-.17-.74-.11l-5.46,1.32.35-5.78h0c.01-.26-.08-.52-.26-.73-.18-.2-.42-.31-.67-.32-.26-.01-.52.07-.72.24-.2.18-.31.42-.33.68l-.41,6.94c0,.05,0,.1.01.16-.01.11,0,.21.01.3ZM14.11,9.95c0-.13.06-.25.16-.33.09-.08.2-.12.32-.12.01,0,.03,0,.04,0,.13,0,.24.06.33.15.09.1.14.23.13.36l-.36,5.93-.77.18c-.08.02-.15.04-.22.08l.37-6.26ZM13.77,16.84c.07-.11.18-.19.31-.22l1.14-.27h0s5.61-1.36,5.61-1.36c.12-.03.25-.01.36.05.11.07.19.18.23.31.03.12.01.26-.06.37-.07.11-.18.19-.31.22l-6.74,1.63c-.13.03-.26.01-.37-.06-.11-.07-.19-.17-.22-.29,0-.02,0-.03,0-.05v-.15c0-.06.02-.12.05-.18Z"/>
    </g>
  </g>
</svg>