<?xml version="1.0" encoding="UTF-8"?>
<svg id="Calque_2" data-name="Calque 2" xmlns="http://www.w3.org/2000/svg" viewBox="0 0 25.65 32.42">
  <defs>
    <style>
      .cls-1 {
        fill: #fff;
      }
    </style>
  </defs>
  <g id="vectorisés">
    <path id="home" class="cls-1" d="M25.46,16.11c.32-.68.23-1.46-.25-2.05L14.32.68c-.74-.91-2.26-.91-3,0L.44,14.06c-.48.58-.57,1.37-.25,2.05s.99,1.1,1.74,1.1h.68c0,.08-.02.17-.02.26v11.13c0,2.11,1.85,3.82,4.13,3.82h12.19c2.28,0,4.14-1.72,4.14-3.82v-11.13c0-.09-.01-.17-.02-.26h.67c.75,0,1.42-.42,1.74-1.1ZM1.09,15.68c-.16-.33-.11-.7.12-.99L12.1,1.31c.18-.22.44-.34.72-.34s.54.12.72.34l10.89,13.38c.23.29.28.65.12.99-.16.33-.47.53-.84.53H1.93c-.37,0-.68-.2-.84-.53ZM22.06,17.47v11.13c0,1.56-1.41,2.82-3.14,2.82H6.73c-1.73,0-3.13-1.27-3.13-2.82v-11.13c0-.09.02-.17.03-.26h18.39c0,.09.03.16.03.26Z"/>
  </g>
</svg>