<?xml version="1.0" encoding="UTF-8"?>
<svg id="Calque_2" data-name="Calque 2" xmlns="http://www.w3.org/2000/svg" viewBox="0 0 20.62 23.79">
  <defs>
    <style>
      .cls-1 {
        fill: #542e08;
      }
    </style>
  </defs>
  <g id="vectorisés">
    <path id="feu" class="cls-1" d="M19.7,10.86s0-.05.01-.09c.12-.82.49-3.31-1.69-5.56-.26-.27-1.15-1.11-1.84-.82-.29.12-.45.41-.44.76.03.81-.64,1.59-1.1,2.05-.62-1.27-1.94-3.87-2.49-4.59-.02-.03-1.99-2.56-2.91-2.58-.29-.03-.98-.11-1.42.31-.16.15-.35.43-.33.89.15,3.49-.81,4.33-4.4,7.47l-.39.34s0,0,0,0c0,0-.01.01-.02.02l-.81.71s-.06.07-.09.11c-1.33,1.31-1.78,2.4-1.78,4.76,0,4.16,2.85,7.83,7.08,9.13.05.02.1.02.15.02.21,0,.41-.14.48-.35.05-.17,0-.34-.1-.46h0c-.47-.64-1.15-2.01-.42-4.04.23-.63.71-1.25,1.17-1.84.63-.81,1.23-1.57,1.27-2.47.24.09.67.37,1.15.88,2.74,2.94,2.44,6.26,2.34,7.35-.01.14-.02.24-.02.32,0,0,0,.01,0,.02,0,.02,0,.05,0,.06,0,.02.01.04.02.06,0,.02,0,.04,0,.06,0,0,.01.01.01.02.03.09.09.16.16.21.02.01.03.02.05.03.07.04.14.07.22.07.01,0,.02.01.03.01.05,0,.1,0,.16-.02,4.11-1.35,6.86-4.99,6.86-9.06,0-1.3-.29-2.47-.92-3.77ZM14.16,22.47c.1-1.51.08-4.73-2.64-7.65-.7-.75-1.69-1.46-2.37-1.17-.16.07-.53.28-.51.9.02.55-.5,1.22-1.06,1.92-.51.66-1.05,1.34-1.33,2.12-.56,1.57-.42,2.83-.08,3.75-3.14-1.44-5.17-4.4-5.17-7.71,0-2.49.47-3.23,2.33-4.83l.41-.36c3.68-3.21,4.92-4.3,4.75-8.26,0-.07,0-.11.02-.12.03-.03.16-.09.63-.04.04,0,.08,0,.09,0,.36.16,1.61,1.5,2.13,2.18.59.77,2.37,4.33,2.67,5.01.11.25.41.37.66.26.01,0,.02-.01.03-.02.1-.04.19-.09.24-.17.02-.02.05-.05.09-.09.44-.41,1.55-1.45,1.68-2.77.15.09.36.25.57.47,1.83,1.9,1.53,3.95,1.42,4.72-.02.16-.04.26-.03.35,0,0,0,0,0,0,0,0,0,0,0,0,0,.06.02.13.05.18h0c.61,1.21.88,2.28.88,3.47,0,3.39-2.17,6.46-5.46,7.84Z"/>
  </g>
</svg>