<svg version="1.1" xmlns="http://www.w3.org/2000/svg" xmlns:xlink="http://www.w3.org/1999/xlink" width="36.36px" height="33.85px" viewBox="0,0,256,238.32292"><g fill="#497c29" fill-rule="nonzero" stroke="none" stroke-width="1" stroke-linecap="butt" stroke-linejoin="miter" stroke-miterlimit="10" stroke-dasharray="" stroke-dashoffset="0" font-family="none" font-weight="none" font-size="none" text-anchor="none" style="mix-blend-mode: normal"><g transform="translate(-0.10561,-0.02006) scale(7.0407,7.0407)"><g id="vectorisés"><path d="M36.34,0.66c-0.04,-0.24 -0.24,-0.42 -0.48,-0.42h-0.37c-1.57,-0.14 -3.28,-0.14 -5.1,0c-2.55,0.21 -5.17,0.7 -7.8,1.45c-1.5,0.43 -2.92,0.93 -4.25,1.48c-0.02,-0.01 -0.04,-0.03 -0.06,-0.04c-1.4,-0.6 -2.91,-1.13 -4.5,-1.58c-2.63,-0.75 -5.26,-1.23 -7.81,-1.44c-1.83,-0.14 -3.56,-0.14 -5.1,0h-0.37c-0.17,0 -0.31,0.1 -0.4,0.24c0,0 0,0.01 0,0.02c-0.02,0.04 -0.04,0.08 -0.06,0.13c0,0.03 -0.01,0.06 -0.02,0.09c0,0.02 -0.01,0.04 -0.01,0.06v32.43c0,0.26 0.19,0.47 0.45,0.5c0.9,0.09 1.84,0.14 2.82,0.14c3.29,0 6.93,-0.53 10.51,-1.56c1.5,-0.43 2.93,-0.93 4.26,-1.49c0.02,0.01 0.03,0.03 0.05,0.04c1.4,0.6 2.91,1.13 4.5,1.58c3.58,1.02 7.21,1.56 10.51,1.56c0.97,0 1.91,-0.05 2.82,-0.14c0.25,-0.03 0.45,-0.24 0.45,-0.5v-32.47c0,0 -0.01,-0.05 -0.01,-0.07v0zM2.43,32.7c-0.49,-0.01 -0.97,-0.04 -1.43,-0.08v-31.51h4.9c2.48,0.2 5.04,0.68 7.59,1.41c1.44,0.41 2.8,0.89 4.08,1.42v25.84c-0.39,0.16 -0.8,0.32 -1.21,0.47c-0.23,0.09 -0.45,0.18 -0.69,0.26c-0.71,0.25 -1.44,0.48 -2.19,0.69c-3.8,1.09 -7.65,1.61 -11.06,1.51zM35.36,32.76c-3.74,0.32 -8.16,-0.18 -12.5,-1.43c-1.44,-0.41 -2.81,-0.88 -4.08,-1.41v-25.85c1.28,-0.53 2.64,-1.01 4.08,-1.42c2.56,-0.73 5.11,-1.21 7.59,-1.41h4.9v31.52z" id="lexique"></path></g></g></g></svg>