<?xml version="1.0" encoding="UTF-8"?>
<svg id="Calque_2" data-name="Calque 2" xmlns="http://www.w3.org/2000/svg" viewBox="0 0 33 43.48">
  <g id="pictogrammes">
    <g>
      <path d="M16.54,43.48c-.25,0-.5-.04-.73-.12-.29-.1-.47-.24-.67-.38-.41-.29-.65-.57-.91-.86l-.21-.24c-.17-.18-.24-.25-.36-.35-.11-.1-.26-.23-.54-.5-.21-.2-.48-.47-1.55-1.64-.77-.83-1.15-1.25-1.53-1.68-.36-.41-.84-.96-1.44-1.7-.74-.92-1.27-1.64-1.65-2.16-.47-.65-.93-1.27-1.5-2.14-.58-.89-.99-1.59-1.27-2.08-.66-1.14-1.11-2.01-1.23-2.25-.38-.73-.63-1.22-.93-1.93-.22-.52-.38-.97-.69-1.88-.33-.94-.51-1.46-.66-2.06-.2-.76-.29-1.35-.36-1.79-.1-.63-.17-1.28-.23-1.94-.07-.84-.1-1.34-.07-2.05.03-.52.09-.91.19-1.62.09-.58.19-1.22.33-1.82.31-1.32.79-2.3,1.1-2.94.34-.68,1.31-2.47,3.03-4.32.71-.76,1.29-1.25,1.51-1.43.51-.42,1.35-1.04,2.49-1.63,1.09-.57,1.99-.87,2.48-1.04,1.09-.36,2.22-.62,3.36-.77.65-.09,1.64-.22,2.96-.15,1.48.08,2.57.36,3.15.52,1.02.27,2.03.64,2.99,1.11,1.12.54,2.17,1.2,3.14,1.96.81.64,1.57,1.36,2.25,2.14,1.23,1.41,1.97,2.72,2.29,3.37.38.76,1.08,2.34,1.44,4.4.03.15.11.61.17,1.21.13,1.26.13,2.53,0,3.79-.09.89-.26,1.79-.51,2.75-.54,2.11-1.45,4.28-2.84,6.83-1.44,2.64-2.74,4.45-3.99,6.2-2.42,3.36-4.71,6.02-6.83,7.89-.53.47-.97.84-1.28,1.08l-.17.09c-.25.08-.5.12-.75.12ZM16.72,1c-.9,0-1.59.09-2.09.16-1.08.14-2.14.39-3.17.73-.49.16-1.31.44-2.33.97-1.06.56-1.85,1.13-2.32,1.52h0c-.2.16-.74.62-1.41,1.34-1.63,1.75-2.55,3.43-2.87,4.08-.3.6-.75,1.51-1.03,2.72-.13.56-.23,1.19-.3,1.68-.11.76-.17,1.11-.19,1.58-.03.65,0,1.12.06,1.91.05.64.12,1.27.22,1.87.07.41.16.97.34,1.69.14.54.3,1,.64,1.99.3.87.45,1.31.66,1.82.28.67.53,1.15.89,1.86.12.24.56,1.08,1.21,2.2.28.48.68,1.16,1.25,2.03.56.85,1,1.46,1.46,2.08.41.56.92,1.25,1.63,2.14.59.73,1.07,1.27,1.42,1.67.38.43.75.84,1.51,1.67,1.05,1.14,1.31,1.41,1.51,1.6.26.25.4.38.51.48.14.12.23.2.42.41l.23.25c.24.27.43.48.75.71.18.13.28.2.42.25.28.1.56.07.77.02.29-.24.69-.57,1.16-.99,2.57-2.27,5.05-5.45,6.68-7.72,1.24-1.72,2.52-3.51,3.93-6.09,1.35-2.47,2.23-4.57,2.75-6.6.24-.91.39-1.76.48-2.6.12-1.19.12-2.4,0-3.58-.06-.57-.13-1-.16-1.14-.35-1.94-1-3.42-1.35-4.13-.25-.49-.95-1.78-2.15-3.16-.64-.73-1.36-1.41-2.12-2.02-.91-.72-1.9-1.34-2.96-1.84-.91-.44-1.85-.79-2.82-1.04-.55-.14-1.56-.41-2.95-.49-.24-.01-.47-.02-.69-.02Z"/>
      <path d="M16.5,23.64c-3.89,0-7.05-3.16-7.05-7.05s3.16-7.05,7.05-7.05,7.05,3.16,7.05,7.05-3.16,7.05-7.05,7.05ZM16.5,10.53c-3.34,0-6.05,2.72-6.05,6.05s2.71,6.05,6.05,6.05,6.05-2.71,6.05-6.05-2.71-6.05-6.05-6.05Z"/>
    </g>
  </g>
</svg>