<?xml version="1.0" encoding="UTF-8"?>
<svg id="Calque_2" data-name="Calque 2" xmlns="http://www.w3.org/2000/svg" viewBox="0 0 600 449">
  <defs>
    <style>
      .cls-1 {
        fill: #9db940;
      }

      .cls-2 {
        fill: #61832c;
      }

      .cls-3, .cls-4 {
        fill: none;
      }

      .cls-5 {
        fill: #c2d47b;
      }

      .cls-4 {
        stroke: #5aa348;
        stroke-miterlimit: 10;
        stroke-width: 6px;
      }

      .cls-6 {
        fill: #97b24a;
      }

      .cls-7 {
        fill: #fcfbf6;
      }

      .cls-8 {
        fill: #7b9d35;
      }
    </style>
  </defs>
  <g id="Calque_1-2" data-name="Calque 1">
    <g>
      <rect id="Fond_logo" data-name="Fond logo" class="cls-3" width="600" height="449"/>
      <g>
        <path class="cls-7" d="M86.37,307.35c-2.09,0-3.9-.54-5.44-1.62-1.54-1.08-2.72-2.76-3.55-5.03-.83-2.27-1.25-5.21-1.25-8.83s.42-6.42,1.27-8.66c.85-2.23,2.02-3.89,3.53-4.97,1.5-1.08,3.23-1.62,5.19-1.62,1.14,0,2.2.15,3.18.45.98.3,1.85.76,2.62,1.4.77.63,1.41,1.43,1.94,2.4h.34v-14.58h5.1v40.39h-4.17l-.49-4.02h-.34c-.85,1.56-1.97,2.74-3.36,3.52-1.39.78-2.92,1.17-4.58,1.17ZM87.79,302.32c1.5,0,2.72-.38,3.65-1.15.93-.76,1.62-1.88,2.08-3.35.46-1.47.69-3.27.69-5.39v-.78c0-1.79-.15-3.31-.44-4.58-.29-1.27-.72-2.3-1.27-3.1-.56-.8-1.23-1.39-2.01-1.76-.78-.37-1.67-.56-2.65-.56-1.5,0-2.73.34-3.68,1.03-.95.69-1.64,1.76-2.08,3.21-.44,1.45-.66,3.33-.66,5.64v1.01c0,2.31.23,4.18.69,5.61.46,1.43,1.15,2.49,2.08,3.16.93.67,2.13,1.01,3.6,1.01Z"/>
        <path class="cls-7" d="M113.67,307.35c-2.48,0-4.49-.75-6.03-2.26-1.54-1.51-2.3-4.09-2.3-7.74v-20.05h5.1v19.16c0,1.12.12,2.05.37,2.79.25.75.6,1.34,1.05,1.79.46.45,1,.76,1.62.95.62.19,1.31.28,2.06.28,1.18,0,2.25-.33,3.21-.98.96-.65,1.74-1.56,2.33-2.74.59-1.17.88-2.52.88-4.05v-17.21h5.1v29.38h-4.17l-.44-4.19h-.34c-.62,1.08-1.36,1.97-2.21,2.68-.85.71-1.79,1.25-2.82,1.62-1.03.37-2.16.56-3.41.56Z"/>
        <path class="cls-7" d="M151.93,307.35c-2.09,0-3.9-.54-5.44-1.62-1.54-1.08-2.72-2.76-3.55-5.03-.83-2.27-1.25-5.21-1.25-8.83s.42-6.42,1.27-8.66c.85-2.23,2.02-3.89,3.53-4.97,1.5-1.08,3.23-1.62,5.19-1.62,1.14,0,2.2.15,3.18.45.98.3,1.85.76,2.62,1.4.77.63,1.41,1.43,1.94,2.4h.34v-14.58h5.1v40.39h-4.17l-.49-4.02h-.34c-.85,1.56-1.97,2.74-3.36,3.52-1.39.78-2.92,1.17-4.58,1.17ZM153.36,302.32c1.5,0,2.72-.38,3.65-1.15.93-.76,1.62-1.88,2.08-3.35.46-1.47.69-3.27.69-5.39v-.78c0-1.79-.15-3.31-.44-4.58-.29-1.27-.72-2.3-1.27-3.1-.56-.8-1.23-1.39-2.01-1.76-.78-.37-1.67-.56-2.65-.56-1.5,0-2.73.34-3.68,1.03-.95.69-1.64,1.76-2.08,3.21-.44,1.45-.66,3.33-.66,5.64v1.01c0,2.31.23,4.18.69,5.61.46,1.43,1.15,2.49,2.08,3.16.93.67,2.13,1.01,3.6,1.01Z"/>
        <path class="cls-7" d="M181.82,307.35c-2.65,0-4.86-.55-6.64-1.65-1.78-1.1-3.13-2.78-4.04-5.06-.92-2.27-1.37-5.16-1.37-8.66s.46-6.43,1.37-8.69c.91-2.25,2.27-3.93,4.07-5.03,1.8-1.1,4.03-1.65,6.71-1.65,2.45,0,4.5.53,6.15,1.59,1.65,1.06,2.9,2.67,3.75,4.83.85,2.16,1.27,4.88,1.27,8.16v2.23h-18.08c.07,2.09.34,3.83.83,5.22.49,1.4,1.23,2.42,2.23,3.07,1,.65,2.26.98,3.8.98.95,0,1.8-.14,2.55-.42.75-.28,1.39-.69,1.91-1.23.52-.54.93-1.19,1.23-1.96.29-.76.44-1.63.44-2.6h5c0,1.75-.26,3.3-.78,4.64-.52,1.34-1.28,2.47-2.28,3.38-1,.91-2.18,1.61-3.55,2.09-1.37.48-2.89.73-4.56.73ZM175.11,289.2h12.64c0-1.45-.14-2.67-.42-3.66-.28-.99-.68-1.8-1.2-2.43-.52-.63-1.14-1.09-1.86-1.37-.72-.28-1.54-.42-2.45-.42-1.37,0-2.54.28-3.5.84-.96.56-1.71,1.42-2.23,2.6-.52,1.17-.85,2.65-.98,4.44ZM178.93,273.67l4.12-7.37h5.54l.05.17-5.34,7.21h-4.36Z"/>
        <path class="cls-7" d="M197.99,316.34v-39.05h4.17l.44,4.02h.34c.88-1.56,2.01-2.74,3.38-3.52,1.37-.78,2.91-1.17,4.61-1.17,2.12,0,3.94.54,5.46,1.62,1.52,1.08,2.69,2.76,3.5,5.03.82,2.27,1.23,5.21,1.23,8.83s-.42,6.38-1.25,8.63c-.83,2.25-2,3.92-3.5,5-1.5,1.08-3.23,1.62-5.19,1.62-1.14,0-2.21-.15-3.19-.45-.98-.3-1.85-.76-2.62-1.4-.77-.63-1.43-1.43-1.98-2.4h-.29v13.24h-5.1ZM209.41,302.32c1.53,0,2.78-.34,3.72-1.03.95-.69,1.64-1.76,2.08-3.21.44-1.45.66-3.3.66-5.53v-1.01c0-2.35-.23-4.25-.69-5.7-.46-1.45-1.15-2.51-2.08-3.18-.93-.67-2.13-1.01-3.6-1.01s-2.73.38-3.67,1.15c-.95.76-1.64,1.89-2.08,3.38-.44,1.49-.66,3.3-.66,5.42v.78c0,1.75.15,3.26.44,4.52.29,1.27.72,2.3,1.27,3.1.55.8,1.22,1.39,2.01,1.76.78.37,1.65.56,2.6.56Z"/>
        <path class="cls-7" d="M232.59,307.35c-.82,0-1.7-.11-2.65-.34-.95-.22-1.84-.63-2.67-1.23s-1.51-1.42-2.03-2.49c-.52-1.06-.78-2.45-.78-4.16,0-2.01.41-3.67,1.23-4.97.82-1.3,1.96-2.33,3.43-3.07,1.47-.74,3.23-1.27,5.27-1.56,2.04-.3,4.27-.45,6.69-.45v-2.9c0-.97-.14-1.82-.42-2.57-.28-.74-.78-1.32-1.52-1.73-.73-.41-1.79-.61-3.16-.61s-2.44.2-3.21.59c-.77.39-1.31.88-1.62,1.45-.31.58-.47,1.2-.47,1.87v.84h-4.9c-.03-.19-.05-.37-.05-.56v-.67c0-1.75.43-3.23,1.3-4.44.87-1.21,2.08-2.13,3.65-2.77,1.57-.63,3.38-.95,5.44-.95,2.22,0,4.07.36,5.56,1.09,1.49.73,2.6,1.76,3.36,3.1.75,1.34,1.13,2.96,1.13,4.86v14.91c0,.71.15,1.21.47,1.51.31.3.68.45,1.1.45h1.76v3.91c-.39.19-.88.37-1.47.56-.59.19-1.27.28-2.06.28-.88,0-1.62-.18-2.23-.53s-1.09-.86-1.47-1.51c-.38-.65-.63-1.39-.76-2.21h-.29c-.59.86-1.3,1.61-2.13,2.26-.83.65-1.79,1.15-2.87,1.51-1.08.35-2.29.53-3.63.53ZM234.01,302.55c1.01,0,1.95-.18,2.82-.53.87-.35,1.61-.86,2.23-1.51.62-.65,1.11-1.43,1.47-2.35.36-.91.54-1.91.54-2.99v-1.96c-2.25,0-4.23.15-5.93.45-1.7.3-3.02.85-3.97,1.65-.95.8-1.42,1.91-1.42,3.32,0,.86.16,1.57.49,2.15.33.58.82,1.02,1.47,1.31.65.3,1.42.45,2.3.45Z"/>
        <path class="cls-7" d="M252.73,306.68v-29.38h4.21l.44,4.75h.29c.29-.93.68-1.81,1.15-2.63.47-.82,1.09-1.49,1.86-2.01.77-.52,1.71-.78,2.82-.78.52,0,.99.06,1.4.17.41.11.73.21.96.28v5.47h-1.71c-1.05,0-1.97.19-2.77.56-.8.37-1.47.92-2.01,1.65-.54.73-.93,1.61-1.18,2.65-.25,1.04-.37,2.22-.37,3.52v15.75h-5.1Z"/>
        <path class="cls-7" d="M275.8,307.35c-1.47,0-2.62-.33-3.45-.98-.83-.65-1.42-1.49-1.76-2.51-.34-1.02-.51-2.11-.51-3.27v-18.49h-3.23v-4.8h3.33l.93-8.21h4.07v8.21h4.66v4.8h-4.66v17.82c0,.86.16,1.51.49,1.96.33.45.86.67,1.62.67h2.55v3.91c-.33.15-.73.29-1.2.42-.47.13-.96.24-1.45.34-.49.09-.95.14-1.37.14Z"/>
        <path class="cls-7" d="M294.72,307.35c-2.65,0-4.86-.55-6.64-1.65-1.78-1.1-3.13-2.78-4.04-5.06-.92-2.27-1.37-5.16-1.37-8.66s.46-6.43,1.37-8.69c.91-2.25,2.27-3.93,4.07-5.03,1.8-1.1,4.03-1.65,6.71-1.65,2.45,0,4.5.53,6.15,1.59,1.65,1.06,2.9,2.67,3.75,4.83.85,2.16,1.27,4.88,1.27,8.16v2.23h-18.08c.07,2.09.34,3.83.83,5.22.49,1.4,1.23,2.42,2.23,3.07,1,.65,2.26.98,3.8.98.95,0,1.8-.14,2.55-.42.75-.28,1.39-.69,1.91-1.23.52-.54.93-1.19,1.23-1.96.29-.76.44-1.63.44-2.6h5c0,1.75-.26,3.3-.78,4.64-.52,1.34-1.28,2.47-2.28,3.38-1,.91-2.18,1.61-3.55,2.09-1.37.48-2.89.73-4.56.73ZM288,289.2h12.64c0-1.45-.14-2.67-.42-3.66-.28-.99-.68-1.8-1.2-2.43-.52-.63-1.14-1.09-1.86-1.37-.72-.28-1.54-.42-2.45-.42-1.37,0-2.54.28-3.5.84-.96.56-1.71,1.42-2.23,2.6-.52,1.17-.85,2.65-.98,4.44Z"/>
        <path class="cls-7" d="M310.89,306.68v-29.38h4.21l.44,4.19h.34c.59-1.08,1.27-1.97,2.03-2.68.77-.71,1.63-1.25,2.6-1.62.96-.37,2-.56,3.11-.56,1.6,0,3,.37,4.19,1.12,1.19.75,2.1,1.99,2.72,3.74h.34c.59-1.04,1.27-1.93,2.06-2.65s1.67-1.28,2.67-1.65c1-.37,2.07-.56,3.21-.56,1.54,0,2.89.31,4.07.92,1.18.61,2.11,1.64,2.79,3.07.69,1.43,1.03,3.34,1.03,5.73v20.33h-5.1v-19.27c0-1.12-.11-2.04-.34-2.77-.23-.73-.54-1.3-.93-1.73-.39-.43-.87-.73-1.42-.92-.56-.19-1.16-.28-1.81-.28-1.08,0-2.04.33-2.89.98-.85.65-1.54,1.56-2.06,2.71-.52,1.15-.78,2.51-.78,4.08v17.21h-5.1v-19.27c0-1.12-.11-2.04-.34-2.77-.23-.73-.54-1.3-.93-1.73-.39-.43-.87-.73-1.42-.92-.56-.19-1.14-.28-1.76-.28-1.08,0-2.06.33-2.94.98-.88.65-1.58,1.56-2.11,2.71-.52,1.15-.78,2.51-.78,4.08v17.21h-5.1Z"/>
        <path class="cls-7" d="M363.41,307.35c-2.65,0-4.86-.55-6.64-1.65-1.78-1.1-3.13-2.78-4.04-5.06-.92-2.27-1.37-5.16-1.37-8.66s.46-6.43,1.37-8.69c.91-2.25,2.27-3.93,4.07-5.03,1.8-1.1,4.03-1.65,6.71-1.65,2.45,0,4.5.53,6.15,1.59,1.65,1.06,2.9,2.67,3.75,4.83.85,2.16,1.27,4.88,1.27,8.16v2.23h-18.08c.07,2.09.34,3.83.83,5.22.49,1.4,1.23,2.42,2.23,3.07,1,.65,2.26.98,3.8.98.95,0,1.8-.14,2.55-.42.75-.28,1.39-.69,1.91-1.23.52-.54.93-1.19,1.23-1.96.29-.76.44-1.63.44-2.6h5c0,1.75-.26,3.3-.78,4.64-.52,1.34-1.28,2.47-2.28,3.38-1,.91-2.18,1.61-3.55,2.09-1.37.48-2.89.73-4.56.73ZM356.7,289.2h12.64c0-1.45-.14-2.67-.42-3.66-.28-.99-.68-1.8-1.2-2.43-.52-.63-1.14-1.09-1.86-1.37-.72-.28-1.54-.42-2.45-.42-1.37,0-2.54.28-3.5.84-.96.56-1.71,1.42-2.23,2.6-.52,1.17-.85,2.65-.98,4.44Z"/>
        <path class="cls-7" d="M379.58,306.68v-29.38h4.21l.44,4.19h.34c.62-1.08,1.36-1.97,2.21-2.68.85-.71,1.79-1.25,2.82-1.62,1.03-.37,2.16-.56,3.41-.56,1.63,0,3.07.33,4.31.98,1.24.65,2.21,1.7,2.92,3.16.7,1.45,1.05,3.41,1.05,5.87v20.05h-5.1v-19.16c0-1.12-.12-2.05-.37-2.79-.24-.74-.6-1.34-1.05-1.79-.46-.45-1-.76-1.62-.95-.62-.19-1.31-.28-2.06-.28-1.18,0-2.25.33-3.21.98-.96.65-1.74,1.56-2.33,2.71-.59,1.15-.88,2.51-.88,4.08v17.21h-5.1Z"/>
        <path class="cls-7" d="M413.79,307.35c-1.47,0-2.62-.33-3.45-.98-.83-.65-1.42-1.49-1.76-2.51-.34-1.02-.51-2.11-.51-3.27v-18.49h-3.23v-4.8h3.33l.93-8.21h4.07v8.21h4.66v4.8h-4.66v17.82c0,.86.16,1.51.49,1.96.33.45.86.67,1.62.67h2.55v3.91c-.33.15-.73.29-1.2.42-.47.13-.96.24-1.45.34-.49.09-.95.14-1.37.14Z"/>
      </g>
      <g>
        <path class="cls-7" d="M242.83,386.31c-3.04,0-5.68-.84-7.91-2.52-2.23-1.68-3.96-4.28-5.17-7.81-1.21-3.53-1.82-8.1-1.82-13.71s.62-9.98,1.85-13.45c1.24-3.47,2.95-6.05,5.13-7.73,2.19-1.68,4.71-2.52,7.56-2.52,1.66,0,3.21.23,4.63.69,1.43.46,2.7,1.19,3.81,2.17,1.12.98,2.06,2.23,2.82,3.73h.5v-22.65h7.42v62.76h-6.06l-.71-6.25h-.5c-1.24,2.43-2.86,4.25-4.88,5.47-2.02,1.22-4.24,1.82-6.67,1.82ZM244.9,378.5c2.19,0,3.96-.59,5.31-1.78,1.35-1.19,2.36-2.92,3.03-5.21.67-2.29,1-5.08,1-8.38v-1.22c0-2.78-.21-5.15-.64-7.12-.43-1.97-1.05-3.57-1.85-4.82-.81-1.24-1.78-2.16-2.92-2.73-1.14-.58-2.42-.87-3.85-.87-2.19,0-3.97.54-5.35,1.61-1.38,1.07-2.39,2.73-3.03,4.99-.64,2.26-.96,5.18-.96,8.77v1.56c0,3.59.33,6.5,1,8.72.67,2.23,1.68,3.86,3.03,4.9,1.35,1.04,3.1,1.56,5.24,1.56Z"/>
        <path class="cls-7" d="M287.39,386.31c-3.85,0-7.07-.85-9.66-2.56-2.59-1.71-4.55-4.33-5.88-7.86-1.33-3.53-2-8.01-2-13.45s.67-10,2-13.5c1.33-3.5,3.3-6.1,5.92-7.81,2.61-1.71,5.87-2.56,9.77-2.56,3.57,0,6.55.82,8.95,2.47,2.4,1.65,4.22,4.15,5.45,7.51,1.24,3.36,1.85,7.58,1.85,12.67v3.47h-26.31c.09,3.24.5,5.95,1.21,8.12.71,2.17,1.79,3.76,3.24,4.77,1.45,1.01,3.29,1.52,5.53,1.52,1.38,0,2.61-.22,3.71-.65,1.09-.43,2.02-1.07,2.78-1.91.76-.84,1.35-1.85,1.78-3.04.43-1.19.64-2.53.64-4.04h7.27c0,2.72-.38,5.12-1.14,7.2-.76,2.08-1.87,3.83-3.32,5.25-1.45,1.42-3.17,2.5-5.17,3.25-2,.75-4.21,1.13-6.63,1.13ZM277.62,358.1h18.4c0-2.26-.2-4.15-.61-5.69-.4-1.53-.99-2.79-1.75-3.78-.76-.98-1.66-1.69-2.71-2.13-1.05-.43-2.23-.65-3.57-.65-2,0-3.7.43-5.1,1.3-1.4.87-2.48,2.21-3.24,4.04-.76,1.82-1.24,4.12-1.43,6.9Z"/>
      </g>
      <g>
        <path class="cls-7" d="M331.64,385.27v-62.76h7.42v62.76h-7.42Z"/>
        <path class="cls-7" d="M349.25,349.16v-3.99c1.04-.23,1.9-.79,2.57-1.69.67-.9,1.14-2.01,1.43-3.34.29-1.33.43-2.78.43-4.34h-3.78v-10.07h7.99v9.11c0,3.3-.43,5.95-1.28,7.94-.86,2-1.94,3.47-3.24,4.43-1.31.96-2.67,1.61-4.1,1.95Z"/>
      </g>
      <g>
        <path class="cls-7" d="M408.59,331.18v-9.2h7.42v9.2h-7.42ZM408.59,384.73v-45.66h7.42v45.66h-7.42Z"/>
        <path class="cls-7" d="M439.39,385.77c-2.61,0-4.92-.35-6.92-1.04-2-.69-3.66-1.65-4.99-2.86-1.33-1.22-2.34-2.68-3.03-4.38-.69-1.71-1.03-3.6-1.03-5.69,0-.29.01-.55.04-.78.02-.23.04-.43.04-.61h7.34v.95c0,1.79.4,3.23,1.21,4.3.81,1.07,1.89,1.82,3.24,2.26,1.35.43,2.84.65,4.46.65,1.43,0,2.75-.22,3.96-.65,1.21-.43,2.21-1.08,2.99-1.95.78-.87,1.18-1.97,1.18-3.3,0-1.74-.5-3.07-1.5-3.99-1-.92-2.31-1.66-3.92-2.21-1.62-.55-3.3-1.14-5.06-1.78-1.57-.52-3.13-1.08-4.67-1.69-1.55-.61-2.94-1.4-4.17-2.39-1.24-.98-2.23-2.23-2.99-3.73-.76-1.5-1.14-3.39-1.14-5.64,0-2.14.38-4.02,1.14-5.64.76-1.62,1.82-2.98,3.17-4.08,1.35-1.1,2.97-1.94,4.85-2.52,1.88-.58,3.93-.87,6.17-.87s4.4.3,6.2.91c1.81.61,3.34,1.46,4.6,2.56,1.26,1.1,2.22,2.42,2.89,3.95.67,1.53,1,3.17,1,4.9,0,.35-.01.71-.04,1.08-.02.38-.04.62-.04.74h-7.27v-.78c0-1.16-.26-2.2-.78-3.12-.52-.92-1.34-1.68-2.46-2.26-1.12-.58-2.6-.87-4.46-.87-1.24,0-2.33.13-3.28.39-.95.26-1.74.62-2.35,1.08-.62.46-1.08,1.01-1.39,1.65-.31.64-.46,1.36-.46,2.17,0,1.33.39,2.36,1.18,3.08.78.72,1.82,1.33,3.1,1.82,1.28.49,2.66,1.03,4.14,1.61,1.71.58,3.45,1.17,5.21,1.78,1.76.61,3.39,1.38,4.88,2.3,1.5.93,2.71,2.2,3.64,3.82.93,1.62,1.39,3.79,1.39,6.51,0,2.49-.4,4.66-1.21,6.51-.81,1.85-1.94,3.34-3.39,4.47-1.45,1.13-3.15,1.97-5.1,2.52-1.95.55-4.06.82-6.35.82Z"/>
        <path class="cls-7" d="M478.46,385.77c-3.85,0-7.07-.85-9.66-2.56-2.59-1.71-4.55-4.33-5.88-7.86-1.33-3.53-2-8.01-2-13.45s.67-10,2-13.5c1.33-3.5,3.3-6.1,5.92-7.81,2.61-1.71,5.87-2.56,9.77-2.56,3.57,0,6.55.82,8.95,2.47,2.4,1.65,4.22,4.15,5.45,7.51,1.24,3.36,1.85,7.58,1.85,12.67v3.47h-26.31c.09,3.24.5,5.95,1.21,8.12.71,2.17,1.79,3.76,3.24,4.77,1.45,1.01,3.29,1.52,5.53,1.52,1.38,0,2.61-.22,3.71-.65,1.09-.43,2.02-1.07,2.78-1.91.76-.84,1.35-1.85,1.78-3.04.43-1.19.64-2.53.64-4.04h7.27c0,2.72-.38,5.12-1.14,7.2-.76,2.08-1.87,3.83-3.32,5.25-1.45,1.42-3.17,2.5-5.17,3.25-2,.75-4.21,1.13-6.63,1.13ZM468.69,357.56h18.4c0-2.26-.2-4.15-.61-5.69-.4-1.53-.99-2.79-1.75-3.78-.76-.98-1.66-1.69-2.71-2.13-1.05-.43-2.23-.65-3.57-.65-2,0-3.7.43-5.1,1.3-1.4.87-2.48,2.21-3.24,4.04-.76,1.82-1.24,4.12-1.43,6.9Z"/>
      </g>
      <g>
        <path class="cls-7" d="M235.41,254.38c-1.76,0-3.46-.23-5.09-.68-1.63-.45-3.08-1.18-4.34-2.18-1.26-1-2.25-2.28-2.97-3.84-.72-1.55-1.08-3.41-1.08-5.58,0-.24,0-.46.02-.68.02-.22.02-.4.02-.56h5.28c0,.12,0,.29-.02.53-.02.24-.02.43-.02.59,0,1.46.35,2.7,1.04,3.72.69,1.02,1.66,1.79,2.9,2.3,1.24.51,2.66.77,4.27.77.88,0,1.73-.07,2.55-.21.82-.14,1.56-.35,2.24-.65.68-.3,1.26-.67,1.77-1.12.5-.45.9-.99,1.18-1.62.28-.63.42-1.36.42-2.18,0-1.26-.29-2.3-.87-3.13-.58-.83-1.37-1.51-2.36-2.07-.99-.55-2.11-1.04-3.35-1.48-1.24-.43-2.52-.87-3.84-1.3-1.32-.43-2.6-.94-3.84-1.54-1.24-.59-2.36-1.31-3.35-2.15-.99-.85-1.78-1.91-2.36-3.19-.58-1.28-.87-2.84-.87-4.69s.3-3.34.9-4.72c.6-1.38,1.46-2.53,2.59-3.45,1.13-.92,2.48-1.62,4.05-2.1s3.35-.71,5.33-.71c1.7,0,3.3.23,4.81.68,1.51.45,2.83,1.15,3.96,2.1,1.13.94,2.02,2.15,2.66,3.6.64,1.46.97,3.19.97,5.2v.71h-5.23v-.77c0-1.26-.3-2.32-.9-3.19-.6-.87-1.43-1.54-2.5-2.01-1.07-.47-2.31-.71-3.73-.71-1.67,0-3.06.21-4.2.62-1.13.41-1.99.98-2.57,1.71-.58.73-.87,1.6-.87,2.63,0,1.14.3,2.08.9,2.8.6.73,1.39,1.35,2.38,1.86.99.51,2.11.97,3.35,1.39,1.24.41,2.51.85,3.82,1.3,1.3.45,2.58.97,3.82,1.56,1.24.59,2.36,1.32,3.35,2.18.99.87,1.78,1.94,2.38,3.22.6,1.28.9,2.84.9,4.69,0,2.91-.58,5.28-1.74,7.11-1.16,1.83-2.76,3.16-4.79,3.99s-4.35,1.24-6.95,1.24Z"/>
        <path class="cls-7" d="M254.32,253.67v-6.85h5.23v6.85h-5.23Z"/>
        <path class="cls-7" d="M262.99,253.67l12.68-40.5h6.74l12.73,40.5h-5.66l-2.88-9.39h-15.32l-2.88,9.39h-5.42ZM272.99,238.67h11.88l-3.63-11.87c-.09-.35-.24-.85-.42-1.48-.19-.63-.39-1.32-.59-2.07-.2-.75-.41-1.51-.61-2.27-.21-.77-.39-1.47-.54-2.1h-.28c-.19.75-.42,1.63-.71,2.66-.28,1.02-.56,2.01-.83,2.95-.27.94-.5,1.71-.68,2.3l-3.58,11.87Z"/>
        <path class="cls-7" d="M298.59,253.67v-6.85h5.23v6.85h-5.23Z"/>
      </g>
      <path class="cls-7" d="M320.61,253.76v-40.5h5.28v16.94h16.41v-16.94h5.28v40.5h-5.28v-17.89h-16.41v17.89h-5.28Z"/>
      <path class="cls-7" d="M353.65,253.76v-40.5h5.28v34.77h16.12v5.73h-21.41Z"/>
      <path class="cls-7" d="M380.5,253.76v-40.5h8.25l6.27,24.56c.19.71.38,1.52.57,2.42.19.91.37,1.77.54,2.6.17.83.31,1.56.4,2.18h.38c.06-.59.17-1.3.33-2.13.16-.83.32-1.69.49-2.6.17-.91.35-1.75.54-2.54l6.32-24.5h8.11v40.5h-5.23v-22.2c0-1.5.02-3.05.05-4.66.03-1.61.06-3.05.09-4.31.03-1.26.05-2.07.05-2.42h-.38c-.06.43-.21,1.17-.45,2.21-.24,1.04-.48,2.16-.73,3.34-.25,1.18-.49,2.2-.71,3.07l-6.55,24.97h-4.67l-6.55-24.92c-.19-.75-.39-1.63-.61-2.66-.22-1.02-.44-2.07-.66-3.13-.22-1.06-.41-2.03-.57-2.89h-.38c.03.94.05,2.11.07,3.48.02,1.38.04,2.77.07,4.16.03,1.4.05,2.65.05,3.75v22.2h-5.09Z"/>
      <rect class="cls-4" x="367.9" y="324.5" width="24.76" height="58.29" rx="8.71" ry="8.71"/>
      <polygon class="cls-5" points="241.04 41.01 186.26 176.41 182.01 181.11 385 177.02 349.02 142.28 383.24 133.83 343.18 107.86 374.16 94.15 241.04 41.01"/>
      <polygon class="cls-6" points="322.16 116.34 343.18 107.86 262.68 56.74 186.95 174.72 322.16 116.34"/>
      <polygon class="cls-1" points="184.84 177.99 349.02 142.28 385 177.02 182.01 181.11 184.84 177.99"/>
      <polygon class="cls-8" points="349.02 142.28 322.16 116.34 186.95 174.72 186.26 176.41 184.84 177.99 349.02 142.28"/>
      <polygon class="cls-2" points="322.16 116.34 281.49 77.56 186.95 174.72 322.16 116.34"/>
    </g>
  </g>
</svg>