<?xml version="1.0" encoding="UTF-8"?>
<svg id="Calque_2" data-name="Calque 2" xmlns="http://www.w3.org/2000/svg" viewBox="0 0 40.62 41.77">
  <defs>
    <style>
      .cls-1 {
        fill: #fff;
      }
    </style>
  </defs>
  <g id="pictogrammes">
    <g>
      <path d="M37.71,34.48c-.73,0-1.46-.26-2.03-.79l-14.78-14.77-1.4,1.4c.8,1.07.8,2.57-.06,3.62-.49.59-1.19.96-1.98,1.04-.8.08-1.58-.17-2.19-.68L6.57,15.57c-.77-1.25-.55-2.84.52-3.79,1.03-.92,2.57-.97,3.69-.18l7-7.03c-.37-.52-.57-1.14-.55-1.8.01-.78.34-1.53.89-2.04,1.06-.98,2.77-.99,3.9-.01l8.75,8.82c.56,1.21.28,2.67-.67,3.53-1,.9-2.5,1-3.65.28l-1.39,1.39,15,15.02c.88,1.27.72,2.92-.32,3.91-.56.53-1.28.79-2.01.79ZM20.9,17.51l15.47,15.47c.75.68,1.93.69,2.67,0,.69-.65.79-1.75.25-2.55l-15.65-15.66,2.73-2.73.35.3c.8.68,1.97.68,2.71.01.62-.56.8-1.49.47-2.3L21.33,1.46c-.72-.62-1.84-.62-2.54.01-.35.33-.56.81-.57,1.32,0,.55.2,1.06.59,1.45l.35.35-8.35,8.38-.35-.35c-.74-.73-1.95-.77-2.7-.1-.68.61-.83,1.66-.36,2.47l8.56,8.56c.37.31.89.47,1.42.42.52-.05.98-.29,1.29-.68.64-.78.55-1.94-.2-2.64l-.37-.35,2.81-2.81Z"/>
      <path d="M26.9,41.77c-.08,0-.16,0-.24-.03H.78l-.13-.09c-.22-.16-.39-.35-.5-.57-.52-1.05.32-2.61,1.44-3.4.37-.26.78-.45,1.24-.57.17-.65.47-1.2.88-1.63,1.21-1.25,2.99-1.15,4.43-1.07h.17c2.52.14,8.76.29,12.22.13,1.02-.05,2.81-.13,3.92,1.08.33.36.57.81.72,1.32.59.16,1.62.58,2.27,1.67.57.94.55,1.89.49,2.37l-.05.16c-.07.13-.26.44-.67.56-.1.03-.21.05-.32.05ZM1.13,40.74l25.73.02.1-.04c.03-.38,0-.98-.37-1.58-.6-1.01-1.7-1.24-1.91-1.27l-.34-.06-.06-.34c-.09-.47-.27-.86-.55-1.16-.8-.87-2.23-.8-3.08-.76-3.56.17-9.84.01-12.38-.12h-.17c-1.29-.08-2.77-.16-3.65.76-.35.36-.58.85-.69,1.45l-.06.34-.34.06c-.44.07-.83.23-1.16.47-.81.58-1.37,1.64-1.12,2.14.02.04.04.07.07.1Z"/>
      <g>
        <line class="cls-1" x1="3.25" y1="37.54" x2="24.76" y2="37.37"/>
        <rect x="3.25" y="36.96" width="21.51" height="1" transform="translate(-.29 .11) rotate(-.45)"/>
      </g>
      <rect x="21.96" y="3.32" width="1" height="10.8" transform="translate(.27 18.11) rotate(-44.16)"/>
      <rect x="14.29" y="11.08" width="1" height="10.39" transform="translate(-7.18 15.16) rotate(-44.84)"/>
      <rect x="20.5" y="16.06" width="4.1" height="1" transform="translate(-5.1 20.87) rotate(-45.16)"/>
    </g>
  </g>
</svg>