<svg xmlns="http://www.w3.org/2000/svg" xmlns:xlink="http://www.w3.org/1999/xlink" version="1.1" width="1000" height="1000" viewBox="0 0 1000 1000" xml:space="preserve">
<desc>Created with Fabric.js 3.5.0</desc>
<defs>
</defs>
<rect x="0" y="0" width="100%" height="100%" fill="#ffffff"/>
<g transform="matrix(23.8294 0 0 23.8294 500.0003 500.0003)" id="264318">
<g style="" vector-effect="non-scaling-stroke">
		<g transform="matrix(1 0 0 1 0 -0.005)" id="burger">
<path style="stroke: none; stroke-width: 1; stroke-dasharray: none; stroke-linecap: butt; stroke-dashoffset: 0; stroke-linejoin: miter; stroke-miterlimit: 4; is-custom-font: none; font-file-url: none; fill: rgb(73,124,41); fill-rule: nonzero; opacity: 1;" transform=" translate(-19.075, -13.535)" d="M 34.38 9.77 H 3.75 c -1 0 -1.94 0.39 -2.65 1.11 c -0.71 0.71 -1.1 1.65 -1.1 2.65 c 0 2.08 1.68 3.77 3.75 3.77 h 30.63 c 1.01 0 1.96 -0.4 2.66 -1.12 c 0.71 -0.71 1.11 -1.66 1.11 -2.65 c 0 -2.07 -1.69 -3.76 -3.77 -3.76 Z M 36.33 15.48 c -0.52 0.53 -1.21 0.82 -1.95 0.82 H 3.75 c -1.52 0 -2.75 -1.24 -2.75 -2.77 c 0 -0.74 0.29 -1.43 0.8 -1.95 c 0.52 -0.52 1.22 -0.81 1.95 -0.81 h 30.63 c 1.53 0 2.77 1.24 2.77 2.76 c 0 0.73 -0.29 1.42 -0.82 1.95 Z" stroke-linecap="round"/>
</g>
		<g transform="matrix(1 0 0 1 0 -9.775)" id="burger">
<path style="stroke: none; stroke-width: 1; stroke-dasharray: none; stroke-linecap: butt; stroke-dashoffset: 0; stroke-linejoin: miter; stroke-miterlimit: 4; is-custom-font: none; font-file-url: none; fill: rgb(73,124,41); fill-rule: nonzero; opacity: 1;" transform=" translate(-19.075, -3.765)" d="M 34.38 0 H 3.75 c -1 0 -1.94 0.39 -2.65 1.11 S 0 2.76 0 3.76 c 0 2.08 1.68 3.77 3.75 3.77 h 30.63 c 1.01 0 1.96 -0.4 2.66 -1.12 c 0.71 -0.71 1.11 -1.66 1.11 -2.65 c 0 -2.07 -1.69 -3.76 -3.77 -3.76 Z M 36.33 5.71 c -0.52 0.53 -1.21 0.82 -1.95 0.82 H 3.75 c -1.52 0 -2.75 -1.24 -2.75 -2.77 c 0 -0.74 0.29 -1.43 0.8 -1.95 s 1.22 -0.81 1.95 -0.81 h 30.63 c 1.53 0 2.77 1.24 2.77 2.76 c 0 0.73 -0.29 1.42 -0.82 1.95 Z" stroke-linecap="round"/>
</g>
		<g transform="matrix(1 0 0 1 0 9.775)" id="burger">
<path style="stroke: none; stroke-width: 1; stroke-dasharray: none; stroke-linecap: butt; stroke-dashoffset: 0; stroke-linejoin: miter; stroke-miterlimit: 4; is-custom-font: none; font-file-url: none; fill: rgb(73,124,41); fill-rule: nonzero; opacity: 1;" transform=" translate(-19.075, -23.315)" d="M 34.38 19.55 H 3.75 c -1 0 -1.94 0.39 -2.65 1.11 c -0.71 0.71 -1.1 1.65 -1.1 2.65 c 0 2.08 1.68 3.77 3.75 3.77 h 30.63 c 1.01 0 1.96 -0.4 2.66 -1.12 c 0.71 -0.71 1.11 -1.66 1.11 -2.65 c 0 -2.07 -1.69 -3.76 -3.77 -3.76 Z M 36.33 25.26 c -0.52 0.53 -1.21 0.82 -1.95 0.82 H 3.75 c -1.52 0 -2.75 -1.24 -2.75 -2.77 c 0 -0.74 0.29 -1.43 0.8 -1.95 c 0.52 -0.52 1.22 -0.81 1.95 -0.81 h 30.63 c 1.53 0 2.77 1.24 2.77 2.76 c 0 0.73 -0.29 1.42 -0.82 1.95 Z" stroke-linecap="round"/>
</g>
</g>
</g>
</svg>