<?xml version="1.0" encoding="UTF-8"?>
<svg id="Calque_2" data-name="Calque 2" xmlns="http://www.w3.org/2000/svg" viewBox="0 0 27.25 40.11">
  <g id="pictogrammes">
    <g>
      <path d="M13.43,28.08c-.27,0-.58-.01-.94-.06-.66-.08-1.31-.26-1.92-.51-.28-.11-1.01-.45-1.82-1.06-1.04-.8-1.66-1.66-1.87-1.99-.17-.26-.62-.99-.93-2.01-.1-.3-.23-.8-.31-1.42-.09-.68-.08-1.2-.08-1.39.06-3.08.04-11.2,0-12.34,0-.1.05-1.17.47-2.13.93-2.07,2.26-3.22,2.41-3.35h0c.66-.54,1.44-.99,2.25-1.3C11.57.2,12.48.02,13.41,0c.93-.01,1.86.12,2.71.4.5.17,1.49.57,2.54,1.41.46.37,1.41,1.13,2.12,2.51.15.28.51,1.04.71,2.09.14.69.15,1.25.15,1.45.05,2.36.02,7.54,0,10.63,0,1.32-.01,2.27,0,2.47v.13c-.01.54-.16.94-.29,1.28-.26.67-.4,1.03-.71,1.55-.21.36-.45.71-.7,1.04-.4.5-.85.96-1.34,1.36-.27.22-.72.59-1.4.94-.47.24-.97.43-1.48.57-.74.19-1.34.22-1.78.24-.15,0-.33.01-.53.01ZM9.09,2.59h0c-.05.04-1.29,1.09-2.14,2.99-.36.8-.39,1.7-.39,1.71.04,1.13.06,9.29,0,12.38,0,.17-.01.63.07,1.24.08.55.19.98.28,1.25.28.89.66,1.53.81,1.76.19.29.72,1.03,1.64,1.74.71.55,1.35.83,1.59.93.53.22,1.09.37,1.66.44.55.07.97.05,1.3.04.41-.02.93-.04,1.57-.21.44-.11.87-.28,1.28-.49.59-.3.97-.62,1.23-.83.44-.36.84-.77,1.19-1.21.23-.29.44-.6.62-.92.26-.45.39-.77.64-1.42.11-.28.21-.57.22-.94,0-.3,0-1.25,0-2.58.02-3.09.04-8.25,0-10.6,0-.2-.01-.67-.13-1.28-.19-.95-.52-1.63-.62-1.82-.62-1.19-1.46-1.86-1.86-2.19-.96-.77-1.88-1.13-2.23-1.25-.51-.17-1.34-.37-2.37-.35-.82.02-1.62.17-2.38.46-.71.27-1.39.66-1.97,1.13Z"/>
      <path d="M21.25,40.11l-15.42-.02c-.33-.1-.62-.26-.85-.49-.13-.13-.22-.24-.26-.31-.09-.14-.28-.4-.36-.79-.03-.15-.06-.46.03-.82.1-.4.34-.75.69-1.05.26-.22.58-.37.91-.45h.11s5.52-.01,5.52-.01v-1.98c-.44-.06-.88-.14-1.32-.25-.53-.13-1.1-.32-1.65-.54-.75-.3-1.3-.6-1.66-.8-.33-.18-.71-.39-1.19-.72-.61-.43-1.03-.81-1.4-1.15-.31-.29-.83-.76-1.41-1.48-.17-.2-.5-.63-.89-1.21-.32-.49-.7-1.07-1.03-1.89-.11-.27-.23-.63-.44-1.34-.25-.83-.37-1.2-.45-1.64-.1-.52-.16-1.05-.17-1.59v-3.99c.07-.3.22-.73.58-1.1.08-.09.28-.29.6-.44.33-.15.62-.16.74-.17.15,0,.45-.02.79.12.31.12.73.4,1.02,1.03.09.19.14.4.17.61v4.15c.05.33.1.65.15.89.07.34.15.73.31,1.2.12.33.23.57.34.8,0,.01.38.82.84,1.5,1.21,1.79,3.08,2.91,3.09,2.92.78.46,1.64.81,2.5,1.03.44.11,1.63.35,3.17.23,1.18-.09,2.08-.36,2.42-.48.64-.22,1.91-.75,3.2-1.84,1.12-.96,1.96-2.04,2.47-3.18.39-.88.62-1.85.68-2.13.09-.4.14-.75.17-1.01v-3.99c0-.09,0-.19.03-.31h0c.1-.47.44-1.09,1.1-1.39.21-.1.76-.3,1.41-.09.53.17.82.53.94.68.25.3.36.61.41.76.04.14.07.28.08.41.05.59.03,1.86.02,2.97,0,.49-.02.93-.01,1.25v.12c0,.66-.17,1.14-.34,1.65l-.07.2c-.11.34-.14.48-.17.6-.03.13-.06.24-.15.5-.12.36-.41,1.11-.94,2.07-.34.62-.92,1.66-1.95,2.77-1.02,1.1-1.98,1.74-2.44,2.05-1.32.88-2.5,1.36-3.08,1.57-.81.29-1.65.49-2.49.61v2.07l5.72.02c.26.08.74.28,1.07.71.13.18.23.37.27.47.07.17.12.33.14.5.05.33,0,.58-.02.68-.02.12-.09.37-.26.64-.11.18-.32.44-.66.64-.17.1-.35.18-.54.23l-.06.02ZM6.04,39.11h15.07c.08-.03.15-.06.22-.1.18-.11.28-.25.33-.32.09-.14.12-.26.13-.31,0-.02.03-.15,0-.32-.01-.09-.04-.18-.07-.26-.03-.07-.08-.17-.14-.25-.14-.19-.37-.29-.5-.34h-6.49v-3.96l.45-.05c.92-.1,1.84-.31,2.72-.62.54-.19,1.63-.63,2.86-1.45.43-.29,1.32-.88,2.26-1.9.95-1.03,1.47-1.96,1.81-2.58.51-.92.78-1.64.87-1.9.07-.22.1-.31.12-.41.03-.13.07-.29.19-.66l.07-.21c.16-.47.28-.85.29-1.35l.5-.11h-.5c0-.32,0-.77.01-1.27.02-1.04.04-2.32-.01-2.87,0-.08-.02-.15-.04-.22-.02-.07-.08-.24-.22-.41-.09-.11-.23-.28-.48-.36-.31-.1-.59,0-.67.05-.33.15-.49.45-.54.69-.01.05-.01.1-.02.13v4.04c-.04.34-.09.72-.19,1.16-.08.39-.32,1.39-.74,2.33-.58,1.29-1.49,2.48-2.73,3.54-1.41,1.21-2.81,1.79-3.53,2.03-.37.12-1.36.42-2.66.53-1.68.13-3-.13-3.49-.25-.95-.24-1.91-.63-2.77-1.14-.08-.05-2.07-1.24-3.41-3.22-.5-.75-.92-1.62-.92-1.63-.12-.25-.24-.52-.38-.89-.19-.54-.28-.98-.35-1.34-.05-.26-.11-.61-.17-1.02v-4.15c-.01-.05-.04-.16-.09-.26-.12-.26-.28-.44-.47-.51-.14-.06-.28-.05-.38-.05-.09,0-.22,0-.37.08-.15.07-.24.16-.29.22-.18.19-.26.41-.3.57v3.82c.01.47.06.94.16,1.41.08.39.18.72.4,1.44.23.75.33,1.09.44,1.34.3.73.64,1.25.94,1.71.38.57.7.99.83,1.14.54.66,1.01,1.09,1.32,1.38.36.33.74.68,1.29,1.07.43.3.77.49,1.1.67.36.2.86.47,1.55.75.64.26,1.18.41,1.52.5.53.13,1.08.22,1.62.27l.45.04v3.89h-6.45c-.12.03-.29.1-.45.23-.08.06-.28.23-.36.53-.05.19-.03.34-.02.38.03.18.12.3.19.4.02.03.07.1.14.17.1.1.23.17.38.23Z"/>
    </g>
  </g>
</svg>