<?xml version="1.0" encoding="UTF-8"?>
<svg id="Calque_2" data-name="Calque 2" xmlns="http://www.w3.org/2000/svg" viewBox="0 0 24.28 35.73">
  <defs>
    <style>
      .cls-1 {
        fill: #fff;
      }
    </style>
  </defs>
  <g id="pictogrammes">
    <path class="cls-1" d="M24.16,34.5s.06-.08.08-.12c0-.02,0-.04.01-.06.01-.04.02-.08.02-.13,0-.02,0-.05-.01-.07,0-.04,0-.08-.02-.12,0,0,0,0,0,0,0,0,0,0,0,0-.01-.03-.03-.05-.05-.07-.02-.03-.03-.06-.06-.09-.02-.02-.05-.03-.07-.05-.03-.02-.06-.04-.09-.06,0,0,0,0,0,0-3.94-2.33-6.97-5.8-8.76-10.04-3.26-7.74-1.64-16.69,4.12-22.81.02-.02.03-.05.04-.07.02-.02.03-.05.05-.08.01-.03.02-.07.03-.1,0-.02.02-.04.02-.06,0,0,0-.02,0-.02,0-.03,0-.07-.01-.1,0-.03,0-.06-.02-.09-.01-.03-.03-.05-.04-.08-.02-.03-.04-.06-.06-.09,0,0,0-.01-.01-.02-.02-.02-.04-.02-.06-.03-.03-.02-.06-.04-.09-.06-.03-.01-.06-.02-.1-.03-.02,0-.04-.02-.07-.02-2.74-.18-5.53.3-8.08,1.37C1.85,5.23-2.42,15.73,1.4,24.81c2.86,6.79,9.44,10.92,16.44,10.92,1.95,0,3.94-.33,5.88-1.01l.03.02.23-.1c.06-.03.12-.06.16-.11,0,0,.01-.02.02-.03ZM2.33,24.42C-1.29,15.85,2.74,5.94,11.31,2.33c2.08-.88,4.34-1.33,6.58-1.33-5.45,6.37-6.89,15.3-3.61,23.07,1.74,4.12,4.6,7.53,8.31,9.95-8.16,2.41-16.92-1.65-20.27-9.6Z"/>
  </g>
</svg>