<svg version="1.1" xmlns="http://www.w3.org/2000/svg" xmlns:xlink="http://www.w3.org/1999/xlink" width="38.15px" height="7.53px" viewBox="0,0,256,50.52084"><g fill="#497c29" fill-rule="nonzero" stroke="none" stroke-width="1" stroke-linecap="butt" stroke-linejoin="miter" stroke-miterlimit="10" stroke-dasharray="" stroke-dashoffset="0" font-family="none" font-weight="none" font-size="none" text-anchor="none" style="mix-blend-mode: normal"><g transform="translate(0,-0.00406) scale(6.71035,6.71035)"><g id="vectorisés"><path d="M34.38,0h-30.63c-1,0 -1.94,0.39 -2.65,1.11c-0.71,0.7 -1.1,1.65 -1.1,2.65c0,2.08 1.68,3.77 3.75,3.77h30.63c1.01,0 1.96,-0.4 2.66,-1.12c0.71,-0.71 1.11,-1.66 1.11,-2.65c0,-2.07 -1.69,-3.76 -3.77,-3.76zM36.33,5.71c-0.52,0.53 -1.21,0.82 -1.95,0.82h-30.63c-1.52,0 -2.75,-1.24 -2.75,-2.77c0,-0.74 0.29,-1.43 0.8,-1.95c0.52,-0.52 1.22,-0.81 1.95,-0.81h30.63c1.53,0 2.77,1.24 2.77,2.76c0,0.73 -0.29,1.42 -0.82,1.95z" id="moins"></path></g></g></g></svg>