<?xml version="1.0" encoding="UTF-8"?>
<svg id="Calque_2" data-name="Calque 2" xmlns="http://www.w3.org/2000/svg" viewBox="0 0 38.15 7.53">
  <defs>
    <style>
      .cls-1 {
        fill: #fff;
      }
    </style>
  </defs>
  <g id="vectorisés">
    <path id="moins" class="cls-1" d="M34.38,0H3.75c-1,0-1.94.39-2.65,1.11C.39,1.81,0,2.76,0,3.76c0,2.08,1.68,3.77,3.75,3.77h30.63c1.01,0,1.96-.4,2.66-1.12.71-.71,1.11-1.66,1.11-2.65,0-2.07-1.69-3.76-3.77-3.76ZM36.33,5.71c-.52.53-1.21.82-1.95.82H3.75c-1.52,0-2.75-1.24-2.75-2.77,0-.74.29-1.43.8-1.95.52-.52,1.22-.81,1.95-.81h30.63c1.53,0,2.77,1.24,2.77,2.76,0,.73-.29,1.42-.82,1.95Z"/>
  </g>
</svg>