<?xml version="1.0" encoding="UTF-8"?>
<svg id="Calque_2" data-name="Calque 2" xmlns="http://www.w3.org/2000/svg" viewBox="0 0 37.56 33.77">
  <defs>
    <style>
      .cls-1 {
        fill: #622181;
      }
    </style>
  </defs>
  <g id="vectorisés">
    <g id="nuisances_sonores" data-name="nuisances sonores">
      <path class="cls-1" d="M23.26.02c-.27-.07-.54.09-.61.36-.07.27.09.54.36.61,4.64,1.17,8.55,4.08,11,8.19,2.45,4.11,3.16,8.93,1.99,13.57-.07.27.09.54.36.61.04.01.08.02.12.02.22,0,.43-.15.48-.38,1.24-4.9.49-9.99-2.1-14.32C32.29,4.32,28.16,1.25,23.26.02Z"/>
      <path class="cls-1" d="M26.56,18.51c.07.21.26.35.48.35.05,0,.1,0,.15-.02.26-.08.41-.36.33-.63-.89-2.82-2.45-5.43-4.53-7.55-.19-.2-.51-.2-.71,0-.2.19-.2.51,0,.71,1.97,2.01,3.45,4.48,4.29,7.15Z"/>
      <path class="cls-1" d="M4.36,31.85c.71,1.19,1.99,1.92,3.43,1.92.02,0,.04,0,.06,0l11.02-1.45c1.42-.02,2.69-.77,3.39-2.01.7-1.24.68-2.71-.05-3.94l-8.71-14.66c-.7-1.19-1.95-1.91-3.33-1.93-1.4-.05-2.64.66-3.38,1.83L.62,21.33c-.8,1.26-.82,2.84-.06,4.12l3.8,6.4ZM1.46,21.86l6.17-9.72c.54-.86,1.47-1.36,2.48-1.36.01,0,.03,0,.04,0,1.03.01,1.96.55,2.48,1.44l8.71,14.66c.54.91.56,2.01.04,2.94-.52.93-1.46,1.49-2.58,1.51l-11.02,1.45c-1.02.02-2.03-.54-2.56-1.44l-3.8-6.4c-.57-.96-.55-2.14.05-3.08Z"/>
    </g>
  </g>
</svg>