<?xml version="1.0" encoding="UTF-8"?>
<svg id="Calque_2" data-name="Calque 2" xmlns="http://www.w3.org/2000/svg" viewBox="0 0 30.16 29.22">
  <defs>
    <style>
      .cls-1 {
        fill: #622181;
      }
    </style>
  </defs>
  <g id="pictogrammes">
    <path class="cls-1" d="M26.44,7.89l-5.16-.39L16.6.23s-.02-.02-.03-.04c-.02-.03-.04-.05-.07-.07-.02-.02-.05-.04-.08-.05-.03-.02-.06-.03-.09-.04-.03-.01-.06-.02-.1-.02-.02,0-.03-.01-.05-.01H7.62C3.88,0,.84,3.02.84,6.73v7.93c0,1.36.72,2.55,1.79,3.23L.01,28.6c-.07.27.1.54.37.6.04,0,.08.01.12.01.23,0,.43-.15.49-.38l2.57-10.54c.35.11.72.18,1.11.18h.73c3.02,0,5.33-2.26,6.02-5.9l.6-3.79c.04-.27-.14-.53-.42-.57-.27-.05-.53.14-.57.42l-.6,3.77c-.46,2.45-2.03,5.07-5.03,5.07h-.73c-1.56,0-2.83-1.27-2.83-2.83v-7.93C1.84,3.57,4.43,1,7.62,1h8.3l4.67,7.25s.01.01.02.02c.04.06.09.1.15.14,0,0,.01,0,.02.01.06.03.12.05.19.06l5.4.41c1.57.12,2.79,1.44,2.79,3.02v2.99c0,3.07-2.51,5.57-5.59,5.57h-3.97c-.28,0-.5.22-.5.5v7.76c0,.28.22.5.5.5s.5-.22.5-.5v-7.26h3.47c3.64,0,6.59-2.95,6.59-6.57v-2.99c0-2.09-1.63-3.85-3.72-4.01Z"/>
  </g>
</svg>