<svg version="1.1" xmlns="http://www.w3.org/2000/svg" xmlns:xlink="http://www.w3.org/1999/xlink" width="37.64px" height="17.09px" viewBox="0,0,256,116.22917"><g fill="#497c29" fill-rule="nonzero" stroke="none" stroke-width="1" stroke-linecap="butt" stroke-linejoin="miter" stroke-miterlimit="10" stroke-dasharray="" stroke-dashoffset="0" font-family="none" font-weight="none" font-size="none" text-anchor="none" style="mix-blend-mode: normal"><g transform="translate(0.009,0.0317) scale(6.80128,6.80128)"><g id="vectorisés"><g><path d="M5.98,6.74c-2.08,-0.88 -2.24,-1.39 -2.24,-2.08c0,-0.31 0.13,-1.31 1.81,-1.31c0.69,0 1.23,0.15 1.56,0.28c0.2,0.08 0.41,0.12 0.63,0.12c0.71,0 1.36,-0.45 1.6,-1.12c0.32,-0.87 -0.13,-1.85 -1,-2.17c-0.55,-0.21 -1.48,-0.46 -2.72,-0.46c-3.19,0 -5.49,2.05 -5.49,4.87c0,2.28 1.47,3.99 4.36,5.07c1.89,0.76 2.04,1.46 2.04,2.16c0,1.42 -1.33,1.64 -2.12,1.64c-0.45,0 -1.24,-0.21 -2.17,-0.57c-0.19,-0.08 -0.4,-0.12 -0.6,-0.12c-0.71,0 -1.33,0.45 -1.55,1.12c-0.3,0.91 0.15,1.92 1.04,2.29c0.93,0.39 2.12,0.62 3.18,0.62c3.5,0 5.85,-2.06 5.85,-5.12c0,-3.06 -2.24,-4.41 -4.19,-5.23zM4.32,16.09c-0.98,0 -2.02,-0.22 -2.8,-0.54c-0.41,-0.17 -0.62,-0.63 -0.48,-1.06c0.09,-0.27 0.34,-0.43 0.6,-0.43c0.08,0 0.16,0.01 0.24,0.05c0.68,0.27 1.76,0.64 2.53,0.64c1.96,0 3.12,-1.06 3.12,-2.64c0,-1.44 -0.79,-2.33 -2.69,-3.1c-2.21,-0.83 -3.71,-2.12 -3.71,-4.14c0,-2.23 1.81,-3.87 4.48,-3.87c0.97,0 1.78,0.17 2.37,0.39c0.36,0.14 0.54,0.53 0.41,0.9c-0.1,0.29 -0.37,0.46 -0.66,0.46c-0.09,0 -0.18,-0.02 -0.27,-0.05c-0.48,-0.19 -1.14,-0.35 -1.92,-0.35c-2.04,0 -2.81,1.25 -2.81,2.31c0,1.44 0.89,2.17 2.85,3c2.37,1 3.58,2.21 3.58,4.31c0,2.33 -1.69,4.12 -4.85,4.12z"></path><path d="M33.45,6.74c-2.08,-0.88 -2.24,-1.39 -2.24,-2.08c0,-0.31 0.13,-1.31 1.81,-1.31c0.69,0 1.23,0.15 1.56,0.28c0.2,0.08 0.41,0.12 0.63,0.12c0.72,0 1.36,-0.45 1.6,-1.12c0.32,-0.87 -0.13,-1.85 -1,-2.17c-0.55,-0.21 -1.48,-0.46 -2.72,-0.46c-3.18,0 -5.48,2.05 -5.48,4.87c0,2.28 1.47,3.99 4.36,5.07c1.89,0.76 2.04,1.46 2.04,2.16c0,1.42 -1.33,1.64 -2.12,1.64c-0.45,0 -1.24,-0.21 -2.17,-0.57c-0.19,-0.08 -0.4,-0.12 -0.6,-0.12c-0.71,0 -1.33,0.45 -1.55,1.12c-0.3,0.91 0.15,1.92 1.04,2.29c0.93,0.39 2.12,0.62 3.18,0.62c3.5,0 5.85,-2.06 5.85,-5.12c0,-3.06 -2.24,-4.41 -4.19,-5.23zM31.79,16.09c-0.98,0 -2.02,-0.22 -2.8,-0.54c-0.41,-0.17 -0.62,-0.63 -0.48,-1.06c0.09,-0.27 0.34,-0.43 0.6,-0.43c0.08,0 0.16,0.01 0.24,0.05c0.68,0.27 1.76,0.64 2.53,0.64c1.96,0 3.12,-1.06 3.12,-2.64c0,-1.44 -0.79,-2.33 -2.69,-3.1c-2.21,-0.83 -3.71,-2.12 -3.71,-4.14c0,-2.23 1.81,-3.87 4.48,-3.87c0.97,0 1.78,0.17 2.37,0.39c0.36,0.14 0.54,0.53 0.41,0.9c-0.1,0.29 -0.37,0.46 -0.66,0.46c-0.09,0 -0.18,-0.02 -0.27,-0.05c-0.48,-0.19 -1.14,-0.35 -1.92,-0.35c-2.04,0 -2.81,1.25 -2.81,2.31c0,1.44 0.89,2.17 2.85,3c2.37,1 3.58,2.21 3.58,4.31c0,2.33 -1.69,4.12 -4.85,4.12z"></path><path d="M18.82,0c-3.81,0 -6.9,3.83 -6.9,8.54c0,4.71 3.1,8.54 6.9,8.54c3.8,0 6.9,-3.83 6.9,-8.54c0,-4.71 -3.09,-8.54 -6.9,-8.54zM18.82,16.09c-3.26,0 -5.9,-3.38 -5.9,-7.54c0,-4.16 2.64,-7.54 5.9,-7.54c3.26,0 5.9,3.38 5.9,7.54c0,4.16 -2.64,7.54 -5.9,7.54z"></path><path d="M18.82,2.6c-2.37,0 -4.31,2.67 -4.31,5.95c0,3.28 1.93,5.95 4.31,5.95c2.38,0 4.31,-2.67 4.31,-5.95c0,-3.28 -1.93,-5.95 -4.31,-5.95zM18.82,13.49c-1.79,0 -3.31,-2.26 -3.31,-4.95c0,-2.69 1.51,-4.95 3.31,-4.95c1.8,0 3.31,2.26 3.31,4.95c0,2.69 -1.51,4.95 -3.31,4.95z"></path></g></g></g></g></svg>