<?xml version="1.0" encoding="UTF-8"?>
<svg id="Calque_2" data-name="Calque 2" xmlns="http://www.w3.org/2000/svg" viewBox="0 0 37.16 26.89">
  <defs>
    <style>
      .cls-1 {
        fill: #00978f;
      }
    </style>
  </defs>
  <g id="vectorisés">
    <path id="escalier" class="cls-1" d="M36.66,0h-7.25c-.28,0-.5.22-.5.5v5.17c0,.41-.33.74-.74.74h-5.1c-.28,0-.5.22-.5.5,0,.01,0,.02,0,.03,0,.01,0,.02,0,.03v5.17c0,.41-.33.74-.74.74h-5.17c-.28,0-.5.22-.5.5v5.17c0,.41-.33.74-.74.74h-5.16s-.03,0-.04,0c-.01,0-.03,0-.04,0-.02,0-.03.01-.05.02-.03,0-.07.02-.1.04-.03.01-.05.03-.07.05-.03.02-.05.04-.07.07-.02.02-.04.05-.05.07-.02.03-.03.06-.04.09-.01.03-.01.06-.02.09,0,.02-.01.04-.01.06,0,.01,0,.03,0,.04,0,.01,0,.03,0,.04,0,.03,0,.08,0,.11v4.38c0,.84-.69,1.53-1.53,1.53H.5c-.28,0-.5.22-.5.5s.22.5.5.5h7.74c1.4,0,2.53-1.13,2.53-2.53v-4.07h4.65c.96,0,1.74-.78,1.74-1.74v-4.67h4.67c.96,0,1.74-.78,1.74-1.74v-4.73h4.6c.96,0,1.74-.78,1.74-1.74V1h6.75c.28,0,.5-.22.5-.5s-.22-.5-.5-.5Z"/>
  </g>
</svg>