<?xml version="1.0" encoding="UTF-8"?>
<svg id="Calque_2" data-name="Calque 2" xmlns="http://www.w3.org/2000/svg" viewBox="0 0 39.53 23.26">
  <defs>
    <style>
      .cls-1 {
        fill: #fff;
      }
    </style>
  </defs>
  <g id="vectorisés">
    <g id="oeil">
      <path class="cls-1" d="M19.77,0C9.08,0,.59,10.86.23,11.33l-.23.31.23.31c.36.46,8.84,11.32,19.54,11.32s19.17-10.86,19.53-11.33l.23-.3-.23-.3c-.36-.46-8.83-11.33-19.53-11.33ZM19.77,22.26C10.55,22.26,2.74,13.4,1.27,11.63,2.74,9.86,10.54,1,19.77,1s17.02,8.86,18.49,10.63c-1.47,1.77-9.26,10.63-18.49,10.63Z"/>
      <path class="cls-1" d="M19.76,2.53c-4.7,0-8.53,3.83-8.53,8.54s3.83,8.53,8.53,8.53,8.54-3.83,8.54-8.53-3.83-8.54-8.54-8.54ZM19.76,18.6c-4.15,0-7.53-3.38-7.53-7.53s3.38-7.54,7.53-7.54,7.54,3.38,7.54,7.54-3.38,7.53-7.54,7.53Z"/>
      <path class="cls-1" d="M15.98,5.25c-1.37,0-2.48,1.11-2.48,2.48s1.11,2.48,2.48,2.48,2.49-1.11,2.49-2.48-1.12-2.48-2.49-2.48ZM15.98,9.21c-.82,0-1.48-.66-1.48-1.48s.66-1.48,1.48-1.48,1.49.66,1.49,1.48-.67,1.48-1.49,1.48Z"/>
    </g>
  </g>
</svg>