<?xml version="1.0" encoding="UTF-8"?>
<svg id="Calque_2" data-name="Calque 2" xmlns="http://www.w3.org/2000/svg" viewBox="0 0 40.66 40.84">
  <defs>
    <style>
      .cls-1 {
        fill: #957755;
      }
    </style>
  </defs>
  <g id="pictogrammes">
    <g>
      <path class="cls-1" d="M29.24,16.7l-.71-.7,10.86-11.03c.5-1.03.32-2.27-.45-3.1-.8-.86-2.09-1.12-3.17-.64l-10.65,11.02-.72-.69L35.25.37c1.49-.71,3.3-.38,4.42.82,1.07,1.16,1.3,2.89.58,4.3l-.09.12-10.91,11.08Z"/>
      <path class="cls-1" d="M32.19,39.68c-2.46,0-4.84-1.09-6.35-3.05-1.76-2.28-2.1-5.45-.9-8.17l-13.3-13.14c-3.39,1.55-7.37.68-9.57-2.12C.21,10.83-.05,7.49,1.42,4.68l.32-.61,4.45,4.57c.89.64,2.14.75,2.96.21.51-.33.87-.93,1-1.62.15-.84-.07-1.74-.61-2.45L6.01.82l.77-.22c2.95-.84,6.08-.01,8.16,2.16,2.21,2.31,2.84,5.69,1.63,8.7l13.13,12.78c1.05-.36,4.46-1.29,7.43.79,2.89,2.02,4.04,5.91,2.8,9.46l-.26.75-4.21-4.21c-.88-.56-1.94-.61-2.73-.13-1.08.67-1.45,2.17-.85,3.45l3.98,4.51-.67.26c-.98.38-2,.56-3,.56ZM11.83,14.1l14.32,14.15-.16.32c-1.21,2.45-.96,5.37.64,7.44,1.72,2.23,4.72,3.16,7.5,2.4l-3.12-3.56c-.87-1.75-.35-3.86,1.19-4.8,1.13-.7,2.64-.63,3.85.17l.08.06,3.09,3.09c.69-2.9-.34-5.91-2.65-7.52-3.04-2.13-6.63-.63-6.78-.57l-.31.13-14.09-13.71.14-.32c1.2-2.67.67-5.86-1.31-7.93-1.64-1.71-4.02-2.47-6.37-2.08l2.46,2.75c.73.97,1.02,2.15.82,3.26-.17.97-.69,1.8-1.43,2.29-1.18.77-2.85.65-4.16-.29l-3.53-3.61c-.94,2.31-.64,4.92.84,6.79,1.98,2.53,5.62,3.24,8.66,1.69l.32-.16Z"/>
      <path class="cls-1" d="M4.68,40.84c-.38,0-.74-.15-1.01-.42l-3.25-3.25c-.27-.27-.42-.63-.42-1.01s.15-.74.42-1.01l4.53-4.53c.55-.55,1.46-.56,2.02,0l3.25,3.25c.56.56.56,1.46,0,2.02h0l-4.53,4.53c-.27.27-.63.42-1.01.42ZM5.95,31.21c-.11,0-.22.04-.3.12l-4.53,4.52c-.17.17-.17.44,0,.6l3.25,3.25c.17.17.44.16.6,0l4.53-4.53c.17-.17.17-.44,0-.6l-3.25-3.25c-.08-.08-.19-.12-.3-.12Z"/>
      <path class="cls-1" d="M9.46,33.59l-2.21-2.21,7.12-7.12,2.21,2.21-7.12,7.12ZM8.67,31.38l.79.79,5.71-5.71-.79-.79-5.71,5.71Z"/>
    </g>
  </g>
</svg>