<svg version="1.1" xmlns="http://www.w3.org/2000/svg" xmlns:xlink="http://www.w3.org/1999/xlink" width="38.15px" height="38.15px" viewBox="0,0,256,256"><g fill="#497c29" fill-rule="nonzero" stroke="none" stroke-width="1" stroke-linecap="butt" stroke-linejoin="miter" stroke-miterlimit="10" stroke-dasharray="" stroke-dashoffset="0" font-family="none" font-weight="none" font-size="none" text-anchor="none" style="mix-blend-mode: normal"><g transform="translate(0.03355,0) scale(6.71035,6.71035)"><g id="vectorisés"><path d="M34.39,15.31h-11.55v-11.56c0,-1 -0.39,-1.94 -1.11,-2.65c-0.72,-0.71 -1.67,-1.1 -2.65,-1.1c-2.08,0 -3.76,1.68 -3.76,3.75v11.56h-11.57c-1,0 -1.94,0.39 -2.65,1.11c-0.71,0.71 -1.1,1.65 -1.1,2.65c0,2.08 1.68,3.76 3.75,3.76h11.56v11.55c0,1 0.39,1.95 1.11,2.67c0.71,0.71 1.65,1.1 2.65,1.1c2.08,0 3.76,-1.69 3.76,-3.76v-11.55h11.55c1,0 1.95,-0.39 2.66,-1.11c0.71,-0.71 1.1,-1.65 1.1,-2.65c0,-2.08 -1.69,-3.76 -3.76,-3.76zM36.34,21.02c-0.53,0.53 -1.22,0.82 -1.96,0.82h-12.55v12.55c0,1.52 -1.24,2.76 -2.76,2.76c-0.74,0 -1.43,-0.29 -1.95,-0.81c-0.53,-0.53 -0.82,-1.22 -0.82,-1.96v-12.55h-12.55c-1.52,0 -2.75,-1.24 -2.75,-2.76c0,-0.74 0.29,-1.43 0.81,-1.95c0.53,-0.53 1.22,-0.82 1.95,-0.82h12.56v-12.55c0,-1.52 1.24,-2.75 2.76,-2.75c0.73,0 1.43,0.29 1.95,0.81c0.52,0.52 0.82,1.22 0.82,1.95v12.56h12.55c1.52,0 2.76,1.24 2.76,2.76c0,0.74 -0.29,1.43 -0.81,1.95z" id="plus"></path></g></g></g></svg>