<?xml version="1.0" encoding="UTF-8"?>
<svg id="Calque_2" data-name="Calque 2" xmlns="http://www.w3.org/2000/svg" viewBox="0 0 38.15 38.15">
  <defs>
    <style>
      .cls-1 {
        fill: #fff;
      }
    </style>
  </defs>
  <g id="vectorisés">
    <path id="plus" class="cls-1" d="M34.39,15.31h-11.55V3.75c0-1-.39-1.94-1.11-2.65s-1.67-1.1-2.65-1.1c-2.08,0-3.76,1.68-3.76,3.75v11.56H3.75c-1,0-1.94.39-2.65,1.11-.71.71-1.1,1.65-1.1,2.65,0,2.08,1.68,3.76,3.75,3.76h11.56v11.55c0,1,.39,1.95,1.11,2.67.71.71,1.65,1.1,2.65,1.1,2.08,0,3.76-1.69,3.76-3.76v-11.55h11.55c1,0,1.95-.39,2.66-1.11.71-.71,1.1-1.65,1.1-2.65,0-2.08-1.69-3.76-3.76-3.76ZM36.34,21.02c-.53.53-1.22.82-1.96.82h-12.55v12.55c0,1.52-1.24,2.76-2.76,2.76-.74,0-1.43-.29-1.95-.81-.53-.53-.82-1.22-.82-1.96v-12.55H3.75c-1.52,0-2.75-1.24-2.75-2.76,0-.74.29-1.43.81-1.95.53-.53,1.22-.82,1.95-.82h12.56V3.75c0-1.52,1.24-2.75,2.76-2.75.73,0,1.43.29,1.95.81s.82,1.22.82,1.95v12.56h12.55c1.52,0,2.76,1.24,2.76,2.76,0,.74-.29,1.43-.81,1.95Z"/>
  </g>
</svg>