<svg version="1.1" xmlns="http://www.w3.org/2000/svg" xmlns:xlink="http://www.w3.org/1999/xlink" width="27.08px" height="44.17px" viewBox="0,0,156.94792,256"><g fill="#497c29" fill-rule="nonzero" stroke="none" stroke-width="1" stroke-linecap="butt" stroke-linejoin="miter" stroke-miterlimit="10" stroke-dasharray="" stroke-dashoffset="0" font-family="none" font-weight="none" font-size="none" text-anchor="none" style="mix-blend-mode: normal"><g transform="translate(0.03862,-0.01099) scale(5.79579,5.79579)"><g id="pictogrammes"><g id="Point_d_interrogation"><path d="M13.71,34.85c-0.69,0 -1.26,-0.3 -1.47,-0.42c-0.21,-0.12 -0.92,-0.6 -1.23,-1.52c-0.11,-0.33 -0.19,-0.82 0.03,-1.94c0.2,-1.02 0.51,-1.81 0.75,-2.38c0.55,-1.3 1.13,-2.25 1.36,-2.6c0.82,-1.28 1.62,-2.12 2.32,-2.86c1.11,-1.18 2.24,-2.17 2.99,-2.82l0.66,-0.57c0.52,-0.44 0.73,-0.63 1.06,-1.03c0.73,-0.89 1.13,-1.74 1.34,-2.31c0.12,-0.34 0.42,-1.27 0.47,-2.49c0.03,-0.68 -0.04,-1.45 -0.18,-2.16c-0.17,-0.84 -0.41,-1.47 -0.55,-1.78c-0.43,-1 -0.97,-1.69 -1.17,-1.95c-0.75,-0.91 -1.52,-1.39 -1.93,-1.65c-0.8,-0.51 -1.69,-0.89 -2.57,-1.11c-1.49,-0.38 -2.74,-0.28 -3.36,-0.18c-1.94,0.3 -3.35,1.22 -4.19,1.95c-0.35,0.3 -1.23,1.14 -1.96,2.46c-0.62,1.13 -0.9,1.64 -0.9,2.35c0,0.1 0,0.21 0.01,0.32c0.02,0.45 0.05,1.07 -0.15,1.82c-0.07,0.26 -0.18,0.61 -0.44,0.97c-0.29,0.38 -0.66,0.67 -1.08,0.84c-0.88,0.35 -1.94,0.14 -2.64,-0.51c-0.37,-0.34 -0.61,-0.78 -0.74,-1.36h0c-0.46,-1.96 0.17,-5.34 2.59,-8.47c0.64,-0.83 1.39,-1.61 2.21,-2.31c1.23,-1.03 3.86,-2.8 7.56,-3.1c1.41,-0.11 5.08,-0.12 8.63,2.28c2.24,1.51 3.57,3.4 4.29,4.72c0.68,1.24 1.17,2.6 1.42,3.95c0.23,1.21 0.28,2.44 0.17,3.65c-0.06,0.6 -0.28,2.2 -1.06,4.04c-0.26,0.61 -0.66,1.54 -1.46,2.6c-0.69,0.93 -1.41,1.58 -1.88,2.01c-0.27,0.25 -0.46,0.4 -0.66,0.56c-0.24,0.2 -0.5,0.42 -0.98,0.86c-0.59,0.54 -1.01,0.96 -1.18,1.14c-0.53,0.54 -0.93,0.97 -1.11,1.18c-0.38,0.43 -0.58,0.66 -0.82,0.96c-0.3,0.39 -0.92,1.2 -1.39,2.4c-0.19,0.48 -0.32,0.8 -0.38,1.28c-0.04,0.27 -0.03,0.45 -0.03,0.6c0,0.21 0.01,0.43 -0.08,0.75c-0.23,0.76 -0.7,1.34 -1.33,1.63c-0.32,0.15 -0.64,0.21 -0.94,0.21zM13.43,3.99c0.68,0 1.51,0.07 2.41,0.3c0.98,0.25 1.97,0.68 2.86,1.24c0.42,0.27 1.3,0.83 2.16,1.86c0.29,0.35 0.86,1.11 1.32,2.19c0.15,0.34 0.42,1.05 0.61,1.97c0.21,1.02 0.22,1.87 0.2,2.4c-0.06,1.36 -0.39,2.41 -0.54,2.8c-0.34,0.91 -0.86,1.81 -1.5,2.6c-0.39,0.47 -0.65,0.7 -1.19,1.16l-0.65,0.56c-0.73,0.64 -1.84,1.61 -2.92,2.76c-0.67,0.71 -1.43,1.51 -2.2,2.71c-0.21,0.33 -0.76,1.22 -1.28,2.45c-0.22,0.53 -0.5,1.25 -0.69,2.19c-0.2,1.01 -0.1,1.31 -0.06,1.43c0.2,0.6 0.69,0.92 0.79,0.98c0.19,0.11 0.86,0.46 1.48,0.17c0.49,-0.23 0.71,-0.73 0.79,-1.01c0.05,-0.17 0.05,-0.26 0.04,-0.45c0,-0.19 0,-0.41 0.04,-0.75c0.08,-0.59 0.24,-1 0.44,-1.51c0.52,-1.33 1.23,-2.25 1.54,-2.65c0.25,-0.32 0.46,-0.56 0.85,-1c0.2,-0.23 0.61,-0.68 1.16,-1.23c0.18,-0.18 0.61,-0.61 1.22,-1.17c0.5,-0.46 0.77,-0.68 1.02,-0.89c0.19,-0.16 0.36,-0.3 0.61,-0.53c0.45,-0.41 1.13,-1.03 1.76,-1.88c0.72,-0.96 1.09,-1.83 1.33,-2.4c0.73,-1.71 0.93,-3.19 0.99,-3.74c0.11,-1.12 0.06,-2.25 -0.15,-3.37c-0.23,-1.24 -0.69,-2.5 -1.32,-3.65c-0.67,-1.22 -1.9,-2.97 -3.97,-4.37c-3.29,-2.22 -6.69,-2.22 -8,-2.11c-3.43,0.28 -5.86,1.92 -7,2.87c-0.77,0.65 -1.46,1.38 -2.06,2.16c-2.21,2.86 -2.79,5.96 -2.4,7.63v0c0.06,0.24 0.16,0.59 0.45,0.85c0.35,0.33 1.01,0.54 1.59,0.31c0.25,-0.1 0.47,-0.27 0.65,-0.51c0.16,-0.21 0.23,-0.42 0.28,-0.62c0.16,-0.61 0.14,-1.1 0.12,-1.53c0,-0.13 -0.01,-0.25 -0.01,-0.36c0,-0.97 0.36,-1.63 1.02,-2.84c0.8,-1.46 1.79,-2.4 2.18,-2.73c0.94,-0.81 2.52,-1.85 4.7,-2.18c0.31,-0.05 0.78,-0.1 1.35,-0.1z"></path><path d="M13.6,44.17c-0.55,0 -0.97,-0.14 -1.11,-0.19c-0.81,-0.29 -1.28,-0.85 -1.48,-1.16c-0.47,-0.69 -0.54,-1.35 -0.53,-1.79c0.04,-1.16 0.77,-1.89 1,-2.09c0.2,-0.18 0.92,-0.76 2.07,-0.76v0c1.1,0.02 2.13,0.65 2.63,1.59c0.22,0.41 0.44,1.09 0.27,1.98c-0.15,0.78 -0.57,1.45 -1.17,1.89c-0.57,0.41 -1.17,0.53 -1.68,0.53zM13.48,39.18c-0.74,0 -1.25,0.42 -1.34,0.51c-0.15,0.13 -0.63,0.62 -0.66,1.39c-0.01,0.29 0.04,0.73 0.36,1.19c0.11,0.17 0.44,0.57 1,0.78c0.11,0.04 1.06,0.36 1.86,-0.21c0.5,-0.36 0.7,-0.89 0.77,-1.26c0.12,-0.61 -0.03,-1.06 -0.17,-1.33c-0.33,-0.63 -1.02,-1.04 -1.76,-1.06h-0.04z"></path></g></g></g></g></svg>