<svg version="1.1" xmlns="http://www.w3.org/2000/svg" xmlns:xlink="http://www.w3.org/1999/xlink" width="31.6px" height="39.9px" viewBox="0,0,202.73959,256"><g fill="#497c29" fill-rule="nonzero" stroke="none" stroke-width="1" stroke-linecap="butt" stroke-linejoin="miter" stroke-miterlimit="10" stroke-dasharray="" stroke-dashoffset="0" font-family="none" font-weight="none" font-size="none" text-anchor="none" style="mix-blend-mode: normal"><g transform="translate(-0.00364,0) scale(6.41604,6.41604)"><g id="pictogrammes"><path d="M27.81,39.9h-24.02c-2.09,0 -3.79,-1.7 -3.79,-3.79v-32.32c0,-2.09 1.7,-3.79 3.79,-3.79h24.02c2.09,0 3.79,1.7 3.79,3.79v32.32c0,2.09 -1.7,3.79 -3.79,3.79zM3.79,1c-1.54,0 -2.79,1.25 -2.79,2.79v32.32c0,1.54 1.25,2.79 2.79,2.79h24.02c1.54,0 2.79,-1.25 2.79,-2.79v-32.32c0,-1.54 -1.25,-2.79 -2.79,-2.79z"></path><path d="M28.51,10.19h-23.88c-0.28,0 -0.5,-0.22 -0.5,-0.5c0,-0.28 0.22,-0.5 0.5,-0.5h23.88c0.28,0 0.5,0.22 0.5,0.5c0,0.28 -0.22,0.5 -0.5,0.5z"></path><path d="M28.51,20.48h-23.88c-0.28,0 -0.5,-0.22 -0.5,-0.5c0,-0.28 0.22,-0.5 0.5,-0.5h23.88c0.28,0 0.5,0.22 0.5,0.5c0,0.28 -0.22,0.5 -0.5,0.5z"></path><path d="M28.51,30.17h-23.88c-0.28,0 -0.5,-0.22 -0.5,-0.5c0,-0.28 0.22,-0.5 0.5,-0.5h23.88c0.28,0 0.5,0.22 0.5,0.5c0,0.28 -0.22,0.5 -0.5,0.5z"></path></g></g></g></svg>