<?xml version="1.0" encoding="UTF-8"?>
<svg id="Calque_2" data-name="Calque 2" xmlns="http://www.w3.org/2000/svg" viewBox="0 0 28.46 28.96">
  <defs>
    <style>
      .cls-1 {
        fill: #fff;
      }
    </style>
  </defs>
  <g id="vectorisés">
    <g id="profil">
      <path class="cls-1" d="M14.23,14.95c2.12,0,4.14-.9,5.56-2.47,1.24-1.37,1.92-3.14,1.92-5,0-4.12-3.36-7.48-7.48-7.48s-7.47,3.36-7.47,7.48c0,1.85.68,3.62,1.92,4.99,1.41,1.57,3.43,2.48,5.55,2.48ZM14.23,1c3.57,0,6.48,2.91,6.48,6.48,0,1.6-.59,3.14-1.66,4.33-1.23,1.36-2.98,2.14-4.82,2.14s-3.59-.78-4.81-2.14c-1.07-1.19-1.66-2.72-1.66-4.33,0-3.57,2.9-6.48,6.47-6.48Z"/>
      <path class="cls-1" d="M6.27,13.53c-.53.11-.99.43-1.27.91L.78,21.75c-1.04,1.79-1.04,4.01,0,5.8.5.87,1.44,1.41,2.44,1.41h22.03c1,0,1.94-.54,2.44-1.41h0c1.02-1.79,1.02-4.01,0-5.8l-4.23-7.33c-.27-.46-.73-.78-1.26-.89-.55-.11-1.12.01-1.57.34-1.5,1.09-4.33,2.92-6.4,2.92s-4.9-1.83-6.4-2.92c-.45-.33-1.02-.45-1.56-.34ZM14.23,17.79c2.36,0,5.39-1.95,6.99-3.11.22-.16.51-.22.78-.17.26.05.47.2.61.43l4.22,7.31c.85,1.48.85,3.32,0,4.8-.33.56-.93.91-1.58.91H3.22c-.65,0-1.25-.35-1.58-.91-.86-1.48-.86-3.32,0-4.8l4.23-7.32c.13-.22.34-.37.6-.42.07-.01.13-.02.2-.02.21,0,.41.06.57.19,1.6,1.16,4.63,3.11,6.99,3.11Z"/>
    </g>
  </g>
</svg>