<?xml version="1.0" encoding="UTF-8"?>
<svg id="Calque_2" data-name="Calque 2" xmlns="http://www.w3.org/2000/svg" viewBox="0 0 36.11 33.84">
  <defs>
    <style>
      .cls-1 {
        fill: #497c29;
      }
    </style>
  </defs>
  <g id="vectorisés">
    <g id="recherche">
      <path class="cls-1" d="M24.38,0c-6.46,0-11.72,5.26-11.72,11.73,0,1.5.29,2.97.83,4.33L1.21,27.31C.48,28,.05,28.93,0,29.93c-.04,1,.32,1.96.99,2.68.68.74,1.61,1.18,2.61,1.23.06,0,.12,0,.18,0,.94,0,1.83-.34,2.52-.98l12.08-11.07c1.79,1.07,3.86,1.65,5.99,1.65,3.32,0,6.5-1.41,8.72-3.88,1.94-2.15,3.02-4.94,3.02-7.84,0-6.47-5.26-11.73-11.73-11.73ZM5.62,32.13c-.54.49-1.23.75-1.97.71-.74-.03-1.42-.35-1.92-.9-.5-.54-.75-1.24-.73-1.97.03-.74.35-1.42.89-1.92l12.03-11.02c.46.91,1.04,1.77,1.73,2.53.56.63,1.19,1.19,1.86,1.68l-11.89,10.89ZM32.35,18.91c-2.03,2.25-4.94,3.55-7.97,3.55s-5.95-1.3-7.98-3.56c-1.77-1.96-2.74-4.5-2.74-7.16,0-5.92,4.81-10.73,10.72-10.73s10.73,4.81,10.73,10.73c0,2.66-.98,5.21-2.76,7.17Z"/>
      <path class="cls-1" d="M24.38,4.25c-4.12,0-7.47,3.36-7.47,7.48,0,.44.04.88.12,1.31h0s0,.01,0,.01c.24,1.36.86,2.64,1.8,3.68,1.41,1.57,3.43,2.48,5.55,2.48s4.14-.9,5.56-2.48c1.24-1.37,1.92-3.15,1.92-4.99,0-4.12-3.36-7.48-7.48-7.48ZM29.19,16.06c-1.23,1.36-2.98,2.15-4.82,2.15s-3.59-.78-4.81-2.15c-1.07-1.19-1.66-2.72-1.66-4.32,0-3.57,2.9-6.48,6.47-6.48s6.48,2.91,6.48,6.48c0,1.6-.59,3.14-1.66,4.32Z"/>
    </g>
  </g>
</svg>
