<?xml version="1.0" encoding="UTF-8"?>
<svg id="Calque_2" data-name="Calque 2" xmlns="http://www.w3.org/2000/svg" viewBox="0 0 36.32 30.04">
  <defs>
    <style>
      .cls-1 {
        fill: #fff;
      }
    </style>
  </defs>
  <g id="vectorisés">
    <g id="animal">
      <path class="cls-1" d="M28.85,13.86c-1.89-2-5.25-4.39-10.52-4.39-4.18,0-7.75,1.46-10.33,4.21-2.74,2.93-3.81,6.79-3.65,9.14.26,3.89,3.53,7.06,7.42,7.21,1.4.06,2.78-.26,4-.92,1.68-.91,3.77-.91,5.44,0,1.13.61,2.4.93,3.69.93.1,0,.21,0,.31,0,3.94-.16,7.21-3.36,7.43-7.3.13-2.28-.99-5.91-3.79-8.87ZM25.17,29.04c-1.22.05-2.42-.23-3.48-.8-.99-.53-2.09-.8-3.2-.8s-2.21.27-3.2.8c-1.06.57-2.27.85-3.48.8-3.4-.13-6.23-2.89-6.46-6.28-.15-2.14.85-5.68,3.38-8.39,2.38-2.55,5.7-3.9,9.59-3.9,4.91,0,8.03,2.21,9.79,4.07,2.58,2.73,3.64,6.13,3.52,8.13-.19,3.43-3.04,6.22-6.47,6.36Z"/>
      <path class="cls-1" d="M3.64,14.7c2.01,0,3.64-2.02,3.64-4.51s-1.63-4.51-3.64-4.51S0,7.7,0,10.19s1.63,4.51,3.64,4.51ZM3.64,6.68c1.46,0,2.64,1.58,2.64,3.51s-1.18,3.51-2.64,3.51-2.64-1.58-2.64-3.51,1.18-3.51,2.64-3.51Z"/>
      <path class="cls-1" d="M16.43,4.51c0-2.49-1.63-4.51-3.64-4.51s-3.64,2.02-3.64,4.51,1.63,4.51,3.64,4.51,3.64-2.02,3.64-4.51ZM10.15,4.51c0-1.94,1.18-3.51,2.64-3.51s2.64,1.58,2.64,3.51-1.18,3.51-2.64,3.51-2.64-1.58-2.64-3.51Z"/>
      <path class="cls-1" d="M32.68,5.68c-2.01,0-3.64,2.02-3.64,4.51s1.63,4.51,3.64,4.51,3.64-2.02,3.64-4.51-1.63-4.51-3.64-4.51ZM32.68,13.7c-1.46,0-2.64-1.58-2.64-3.51s1.18-3.51,2.64-3.51,2.64,1.58,2.64,3.51-1.18,3.51-2.64,3.51Z"/>
      <path class="cls-1" d="M27.23,4.51c0-2.49-1.63-4.51-3.64-4.51s-3.64,2.02-3.64,4.51,1.63,4.51,3.64,4.51,3.64-2.02,3.64-4.51ZM20.95,4.51c0-1.94,1.18-3.51,2.64-3.51s2.64,1.58,2.64,3.51-1.18,3.51-2.64,3.51-2.64-1.58-2.64-3.51Z"/>
    </g>
  </g>
</svg>