<svg version="1.1" xmlns="http://www.w3.org/2000/svg" xmlns:xlink="http://www.w3.org/1999/xlink" width="42.38px" height="42.5px" viewBox="0,0,255.27084,256"><g fill="none" fill-rule="nonzero" stroke="#497c29" stroke-width="1" stroke-linecap="butt" stroke-linejoin="miter" stroke-miterlimit="10" stroke-dasharray="" stroke-dashoffset="0" font-family="none" font-weight="none" font-size="none" text-anchor="none" style="mix-blend-mode: normal"><g transform="translate(0.04564,0.10203) scale(6.02353,6.02353)"><g id="pictogrammes"><g><path d="M16.67,5.75c-0.04,-0.31 -0.3,-2.49 1.2,-4c1.71,-1.71 4.76,-1.64 6.5,0c1.58,1.49 1.42,3.67 1.4,4c1.09,0.45 2.18,0.9 3.28,1.35c0.19,-0.22 1.67,-1.87 3.85,-1.73c2.31,0.14 4.24,2.2 4.33,4.48c0.09,2.16 -1.5,3.6 -1.73,3.8c0.39,1.03 0.77,2.05 1.16,3.08c0.3,-0.02 2.57,-0.12 4.06,1.59c1.52,1.74 1.56,4.57 0,6.31c-1.52,1.7 -3.82,1.52 -4.11,1.49l-1.25,3.03c0.23,0.2 1.88,1.64 1.78,3.8c-0.11,2.36 -2.24,4.36 -4.58,4.43c-2.15,0.06 -3.57,-1.54 -3.78,-1.78c-1.04,0.41 -2.07,0.81 -3.11,1.22c0.03,0.32 0.16,2.46 -1.41,3.93c-1.73,1.62 -4.7,1.64 -6.44,0c-1.62,-1.53 -1.4,-3.79 -1.37,-4.08c-1.01,-0.41 -2.02,-0.81 -3.02,-1.22c-0.21,0.25 -1.65,1.88 -3.81,1.82c-2.42,-0.07 -4.6,-2.23 -4.62,-4.66c-0.01,-2.15 1.67,-3.53 1.93,-3.73c-0.42,-1.04 -0.84,-2.08 -1.26,-3.13c-0.29,0.03 -2.51,0.21 -4,-1.41c-1.58,-1.71 -1.57,-4.58 0,-6.29c1.5,-1.64 3.73,-1.46 4.02,-1.43c0.43,-1.04 0.87,-2.08 1.3,-3.13c-0.23,-0.19 -1.95,-1.66 -1.84,-3.89c0.11,-2.37 2.23,-4.46 4.6,-4.47c2.09,-0.01 3.44,1.59 3.64,1.84c1.09,-0.42 2.18,-0.83 3.27,-1.25z"></path><circle cx="21.2" cy="21.25" r="8.21"></circle></g></g></g></g></svg>