<?xml version="1.0" encoding="UTF-8"?>
<svg id="Calque_2" data-name="Calque 2" xmlns="http://www.w3.org/2000/svg" viewBox="0 0 38.62 14.75">
  <defs>
    <style>
      .cls-1 {
        fill: #fff;
      }
    </style>
  </defs>
  <g id="vectorisés">
    <g id="pensemment">
      <path class="cls-1" d="M31.25,0H7.38C3.31,0,0,3.31,0,7.38s3.31,7.38,7.38,7.38h23.87c4.07,0,7.38-3.31,7.38-7.38s-3.31-7.38-7.38-7.38ZM31.25,13.75H7.38c-3.52,0-6.38-2.86-6.38-6.38S3.86,1,7.38,1h23.87c3.52,0,6.38,2.86,6.38,6.38s-2.86,6.38-6.38,6.38Z"/>
      <path class="cls-1" d="M25.31,1.96h-12.01c-1.93,0-3.49,1.57-3.49,3.49v3.86c0,1.93,1.57,3.49,3.49,3.49h12.01c1.93,0,3.49-1.57,3.49-3.49v-3.86c0-1.93-1.57-3.49-3.49-3.49ZM28.31,9.31c0,1.65-1.34,2.99-2.99,2.99h-12.01c-1.65,0-2.99-1.34-2.99-2.99v-3.86c0-1.65,1.34-2.99,2.99-2.99h12.01c1.65,0,2.99,1.34,2.99,2.99v3.86Z"/>
    </g>
  </g>
</svg>