<?xml version="1.0" encoding="UTF-8"?>
<svg id="Calque_2" data-name="Calque 2" xmlns="http://www.w3.org/2000/svg" viewBox="0 0 42.7 34.53">
  <defs>
    <style>
      .cls-1 {
        fill: none;
        stroke: #000;
        stroke-miterlimit: 10;
      }
    </style>
  </defs>
  <g id="pictogrammes">
    <g>
      <path class="cls-1" d="M10.92,18.76L2.1,9.86S-1.74,4.87,2.72,1.57c0,0,4.53-3.3,8.59,1.69.33-.45,1.58-2,3.82-2.48.53-.11,2.56-.55,4.46.69.29.19,1.35.9,1.91,2.23.8,1.88.27,4.21-1.26,6.03l-7.63,8.09-.82.94s-.18.2-.44.2c-.26,0-.41-.17-.43-.2Z"/>
      <path class="cls-1" d="M34.74,24.82c.63-.56,1.25-1.12,1.88-1.69h5.58v-10.19h-13.3c-.89.17-1.97.46-3.15.96-1.49.63-2.65,1.38-3.49,2.03-2.87,2.75-5.75,5.5-8.62,8.25,0,0-.98,1.6.13,2.91,0,0,.62,1.21,3.28.79,2.18-1.31,4.37-2.62,6.55-3.93"/>
      <path class="cls-1" d="M13.23,26.98H2.73s-2.33.1-2.16,2.05c0,0-.41,2,.83,2.86l17.2,2.14s6.77-.81,10.39-4.29"/>
      <circle cx="31.79" cy="27.09" r=".79"/>
    </g>
  </g>
</svg>