<?xml version="1.0" encoding="UTF-8"?>
<svg id="Calque_2" data-name="Calque 2" xmlns="http://www.w3.org/2000/svg" viewBox="0 0 25.65 32.45">
  <defs>
    <style>
      .cls-1 {
        fill: #00978f;
      }
    </style>
  </defs>
  <g id="pictogrammes">
    <path class="cls-1" d="M25.21,14.1L14.32.72C13.95.26,13.42,0,12.81,0c-.58,0-1.12.26-1.48.72L.44,14.1c-.48.58-.57,1.36-.25,2.04.32.68.99,1.1,1.75,1.1h.68c0,.09-.02.17-.02.26v11.13c0,2.11,1.85,3.82,4.13,3.82h12.19c2.28,0,4.14-1.71,4.14-3.82v-11.13c0-.09-.01-.17-.02-.26h.68c.75,0,1.42-.42,1.74-1.11.32-.68.23-1.46-.25-2.04ZM24.55,15.71c-.16.33-.47.53-.84.53h-3.21c-.28,0-.5.22-.5.5s.22.5.5.5h1.53c0,.08.02.17.02.26v11.13c0,1.56-1.41,2.82-3.14,2.82H6.72c-1.73,0-3.13-1.27-3.13-2.82v-11.13c0-.09,0-.18.02-.26h1.73c.28,0,.5-.22.5-.5s-.22-.5-.5-.5H1.93c-.37,0-.68-.2-.84-.53-.16-.33-.11-.7.12-.98L12.1,1.35c.18-.22.43-.34.71-.35.27-.01.55.13.73.35l10.89,13.38c.23.28.27.65.12.98Z"/>
    <g>
      <path class="cls-1" d="M12.82,20.87c-1.35,0-2.64-.57-3.53-1.57-.79-.88-1.22-2.01-1.22-3.17,0-2.62,2.13-4.75,4.75-4.75s4.75,2.13,4.75,4.75c0,1.18-.44,2.31-1.23,3.17-.89.99-2.17,1.56-3.52,1.56ZM12.82,12.38c-2.07,0-3.75,1.68-3.75,3.75,0,.92.34,1.81.97,2.5.7.79,1.72,1.24,2.78,1.24s2.08-.45,2.78-1.24c.63-.68.97-1.57.97-2.5,0-2.07-1.68-3.75-3.75-3.75Z"/>
      <path class="cls-1" d="M19.52,29.41H6.11c-.68,0-1.32-.37-1.65-.95-.33-.57-.49-1.2-.49-1.86s.17-1.3.49-1.87l2.62-4.54c.19-.28.5-.48.84-.56.38-.08.78,0,1.1.22.56.42,2.47,1.75,3.8,1.75s3.22-1.34,3.77-1.75c.33-.24.74-.32,1.13-.24.36.08.65.28.85.58l.05.08,2.56,4.45c.67,1.17.67,2.56,0,3.73-.34.59-.97.95-1.65.95ZM7.85,20.84l-2.53,4.39c-.24.42-.36.88-.36,1.37s.12.95.36,1.37c.16.27.46.45.79.45h13.42c.32,0,.63-.18.79-.45h0c.49-.86.49-1.88,0-2.73l-2.57-4.46c-.07-.11-.17-.15-.23-.16-.12-.02-.23,0-.33.07-.97.72-2.84,1.94-4.36,1.94s-3.41-1.22-4.38-1.94c-.08-.06-.19-.08-.31-.06-.06.01-.17.05-.23.16l-.04.07Z"/>
    </g>
  </g>
</svg>