<svg version="1.1" xmlns="http://www.w3.org/2000/svg" xmlns:xlink="http://www.w3.org/1999/xlink" width="44.17px" height="44.09px" viewBox="0,0,256,255.53125"><g fill="#497c29" fill-rule="nonzero" stroke="none" stroke-width="1" stroke-linecap="butt" stroke-linejoin="miter" stroke-miterlimit="10" stroke-dasharray="" stroke-dashoffset="0" font-family="none" font-weight="none" font-size="none" text-anchor="none" style="mix-blend-mode: normal"><g transform="translate(0.0745,-0.00254) scale(5.79579,5.79579)"><g id="pictogrammes"><path d="M33.34,44.09c-1.64,0 -2.85,-0.39 -3.45,-0.58c-0.99,-0.32 -1.68,-0.69 -3.05,-1.43c-1,-0.54 -1.71,-0.97 -2.77,-1.63c-1.13,-0.7 -2.29,-1.43 -3.81,-2.5c-0.77,-0.54 -1.82,-1.29 -3.09,-2.34c-1.31,-1.09 -2.2,-1.96 -3.66,-3.41c-1.83,-1.8 -2.73,-2.69 -3.86,-3.98c-1.85,-2.09 -3.1,-3.86 -3.78,-4.81c-0.9,-1.25 -1.73,-2.51 -2.47,-3.73c-0.76,-1.26 -1.15,-2 -1.93,-3.48c-0.49,-0.93 -0.82,-1.61 -1.08,-2.55c-0.11,-0.38 -0.29,-1.16 -0.36,-2.1h-0.01c-0.19,-2.79 0.86,-5.1 1.32,-5.97c0.39,-0.74 1.28,-2.17 2.82,-3.46c0.58,-0.49 1.47,-1.23 2.86,-1.71c1.07,-0.36 1.83,-0.41 2.25,-0.41c0.44,0.01 1.36,0.04 2.15,0.67c0.04,0.03 0.18,0.15 0.33,0.31c0.71,0.78 5.06,6.58 7.59,9.97l0.08,0.18c0.3,1.23 0.2,2.18 -0.29,2.83c-0.04,0.05 -0.06,0.08 -0.2,0.21l-0.39,0.4c-0.34,0.35 -0.51,0.53 -0.7,0.73l-0.45,0.48c-0.44,0.45 -0.73,0.73 -0.94,0.92c-0.31,0.29 -0.33,0.31 -0.37,0.44c-0.1,0.29 -0.09,0.62 0,0.98c0.12,0.46 0.4,0.75 0.6,0.96c0.89,0.96 1.34,1.44 2.39,2.43c0.46,0.44 0.9,0.9 1.77,1.83c0.01,0.02 1.49,1.59 4.25,4.25c0.1,0.1 0.37,0.36 0.79,0.47c0.27,0.07 0.53,0.07 0.76,0c0.17,-0.05 0.29,-0.13 0.51,-0.28c0.35,-0.24 0.57,-0.48 0.66,-0.57c0.72,-0.77 1.12,-1.2 1.53,-1.57c0.62,-0.56 0.99,-0.89 1.62,-1.08c0.58,-0.17 1.21,-0.17 1.85,0.01c0.75,0.21 1.2,0.6 1.71,1.06l0.2,0.18c0.43,0.38 0.9,0.71 1.39,1.06c0.32,0.23 0.64,0.46 0.96,0.7l0.11,0.08c1.66,1.29 2.49,1.94 2.82,2.17c1.12,0.81 2.11,1.62 2.97,2.42c0.24,0.22 0.73,0.68 1,1.44c0.25,0.71 0.18,1.34 0.12,1.79c-0.06,0.49 -0.2,1.26 -0.76,2.37c-0.5,0.98 -1.16,1.9 -1.98,2.73c-1.59,1.62 -3.29,2.42 -4.17,2.75c-1.53,0.59 -2.84,0.71 -3.49,0.74c-0.13,0 -0.25,0 -0.38,0zM1.02,11.49c0.06,0.85 0.23,1.56 0.32,1.9c0.22,0.78 0.47,1.33 1.01,2.35c0.76,1.46 1.15,2.2 1.9,3.43c0.73,1.2 1.55,2.43 2.43,3.67c0.67,0.93 1.9,2.67 3.72,4.73c1.11,1.26 2,2.14 3.78,3.9c1.48,1.46 2.35,2.32 3.63,3.38c1.24,1.03 2.28,1.76 3.03,2.3c1.49,1.06 2.65,1.78 3.76,2.47c1.05,0.65 1.74,1.08 2.71,1.6c1.32,0.71 1.99,1.07 2.89,1.35c0.6,0.19 1.83,0.6 3.49,0.53c0.58,-0.02 1.77,-0.14 3.17,-0.67c0.8,-0.31 2.36,-1.04 3.81,-2.52c0.74,-0.76 1.35,-1.59 1.8,-2.48c0.49,-0.97 0.61,-1.63 0.66,-2.04c0.05,-0.4 0.1,-0.85 -0.08,-1.34c-0.18,-0.52 -0.53,-0.85 -0.74,-1.04c-0.83,-0.77 -1.79,-1.56 -2.85,-2.33c-0.35,-0.25 -1.2,-0.91 -2.87,-2.21l-0.11,-0.08c-0.3,-0.24 -0.61,-0.46 -0.93,-0.68c-0.49,-0.35 -1,-0.71 -1.47,-1.12l-0.21,-0.18c-0.48,-0.42 -0.79,-0.7 -1.32,-0.85c-0.46,-0.13 -0.89,-0.13 -1.29,-0.01c-0.41,0.12 -0.67,0.35 -1.23,0.86c-0.37,0.33 -0.72,0.7 -1.47,1.51c-0.11,0.12 -0.39,0.42 -0.83,0.72c-0.23,0.16 -0.46,0.31 -0.79,0.41c-0.41,0.12 -0.85,0.12 -1.3,0c-0.67,-0.18 -1.09,-0.58 -1.22,-0.71c-2.79,-2.68 -4.28,-4.27 -4.29,-4.28c-0.85,-0.91 -1.28,-1.37 -1.72,-1.79c-1.07,-1.01 -1.52,-1.5 -2.42,-2.46c-0.25,-0.27 -0.65,-0.7 -0.84,-1.39c-0.15,-0.56 -0.15,-1.08 0,-1.56c0.13,-0.39 0.31,-0.55 0.64,-0.86c0.2,-0.18 0.48,-0.44 0.9,-0.88l0.45,-0.47c0.19,-0.2 0.36,-0.39 0.71,-0.74l0.4,-0.41c0.07,-0.07 0.08,-0.08 0.1,-0.11c0.29,-0.39 0.34,-1.03 0.14,-1.9c-2.06,-2.76 -6.76,-9.04 -7.46,-9.81c-0.1,-0.11 -0.19,-0.18 -0.21,-0.2c-0.53,-0.42 -1.2,-0.44 -1.56,-0.45c-0.29,-0.01 -0.92,0.03 -1.9,0.37c-1.21,0.41 -1.98,1.06 -2.54,1.53c-1.41,1.18 -2.22,2.49 -2.58,3.16c-0.42,0.79 -1.38,2.9 -1.21,5.43v0z"></path></g></g></g></svg>