<?xml version="1.0" encoding="UTF-8"?>
<svg id="Calque_2" data-name="Calque 2" xmlns="http://www.w3.org/2000/svg" viewBox="0 0 41.77 23.61">
  <g id="pictogrammes">
    <g>
      <path d="M14.24,22.99H4.45c-.51,0-.89-.12-1.15-.36-.26-.24-.4-.57-.4-.93s.14-.71.41-.95c.26-.23.63-.34,1.14-.34h3.6V2.58H2.58v4.97c0,.52-.11.9-.34,1.16-.47.53-1.38.55-1.88,0-.24-.26-.36-.64-.36-1.17V.5C0,.22.22,0,.5,0h17.69c.28,0,.5.22.5.5v7.05c0,.52-.11.9-.34,1.16-.47.54-1.42.54-1.89,0-.23-.26-.34-.64-.34-1.16V2.58h-5.46v17.83h3.6c.51,0,.88.11,1.14.34.27.24.41.57.41.95s-.14.69-.41.93c-.26.24-.64.36-1.15.36ZM4.45,21.41c-.36,0-.47.08-.48.09-.04.03-.08.08-.08.2,0,.09.02.14.08.2.01,0,.11.09.47.09h9.79c.27,0,.42-.05.47-.09.06-.06.08-.11.08-.2,0-.12-.04-.17-.08-.2,0,0-.11-.09-.48-.09h-4.1c-.28,0-.5-.22-.5-.5V2.08c0-.28.22-.5.5-.5h6.46c.28,0,.5.22.5.5v5.47c0,.31.06.46.09.5.07.08.33.08.4,0,.04-.04.09-.19.09-.5V1H1v6.55c0,.38.08.48.09.49.13.14.34.07.4,0,.03-.04.09-.19.09-.5V2.08c0-.28.22-.5.5-.5h6.47c.28,0,.5.22.5.5v18.83c0,.28-.22.5-.5.5h-4.1Z"/>
      <path d="M33.65,23.61c-1.95,0-3.53-.47-4.71-1.41-1.21-.96-1.82-2.27-1.82-3.89v-10.01h-2.41c-.51,0-.89-.12-1.15-.36-.26-.24-.4-.57-.4-.95s.14-.69.41-.93c.26-.24.63-.36,1.15-.36h2.41V1.55c0-.51.12-.89.36-1.15.5-.54,1.4-.52,1.88,0,.24.26.36.64.36,1.15v4.16h8.07c.51,0,.89.12,1.15.36.27.25.41.57.41.95s-.14.69-.4.93c-.26.24-.64.36-1.15.36h-8.07v10.01c0,.77.3,1.39.92,1.91.64.54,1.61.81,2.9.81,1.02,0,2.14-.16,3.33-.46,1.19-.31,2.12-.65,2.77-1.03.72-.47,1.32-.38,1.76.08.24.25.36.56.36.9,0,.22-.07.56-.39.88-.46.48-1.46.95-3.13,1.47-1.59.5-3.13.75-4.59.75ZM24.71,6.71c-.36,0-.46.08-.47.09-.06.06-.08.11-.08.2,0,.12.04.17.08.21.01.01.11.09.47.09h2.91c.28,0,.5.22.5.5v10.51c0,1.32.47,2.33,1.45,3.1,1,.79,2.37,1.19,4.09,1.19,1.36,0,2.8-.24,4.3-.7,1.91-.6,2.52-1.02,2.71-1.21.1-.1.1-.16.1-.18,0-.08-.02-.14-.09-.21-.07-.08-.12-.08-.17-.08,0,0-.1,0-.35.16-.75.44-1.77.82-3.04,1.15-1.28.33-2.48.5-3.58.5-1.53,0-2.72-.35-3.54-1.04-.85-.71-1.28-1.61-1.28-2.68V7.81c0-.28.22-.5.5-.5h8.57c.35,0,.45-.08.47-.09.06-.06.08-.11.08-.2,0-.12-.04-.18-.08-.22-.02-.02-.12-.09-.47-.09h-8.57c-.28,0-.5-.22-.5-.5V1.55c0-.35-.08-.45-.09-.47-.07-.07-.27-.15-.41,0-.02.02-.09.12-.09.47v4.66c0,.28-.22.5-.5.5h-2.91Z"/>
    </g>
  </g>
</svg>