<?xml version="1.0" encoding="UTF-8"?>
<svg id="Calque_2" data-name="Calque 2" xmlns="http://www.w3.org/2000/svg" viewBox="0 0 26.88 25.53">
  <defs>
    <style>
      .cls-1 {
        fill: #00978f;
      }
    </style>
  </defs>
  <g id="pictogrammes">
    <g>
      <path class="cls-1" d="M24.92,12.44c1.23-.92,1.96-2.35,1.96-3.91,0-2.58-2.03-4.72-4.57-4.87-.84-1.62-2.52-2.65-4.33-2.65-.77,0-1.53.19-2.22.54-.91-.99-2.2-1.55-3.57-1.55-1.13,0-2.22.39-3.09,1.11-.32-.07-.64-.1-.94-.1-2.25,0-4.21,1.56-4.73,3.74-2.02.64-3.42,2.52-3.42,4.65,0,.79.19,1.57.56,2.26-.36.69-.56,1.46-.56,2.24,0,2.69,2.19,4.88,4.88,4.88,1.04,0,2.03-.32,2.83-.91.25.28.53.54.83.78,2.08,1.67,4.93,1.91,7.25.64.11-.05.23-.11.34-.18.08.23.17.47.27.72,0,.01,0,.02,0,.03.3.67.65,1.31,1.05,1.91,1.33,2,3.05,3.42,4.5,3.71.18.04.35.05.51.05.39,0,.75-.1,1.04-.3,1.28-.83,1.15-3.29-.27-5.91,2-1.67,2.69-4.47,1.68-6.89ZM23.11,24.63c-.26.17-.59.22-1,.14-1.24-.25-2.83-1.58-4.03-3.4-.21-.31-.4-.64-.58-.98.64.27,1.29.41,1.94.41.84,0,1.71-.22,2.6-.66.21-.11.42-.23.62-.36,1.15,2.17,1.37,4.26.46,4.86ZM22.56,18.94c-.27.21-.56.39-.85.54-1.58.78-2.99.78-4.42,0-.02-.01-.04-.02-.07-.03l-.2-.06c-.14-.35-.25-.67-.34-.97-.38-1.4.63-2.93,1.29-3.36.39-.26,1.22-.37,1.82-.13.18.08.4-.01.48-.2.08-.19-.01-.4-.2-.48-.89-.37-1.95-.17-2.5.19-.9.59-1.93,2.27-1.64,3.9-.15.11-.3.2-.47.28-2.08,1.14-4.62.92-6.47-.56-.36-.28-.68-.6-.95-.95,0,0,0,0,0,0-.79-.99-1.24-2.24-1.27-3.5,0-.2-.16-.37-.37-.37s-.37.16-.37.37v.02s0,0,0,0h0c.03,1.29.46,2.56,1.2,3.63-.67.49-1.5.77-2.37.77-2.29,0-4.15-1.86-4.15-4.15,0-.72.19-1.43.56-2.06,0,0,0,0,0,0,.28-.48,1.06-.88,2.02-1.04,1.19-.2,2.33,0,2.91.5.15.13.38.11.52-.04.13-.15.11-.38-.04-.52-.9-.77-2.41-.85-3.51-.66-.89.15-1.65.48-2.14.92-.21-.5-.32-1.05-.32-1.6,0-1.87,1.27-3.52,3.09-4,.14-.04.24-.15.27-.28.38-1.95,2.08-3.37,4.06-3.37.3,0,.63.04.96.12.12.03.24,0,.33-.08.77-.67,1.74-1.05,2.75-1.05,1.12,0,2.17.44,2.93,1.21-1.35.91-2,2.04-2.01,3.5,0,0,0,0,0,0-.11,1.09-.59,1.44-1.49,1.72-.52.16-1.01.07-1.34-.04-.19-.06-.4.04-.46.23-.06.19.04.4.23.46.26.09.6.16.98.16.25,0,.52-.03.8-.12.66-.21,1.2-.49,1.55-1,.24.36,1.2,1.37,2.26,1.37.2,0,.37-.16.37-.37s-.16-.37-.37-.37c-.71,0-1.54-.85-1.64-1-.13-.4-.17-.58-.17-1.02,0-1.36.63-2.33,2.03-3.16,0,0,0,0,0,0,0,0,0,0,0,0,.65-.39,1.38-.59,2.12-.59,1.6,0,3.08.95,3.77,2.43.06.13.19.21.33.21,2.25.03,4.07,1.89,4.07,4.15,0,1.31-.61,2.52-1.65,3.3-.12-.21-.25-.4-.38-.58,0,0-.01-.01-.02-.02-.06-.09-.13-.18-.18-.23-.25-.32-.57-.62-.96-.94-.36-.28-.73-.51-1.09-.69-.59-.32-1.23-.54-1.96-.66-.4-.06-.82-.09-1.29-.07-.2,0-.36.18-.35.38,0,.2.15.36.38.35.41-.02.79,0,1.14.06.64.11,1.21.3,1.74.59.33.16.66.37.97.61.35.28.62.55.87.85.05.05.09.1.16.2.16.22.33.45.45.72.18.29.33.6.46.98,0,.05.03.09.05.13.49,2-.23,4.16-1.93,5.43Z"/>
      <path class="cls-1" d="M15.48,10.89c-.43-.11-1.09-.19-1.78.08-1.13.44-1.89,1.64-1.93,3.06,0,.2.15.37.35.38,0,0,0,0,.01,0,.2,0,.36-.16.37-.35.04-1.12.61-2.06,1.47-2.4.51-.2,1.01-.14,1.33-.06.2.05.4-.07.45-.26.05-.2-.07-.4-.26-.45Z"/>
    </g>
  </g>
</svg>