<?xml version="1.0" encoding="UTF-8"?>
<svg id="Calque_2" data-name="Calque 2" xmlns="http://www.w3.org/2000/svg" viewBox="0 0 43.11 33.49">
  <defs>
    <style>
      .cls-1 {
        fill: #957755;
      }
    </style>
  </defs>
  <g id="pictogrammes">
    <g>
      <path class="cls-1" d="M43,8.35c-.25-.49-.84-.65-1.31-.39-1.29.69-2.67,1.31-4.14,1.84L31.67.45c-.2-.29-.51-.45-.84-.45H11.27c-.33,0-.65.16-.84.45l-5.92,9.43c-1.08-.39-2.12-.82-3.1-1.29-.49-.24-1.08-.04-1.31.45-.24.49-.02,1.08.45,1.31.92.45,1.9.86,2.9,1.22l-2.8,4.45c-.1.16-.16.35-.16.57l.37,8.19c.08,1.65,1,3.04,2.35,3.78-.24.37-.35.8-.35,1.27v1.12c0,1.39,1.14,2.55,2.55,2.55s2.53-1.16,2.53-2.55v-1.12c0-.25-.04-.49-.12-.73h27.14c-.08.24-.12.47-.12.73v1.12c0,1.39,1.16,2.55,2.55,2.55s2.53-1.16,2.53-2.55v-1.12c0-.47-.12-.9-.35-1.27.41-.22.8-.51,1.14-.86.86-.9,1.29-2.08,1.23-3.31l-.33-7.9c-.02-.16-.06-.33-.16-.47l-2.84-4.51c1.41-.53,2.74-1.16,4-1.82.47-.27.65-.86.39-1.33ZM11.8,1.96h18.5l5.33,8.51c-4.41,1.39-9.45,2.14-14.7,2.14s-10.13-.73-14.52-2.08L11.8,1.96ZM39.65,16.84l.33,7.62c.04.71-.22,1.37-.71,1.88s-1.14.8-1.84.8H5.39c-1.39,0-2.51-1.08-2.57-2.45l-.35-7.9,2.86-4.57c4.7,1.51,10.07,2.33,15.6,2.33s11.07-.84,15.8-2.37l2.92,4.64Z"/>
      <path class="cls-1" d="M33.84,21.07c0,1.65-1.35,2.98-3,2.98s-3-1.33-3-2.98,1.35-3,3-3,3,1.35,3,3Z"/>
      <path class="cls-1" d="M14.68,21.07c0,1.65-1.33,2.98-3,2.98s-2.98-1.33-2.98-2.98,1.33-3,2.98-3,3,1.35,3,3Z"/>
    </g>
  </g>
</svg>